<svg version="1.1" id="Layer_1" xmlns="http://www.w3.org/2000/svg" xmlns:xlink="http://www.w3.org/1999/xlink" x="0px" y="0px"
	 width="100%" viewBox="0 0 1246 948" enable-background="new 0 0 1246 948" xml:space="preserve">
<path fill="#FFFFFF" opacity="1.000000" stroke="none" 
	d="
M734.000000,949.000000 
	C489.361115,949.000000 245.222198,949.000000 1.041652,949.000000 
	C1.041652,633.063721 1.041652,317.127411 1.041652,1.000000 
	C208.579300,1.000000 416.158661,1.000000 623.738037,1.000000 
	C831.381104,1.000000 1039.024170,1.000000 1246.833618,1.000000 
	C1246.833618,316.999939 1246.833618,632.999939 1246.833618,949.000000 
	C1076.127075,949.000000 905.313538,949.000000 734.000000,949.000000 
M665.821289,599.947571 
	C663.458008,601.410034 661.094727,602.872498 658.518433,604.466797 
	C665.497864,615.749573 673.897827,624.690186 686.684814,629.163513 
	C689.634155,621.839233 692.443054,614.863770 694.754578,609.123413 
	C690.279236,605.008667 686.581970,601.609314 683.835144,598.170776 
	C713.853149,598.141479 743.871216,598.112244 774.427307,598.480530 
	C777.769897,602.495056 781.112488,606.509583 784.693481,610.810364 
	C789.664307,606.364990 794.320862,602.200684 799.913574,598.134827 
	C903.225708,598.134827 1006.537781,598.134827 1110.683228,598.134827 
	C1109.390747,595.858826 1108.782104,594.700317 1108.095093,593.590210 
	C1094.957153,572.359131 1081.781982,551.151062 1068.672241,529.902588 
	C1054.206665,506.456238 1045.013672,481.246643 1043.113159,453.566772 
	C1041.837524,434.988678 1040.222168,416.433441 1039.016968,397.851227 
	C1038.322876,387.150299 1035.791382,377.207428 1029.262817,368.494568 
	C1025.869873,363.966339 1022.509644,359.406952 1019.315186,354.738129 
	C1014.828125,348.180237 1009.808411,341.861298 1009.098206,333.454163 
	C1008.482727,326.168060 1007.670837,318.898468 1007.071533,311.611206 
	C1006.224670,301.313141 1003.699951,291.719849 997.108215,283.375031 
	C992.989258,278.160614 989.359741,272.538147 985.766724,266.934540 
	C980.208313,258.265442 974.283875,249.753281 973.198730,239.009140 
	C972.699890,234.069885 972.228149,229.023758 970.816223,224.303650 
	C968.270142,215.792084 961.731384,212.003159 953.064148,212.636642 
	C950.923828,212.793091 947.937683,212.216370 946.625854,210.792404 
	C942.996582,206.853058 939.004150,202.714676 937.029663,197.888214 
	C931.846558,185.218567 923.556641,176.592178 909.964233,173.801163 
	C890.450623,169.794296 870.959778,165.608322 851.328064,162.270294 
	C839.676819,160.289200 828.534607,160.305847 817.840637,168.614365 
	C808.650696,175.754364 796.926331,178.042877 785.333252,172.165207 
	C769.900391,164.340729 754.547974,156.353363 739.016663,148.730072 
	C734.782349,146.651733 730.038574,144.347122 725.513855,144.316330 
	C668.697388,143.929535 611.878296,143.941498 554.612122,143.439056 
	C553.259949,143.669815 551.907776,143.900574 549.571411,143.895782 
	C527.460693,143.646912 505.350494,143.272583 483.239105,143.175278 
	C437.330200,142.973221 391.420593,142.918152 346.012482,142.272125 
	C347.731415,141.421402 349.450317,140.570694 351.233612,139.688110 
	C348.034607,132.419022 345.052704,125.643303 341.787964,118.224899 
	C331.989685,123.215599 322.642792,127.976395 313.171570,132.800522 
	C315.136993,136.418961 316.707886,139.311035 317.533264,142.630615 
	C297.231750,142.491379 276.930389,142.282455 256.628662,142.227051 
	C210.324478,142.100693 164.020126,142.049393 117.715836,141.968170 
	C115.955452,141.965073 114.195045,141.967789 112.137489,141.967789 
	C110.149315,241.936935 108.175484,341.185059 106.172745,441.886414 
	C124.563042,441.886414 142.337418,441.886414 160.643524,442.358307 
	C163.810394,448.599915 166.977264,454.841522 170.294952,461.380371 
	C177.409592,456.588043 183.658066,452.379120 189.823151,448.226379 
	C188.722855,446.094025 187.896988,444.493500 187.998856,442.852264 
	C211.076309,443.245209 234.154037,443.622375 257.231110,444.035828 
	C277.817230,444.404633 298.403748,444.765747 318.987640,445.237091 
	C324.411285,445.361298 329.825928,445.880768 335.959290,446.263336 
	C335.638428,449.125549 335.354004,451.662506 334.356873,453.924713 
	C326.854248,459.498444 319.351624,465.072144 311.598358,470.832031 
	C315.537170,477.342834 319.441254,483.796234 323.473175,490.460938 
	C327.676086,487.713196 331.409515,485.272430 335.562805,483.560577 
	C335.639465,485.386017 335.782227,487.211456 335.782928,489.036926 
	C335.796265,523.354370 335.792755,557.671753 335.792786,591.989197 
	C335.792786,593.903992 335.792786,595.818726 335.792786,598.140503 
	C338.778351,598.140503 340.918030,598.140503 343.057709,598.140503 
	C448.508820,598.140503 553.959961,598.139709 659.411072,598.146118 
	C661.575073,598.146301 663.739014,598.230103 666.069214,598.903381 
	C666.154175,599.103638 666.239075,599.303833 665.821289,599.947571 
M124.696152,750.699646 
	C123.026886,737.223694 121.357620,723.747742 119.690109,710.285889 
	C113.864670,710.285889 108.587959,710.285889 103.001495,710.285889 
	C103.096527,711.964355 103.077698,713.424561 103.275414,714.854919 
	C106.215317,736.122620 109.176872,757.387329 112.147484,778.650818 
	C115.762901,804.529846 119.362640,830.411194 123.105003,856.271912 
	C123.281868,857.494080 124.716896,859.431396 125.667534,859.494019 
	C130.615128,859.819946 135.595627,859.645935 140.812836,859.645935 
	C146.477768,821.356323 152.077576,783.506958 157.677368,745.657593 
	C157.941437,745.675537 158.205505,745.693481 158.469559,745.711365 
	C163.953674,783.622131 169.437775,821.532898 174.920486,859.433960 
	C180.883972,859.433960 186.328430,859.433960 192.244400,859.433960 
	C199.767380,809.701050 207.267899,760.116516 214.801346,710.314392 
	C209.197052,710.314392 204.112335,710.314392 198.469742,710.314392 
	C193.704010,749.138184 188.959351,787.790466 184.080383,827.536743 
	C178.225067,787.592163 172.561829,748.958008 166.892044,710.279053 
	C161.172150,710.279053 156.067505,710.279053 150.413239,710.279053 
	C144.686630,749.740173 138.978485,789.074036 133.162659,829.149841 
	C130.327820,802.820862 127.569763,777.205078 124.696152,750.699646 
M591.008179,843.497803 
	C591.008179,809.659668 591.008179,775.821472 591.008179,744.241394 
	C599.921814,777.248413 609.471619,812.500122 618.949890,847.770996 
	C622.172241,859.762146 622.095825,859.551575 634.756348,859.868591 
	C639.690796,859.992126 640.803101,858.361511 640.786255,853.667542 
	C640.621338,807.693787 640.686829,761.719116 640.686829,715.744751 
	C640.686829,713.973633 640.686829,712.202576 640.686829,710.278748 
	C635.351440,710.278748 630.738159,710.278748 625.742554,710.278748 
	C625.742554,747.979309 625.742554,785.464844 625.742554,822.618469 
	C615.837891,786.482239 605.894470,750.115540 595.820801,713.784912 
	C595.428650,712.370728 593.857239,710.318420 592.719666,710.239990 
	C587.301453,709.866089 581.843079,710.072693 576.239990,710.072693 
	C576.239990,760.189636 576.239990,809.717041 576.239990,859.352051 
	C581.297424,859.352051 586.008972,859.352051 591.008179,859.352051 
	C591.008179,854.136963 591.008179,849.316467 591.008179,843.497803 
M373.168976,789.500671 
	C373.210510,802.333069 372.869812,815.182800 373.449707,827.990784 
	C373.753937,834.710144 375.085632,841.531189 377.012390,847.990417 
	C379.292236,855.633484 385.110260,860.001587 393.130829,860.943970 
	C402.096619,861.997437 410.135010,860.524780 415.293854,852.003784 
	C415.645233,851.423462 416.187408,850.958557 416.883209,850.162842 
	C417.278442,853.632324 417.611633,856.556946 417.926880,859.324219 
	C423.263824,859.324219 428.024994,859.324219 432.600037,859.324219 
	C432.600037,807.243225 432.600037,755.495483 432.600037,703.581299 
	C427.288116,703.581299 422.359192,703.581299 416.813873,703.581299 
	C416.813873,719.468628 416.813873,735.130005 416.813873,751.318237 
	C401.234711,737.549011 380.337494,743.328430 375.398254,762.726868 
	C373.298676,770.972900 373.832153,779.889343 373.168976,789.500671 
M747.964355,855.523987 
	C747.964355,853.967896 747.964355,852.411865 747.964355,850.789856 
	C750.987183,853.634521 753.251282,856.678833 756.265259,858.439514 
	C767.811584,865.184326 783.433411,859.952087 788.504578,847.592407 
	C790.304077,843.206604 791.714111,838.339478 791.852356,833.649292 
	C792.440430,813.697388 792.678894,793.728638 792.592896,773.768005 
	C792.571167,768.711060 791.361206,763.513000 789.850586,758.642395 
	C787.471558,750.971863 782.222717,745.633118 774.084595,744.336731 
	C765.220703,742.924744 757.122864,744.656860 751.415833,752.463989 
	C750.880066,753.197021 750.709045,754.196777 750.368713,755.072754 
	C749.868774,754.705933 749.368835,754.339111 748.868896,753.972290 
	C748.868896,737.230957 748.868896,720.489563 748.868896,703.545410 
	C743.562012,703.545410 738.662964,703.545410 733.452759,703.545410 
	C733.452759,755.673157 733.452759,807.493164 733.452759,859.752197 
	C737.427124,859.752197 741.091858,860.030090 744.670349,859.596436 
	C745.867615,859.451233 746.844788,857.489746 747.964355,855.523987 
M999.263428,842.497131 
	C999.263367,844.497131 999.263367,846.497131 999.263367,848.497131 
	C999.263367,860.001465 999.263062,859.871887 1011.021729,859.844482 
	C1014.497437,859.836426 1015.688477,858.819336 1015.620667,855.301758 
	C1015.431335,845.472473 1015.679138,835.635193 1015.518433,825.804871 
	C1015.379150,817.283752 1020.592163,811.181824 1024.370239,803.316589 
	C1025.489014,806.844116 1026.257202,809.212952 1026.992065,811.592102 
	C1031.557983,826.372559 1036.065430,841.171631 1040.756836,855.912170 
	C1041.220093,857.367981 1042.709473,859.467346 1043.865234,859.564026 
	C1048.753540,859.973022 1053.695679,859.737366 1059.139526,859.737366 
	C1058.480103,857.449829 1058.086548,855.871460 1057.572388,854.333313 
	C1050.821289,834.138000 1044.149292,813.915222 1037.214233,793.783203 
	C1035.698364,789.382935 1035.693481,785.720337 1038.074951,781.539307 
	C1043.015747,772.864563 1047.420288,763.884033 1052.031372,755.021973 
	C1053.462402,752.271545 1054.848511,749.497803 1056.717407,745.827148 
	C1052.494141,745.827148 1049.194336,746.141602 1045.980225,745.751404 
	C1041.464355,745.203125 1039.219604,746.940002 1037.339600,751.101868 
	C1030.595581,766.032227 1023.387695,780.752991 1016.355164,795.552917 
	C1016.088562,795.514343 1015.822021,795.475708 1015.555481,795.437073 
	C1015.555481,793.688232 1015.555420,791.939453 1015.555420,790.190613 
	C1015.555420,764.691650 1015.555420,739.192688 1015.555420,713.693726 
	C1015.555420,703.194092 1015.548828,703.427612 1005.023376,703.126587 
	C1000.386963,702.993958 999.145752,704.402222 999.163208,709.003906 
	C999.330750,753.168152 999.263672,797.333252 999.263428,842.497131 
M296.779846,809.499451 
	C296.779846,826.118835 296.779846,842.738281 296.779846,859.213867 
	C302.407806,859.213867 307.456879,859.213867 312.709717,859.213867 
	C312.709717,834.944641 312.560822,811.123230 312.806213,787.305786 
	C312.874176,780.707275 313.475891,773.970276 314.987671,767.569580 
	C316.624878,760.637573 321.722107,757.981201 329.117767,758.660889 
	C335.142700,759.214600 338.157562,762.422913 339.169525,769.671631 
	C339.559357,772.464111 339.725952,775.309204 339.730591,778.130737 
	C339.772217,803.458008 339.754974,828.785278 339.755066,854.112610 
	C339.755066,855.879639 339.755096,857.646606 339.755096,859.341797 
	C345.366028,859.341797 350.291290,859.341797 355.670502,859.341797 
	C355.670502,857.228333 355.670502,855.432617 355.670502,853.636902 
	C355.670471,827.809692 355.695129,801.982483 355.643555,776.155396 
	C355.635925,772.330811 355.447540,768.487488 355.036041,764.686035 
	C353.291412,748.569641 340.205017,739.869446 324.965668,745.291138 
	C320.422546,746.907410 316.687134,750.793823 312.486847,753.705872 
	C312.240356,751.500732 311.936005,748.777954 311.641602,746.144165 
	C306.484741,746.144165 301.589813,746.144165 296.779968,746.144165 
	C296.779968,767.184082 296.779968,787.841736 296.779846,809.499451 
M259.378693,791.508240 
	C254.945633,791.986450 250.495544,792.343872 246.082626,792.965027 
	C231.433197,795.027039 222.279922,803.069885 219.435532,817.365356 
	C217.606232,826.559326 217.775085,835.912598 220.719238,845.024292 
	C224.543701,856.860474 232.581406,862.191956 244.916199,861.107910 
	C251.302872,860.546570 256.027405,857.311768 259.710938,851.624756 
	C260.346924,854.655823 260.845551,857.032166 261.344360,859.409424 
	C266.190643,859.409424 270.803009,859.409424 275.692047,859.409424 
	C275.751038,858.228333 275.844757,857.274414 275.839447,856.321106 
	C275.722046,835.324341 275.616882,814.327393 275.456512,793.330933 
	C275.389069,784.501587 275.527649,775.653198 274.988708,766.849121 
	C274.218170,754.262024 267.531342,746.684631 256.029846,744.466125 
	C234.660141,740.344116 218.152695,755.896545 222.631851,775.744263 
	C227.586197,775.744263 232.500397,775.744263 237.526184,775.744263 
	C237.742233,772.616211 237.710754,769.774719 238.174957,767.016663 
	C239.244110,760.664429 243.147324,757.305237 248.991577,757.373840 
	C254.917389,757.443359 258.525757,760.736267 258.998688,767.548279 
	C259.528595,775.181274 259.405487,782.859497 259.378693,791.508240 
M483.501343,805.942444 
	C491.642639,805.942444 499.783966,805.942444 509.107025,805.942444 
	C508.354614,792.135803 508.299713,778.642761 506.655701,765.346191 
	C505.557373,756.462891 500.457123,749.247375 491.343781,745.966980 
	C470.558075,738.484985 452.224609,750.255920 451.132172,773.020081 
	C450.167389,793.125061 450.534363,813.333618 451.303925,833.458557 
	C451.539154,839.610840 453.935730,846.358337 457.300690,851.568665 
	C463.845856,861.703064 480.675659,864.305054 493.663055,858.414490 
	C503.422424,853.988037 509.669586,839.851196 507.364777,827.262573 
	C502.609436,827.262573 497.836761,827.262573 492.816040,827.262573 
	C492.486115,830.549255 492.379181,833.711792 491.819061,836.791870 
	C490.267975,845.320923 483.565521,849.544922 475.716705,846.998291 
	C470.247833,845.223877 467.808105,840.608704 467.294617,835.577820 
	C466.305298,825.884644 466.161407,816.105225 465.645691,805.942444 
	C471.905304,805.942444 477.203674,805.942444 483.501343,805.942444 
M1102.045044,744.160278 
	C1099.050049,744.153259 1096.041382,743.956177 1093.062256,744.170410 
	C1075.117432,745.460510 1067.881104,761.313416 1070.647217,775.657654 
	C1075.544067,775.657654 1080.421631,775.657654 1085.421265,775.657654 
	C1085.674316,772.290833 1085.641235,769.273193 1086.174927,766.359375 
	C1087.240479,760.541809 1090.861450,757.645935 1096.587280,757.600830 
	C1102.320801,757.555664 1105.951416,759.872742 1106.464844,765.944092 
	C1107.184937,774.457703 1106.646851,783.077820 1106.646851,791.919617 
	C1104.069214,792.034485 1101.600220,792.094299 1099.138550,792.262451 
	C1082.975098,793.365845 1072.189575,800.404358 1068.474854,812.726990 
	C1065.232056,823.484558 1065.137573,834.377808 1068.586914,845.147827 
	C1072.259521,856.614685 1079.431641,861.500732 1091.366333,861.178955 
	C1098.455322,860.987793 1103.706421,857.685181 1107.608887,851.699951 
	C1108.196899,854.640076 1108.677979,857.045288 1109.156006,859.435669 
	C1114.166260,859.435669 1118.748413,859.435669 1123.176270,859.435669 
	C1123.176270,853.667847 1123.184082,848.222229 1123.174927,842.776550 
	C1123.133301,818.132263 1123.259521,793.486023 1122.975098,768.844543 
	C1122.812622,754.760681 1116.626709,747.564148 1102.045044,744.160278 
M913.041260,792.500000 
	C913.009583,784.675659 913.294739,776.833740 912.863708,769.031494 
	C912.361084,759.936096 910.083557,751.249146 900.907288,747.002441 
	C890.262634,742.076294 879.328430,742.289307 869.523071,748.952332 
	C860.190552,755.293945 859.711487,765.484192 859.650452,775.743408 
	C864.982300,775.743408 869.888367,775.743408 874.514282,775.743408 
	C875.338013,771.485474 875.749329,767.485962 876.927429,763.726868 
	C878.528503,758.618347 882.709167,757.385925 887.661804,757.633484 
	C892.364258,757.868469 895.532532,760.329041 895.959290,764.741516 
	C896.828491,773.728943 896.995544,782.784302 897.474670,792.262695 
	C893.780945,792.262695 891.280273,792.088684 888.810730,792.291992 
	C876.053955,793.342224 864.567566,797.220276 859.344421,810.079041 
	C854.215637,822.705261 854.469421,835.805481 859.730896,848.495667 
	C863.278625,857.052490 869.952637,861.088135 879.298157,861.242493 
	C887.114868,861.371582 892.997192,858.219543 896.949158,852.330933 
	C898.155457,854.833679 898.893677,858.920471 900.585632,859.363342 
	C904.552856,860.401733 908.976685,859.695496 913.041260,859.695496 
	C913.041260,837.073242 913.041260,815.286621 913.041260,792.500000 
M680.179626,860.756409 
	C683.506714,860.861267 686.833374,861.038330 690.160950,861.059082 
	C709.572876,861.180359 717.937988,842.965149 715.343689,827.419861 
	C710.616943,827.419861 705.888306,827.419861 701.111572,827.419861 
	C700.735840,830.402344 700.432556,833.041504 700.066589,835.671997 
	C699.026062,843.148865 695.368713,847.019104 688.842041,847.593445 
	C682.764160,848.128357 677.368896,844.901611 676.238281,837.935730 
	C674.554749,827.562988 674.296204,816.959045 673.385864,805.902222 
	C688.617126,805.902222 702.382202,805.902222 716.815308,805.902222 
	C716.289001,790.888977 718.369263,776.215576 713.975220,761.918762 
	C711.664062,754.399292 707.123840,748.682739 699.416870,745.945129 
	C678.854248,738.641235 660.282898,750.397034 659.252258,772.590210 
	C658.310425,792.871216 658.580566,813.249817 659.280945,833.552124 
	C659.807739,848.822998 666.226624,856.445740 680.179626,860.756409 
M966.708862,796.786194 
	C962.508179,793.794861 958.337402,790.760315 954.100037,787.821899 
	C947.163330,783.011719 945.063660,776.272583 945.987488,768.204834 
	C946.797913,761.127686 950.325806,757.686707 956.866394,757.796387 
	C963.101807,757.900879 966.553650,761.344055 967.039490,768.303650 
	C967.278503,771.727661 967.081055,775.182190 967.081055,778.645691 
	C972.854858,778.645691 977.744690,778.645691 983.289856,778.645691 
	C982.847473,773.628662 982.637390,769.004150 981.997864,764.439819 
	C980.453918,753.419983 974.573486,747.116455 963.828491,744.608398 
	C952.498718,741.963684 940.715881,745.739197 935.090637,753.816589 
	C925.306946,767.865295 928.926270,788.986267 943.241028,800.391052 
	C948.310303,804.429749 953.679138,808.094238 958.934753,811.897034 
	C968.673523,818.943604 970.010193,829.847839 966.781982,840.573364 
	C965.994568,843.189575 962.729248,845.998535 959.997742,846.915710 
	C951.657227,849.716003 945.062012,844.466919 944.055359,834.882324 
	C943.750977,831.983643 943.735107,829.054626 943.591675,826.230835 
	C938.079407,826.230835 933.158691,826.230835 927.979431,826.230835 
	C927.453857,836.703003 927.765686,846.562561 935.644470,854.364136 
	C942.594604,861.246094 951.376221,861.530823 960.336060,861.005188 
	C971.835144,860.330566 980.541260,853.176514 982.974670,841.940247 
	C986.883667,823.890381 983.706970,808.181885 966.708862,796.786194 
M540.259583,747.360840 
	C539.592468,746.831543 538.939575,745.866272 538.255859,745.843994 
	C533.950806,745.703735 529.638916,745.772888 525.395386,745.772888 
	C525.395386,783.831116 525.395386,821.527832 525.395386,859.434204 
	C530.699280,859.434204 535.622192,859.434204 541.077515,859.434204 
	C541.077515,857.436462 541.077393,855.658264 541.077576,853.880066 
	C541.079407,833.569214 540.923523,813.256836 541.129272,792.948059 
	C541.320374,774.085083 546.867676,767.240356 564.487244,763.351074 
	C564.487244,757.123291 564.487244,750.853760 564.487244,743.001526 
	C559.318298,745.132751 554.325256,746.241211 550.552124,749.011292 
	C546.689209,751.847168 544.021301,756.310852 540.869812,760.015625 
	C540.691711,756.192993 540.506042,752.207642 540.259583,747.360840 
M826.655823,855.139954 
	C826.691284,833.647888 826.459717,812.151001 826.845703,790.665283 
	C827.161926,773.060547 832.585266,766.956787 849.571899,763.391357 
	C849.571899,757.047058 849.571899,750.695557 849.571899,744.182251 
	C837.857788,744.791321 830.938660,751.341003 825.681274,760.816345 
	C825.681274,756.031433 825.681274,751.246582 825.681274,746.215088 
	C820.390930,746.215088 815.533569,746.215088 810.854858,746.215088 
	C810.854858,784.141357 810.854858,821.684204 810.854858,859.737610 
	C815.581421,859.737610 819.736389,859.982666 823.824890,859.569153 
	C824.875488,859.462952 825.716187,857.281433 826.655823,855.139954 
M435.876160,101.997253 
	C436.311310,107.385956 436.746460,112.774658 437.146790,117.732132 
	C447.301208,117.732132 456.872253,117.732132 466.912262,117.732132 
	C466.912262,109.658867 466.912262,102.127174 466.912262,94.962845 
	C456.366425,94.962845 445.995331,94.962845 435.266937,94.962845 
	C435.495667,97.536598 435.654358,99.322197 435.876160,101.997253 
M374.403442,106.694557 
	C373.841278,107.443794 372.656769,108.369263 372.811432,108.915497 
	C374.739166,115.723328 376.861328,122.476105 378.948792,129.292831 
	C388.821320,126.853119 398.106995,124.558434 407.702545,122.187164 
	C406.281647,114.721626 404.895050,107.436363 403.345459,99.294655 
	C393.673584,101.724861 384.389343,104.057663 374.403442,106.694557 
M514.539001,102.991669 
	C509.964172,101.304924 505.389343,99.618187 500.518799,97.822418 
	C498.655396,105.823395 496.973389,113.045509 495.369293,119.933121 
	C503.187469,123.737411 510.720032,127.402718 518.710815,131.291000 
	C523.061584,125.815140 527.757874,119.904434 533.000305,113.306305 
	C526.709473,109.743294 520.977966,106.497101 514.539001,102.991669 
M266.445953,485.203125 
	C264.014221,485.364502 261.582520,485.525909 258.903320,485.703705 
	C258.903320,493.645355 258.903320,501.093414 258.903320,508.945404 
	C270.391357,508.662689 281.478271,507.644867 292.457367,503.914490 
	C290.196655,496.230957 288.105988,489.125366 286.095032,482.290619 
	C279.479065,483.296448 273.422211,484.217285 266.445953,485.203125 
M206.832413,494.667877 
	C212.590805,497.429565 218.349213,500.191223 224.461456,503.122589 
	C227.231491,495.170197 229.702881,488.075165 231.992416,481.502197 
	C223.740280,476.976562 216.072693,472.771484 208.094635,468.396149 
	C203.746307,474.018494 199.112595,480.009857 194.156418,486.418182 
	C198.486908,489.227356 202.357666,491.738342 206.832413,494.667877 
M721.036316,622.533203 
	C721.036316,626.971497 721.036316,631.409851 721.036316,636.079590 
	C733.499451,635.970520 744.653076,633.484192 755.596985,628.524109 
	C752.442505,621.240234 749.492004,614.427307 746.742737,608.079041 
	C738.014526,610.028748 729.779114,611.868408 721.031555,613.822510 
	C721.031555,615.939880 721.031555,618.745850 721.036316,622.533203 
M1161.669067,720.017273 
	C1163.038208,724.459229 1164.317749,728.932373 1165.843750,733.319824 
	C1166.198242,734.338928 1167.642700,735.907043 1168.149902,735.756226 
	C1169.292114,735.416748 1170.541748,734.339722 1171.063599,733.238586 
	C1172.194458,730.851807 1172.921509,728.270203 1173.767822,725.752869 
	C1174.963013,722.197693 1176.116211,718.628479 1177.287476,715.065369 
	C1178.358765,721.190125 1178.411621,727.003296 1178.337036,732.814758 
	C1178.298218,735.841248 1179.417114,736.680603 1182.040283,735.413696 
	C1182.040283,725.936523 1182.040283,716.684509 1182.040283,707.467102 
	C1176.572021,706.967590 1176.555786,706.961914 1174.992554,711.406860 
	C1172.937744,717.249329 1170.911743,723.101868 1168.594727,729.749451 
	C1166.482178,723.068237 1164.470947,717.426636 1162.947876,711.656189 
	C1161.793945,707.284241 1159.517578,706.109741 1155.148804,707.798462 
	C1155.148804,716.303223 1155.055298,724.770752 1155.271118,733.230469 
	C1155.297119,734.249023 1156.998901,735.224731 1157.923950,736.220337 
	C1158.300293,735.885803 1158.676758,735.551331 1159.053223,735.216797 
	C1159.053223,728.310791 1159.053223,721.404785 1159.053223,714.498779 
	C1159.281250,714.440002 1159.509277,714.381165 1159.737427,714.322388 
	C1160.275269,715.973206 1160.813232,717.624023 1161.669067,720.017273 
M1142.210327,736.041931 
	C1146.657471,735.481079 1149.678223,733.421326 1150.132690,728.594116 
	C1150.593140,723.706543 1147.734375,721.297485 1143.638672,719.785828 
	C1141.767700,719.095215 1139.621704,718.764099 1138.111206,717.604370 
	C1136.901123,716.675232 1135.791260,714.692017 1135.895874,713.269348 
	C1135.977783,712.155701 1138.096069,710.234314 1139.120117,710.349854 
	C1141.156738,710.579773 1143.084351,711.922607 1145.015503,712.888672 
	C1146.280762,713.521545 1147.473022,714.300293 1148.697998,715.013672 
	C1148.978027,714.610168 1149.258057,714.206726 1149.538086,713.803284 
	C1149.044800,712.616943 1148.768188,711.267395 1148.019531,710.273254 
	C1145.208618,706.540527 1141.182129,706.383484 1137.149414,707.286682 
	C1133.507935,708.102173 1131.421265,710.720337 1131.372803,714.488770 
	C1131.318970,718.685425 1134.305420,720.539734 1137.738892,721.873474 
	C1139.748413,722.654175 1141.932983,723.145935 1143.738037,724.256653 
	C1147.089355,726.318787 1146.915405,730.741455 1143.484985,732.274231 
	C1140.177368,733.752197 1137.423096,732.880554 1135.181274,729.905334 
	C1134.336060,728.783508 1132.865479,728.132629 1130.819214,726.638550 
	C1131.783325,734.029663 1134.140381,735.825989 1142.210327,736.041931 
z"/>
<path fill="#E0CC6C" opacity="1.000000" stroke="none" 
	d="
M335.069580,454.199493 
	C335.354004,451.662506 335.638428,449.125549 335.959290,446.263336 
	C329.825928,445.880768 324.411285,445.361298 318.987640,445.237091 
	C298.403748,444.765747 277.817230,444.404633 257.231110,444.035828 
	C234.154037,443.622375 211.076309,443.245209 187.282318,442.637878 
	C183.786926,436.301239 181.008072,430.178986 178.025223,423.607330 
	C170.955338,425.663635 163.783234,427.749695 156.342926,429.913757 
	C157.750504,434.385284 158.931137,438.135834 160.111786,441.886414 
	C142.337418,441.886414 124.563042,441.886414 106.172745,441.886414 
	C108.175484,341.185059 110.149315,241.936935 112.137489,141.967789 
	C114.195045,141.967789 115.955452,141.965073 117.715836,141.968170 
	C164.020126,142.049393 210.324478,142.100693 256.628662,142.227051 
	C276.930389,142.282455 297.231750,142.491379 318.166016,142.580292 
	C320.821075,146.071579 322.843414,149.613205 324.700104,152.864700 
	C332.087524,149.292953 338.799408,146.047806 345.511292,142.802643 
	C391.420593,142.918152 437.330200,142.973221 483.239105,143.175278 
	C505.350494,143.272583 527.460693,143.646912 549.789917,144.298187 
	C544.381287,147.013016 538.754150,149.325439 533.644104,151.425400 
	C535.222290,160.511749 536.706543,169.057587 538.151123,177.375000 
	C545.679565,177.375000 553.088806,177.375000 560.751831,177.375000 
	C560.912109,165.535461 558.472717,154.613632 555.059814,143.851379 
	C611.878296,143.941498 668.697388,143.929535 725.513855,144.316330 
	C730.038574,144.347122 734.782349,146.651733 739.016663,148.730072 
	C754.547974,156.353363 769.900391,164.340729 785.333252,172.165207 
	C796.926331,178.042877 808.650696,175.754364 817.840637,168.614365 
	C828.534607,160.305847 839.676819,160.289200 851.328064,162.270294 
	C870.959778,165.608322 890.450623,169.794296 909.964233,173.801163 
	C923.556641,176.592178 931.846558,185.218567 937.029663,197.888214 
	C939.004150,202.714676 942.996582,206.853058 946.625854,210.792404 
	C947.937683,212.216370 950.923828,212.793091 953.064148,212.636642 
	C961.731384,212.003159 968.270142,215.792084 970.816223,224.303650 
	C972.228149,229.023758 972.699890,234.069885 973.198730,239.009140 
	C974.283875,249.753281 980.208313,258.265442 985.766724,266.934540 
	C989.359741,272.538147 992.989258,278.160614 997.108215,283.375031 
	C1003.699951,291.719849 1006.224670,301.313141 1007.071533,311.611206 
	C1007.670837,318.898468 1008.482727,326.168060 1009.098206,333.454163 
	C1009.808411,341.861298 1014.828125,348.180237 1019.315186,354.738129 
	C1022.509644,359.406952 1025.869873,363.966339 1029.262817,368.494568 
	C1035.791382,377.207428 1038.322876,387.150299 1039.016968,397.851227 
	C1040.222168,416.433441 1041.837524,434.988678 1043.113159,453.566772 
	C1045.013672,481.246643 1054.206665,506.456238 1068.672241,529.902588 
	C1081.781982,551.151062 1094.957153,572.359131 1108.095093,593.590210 
	C1108.782104,594.700317 1109.390747,595.858826 1110.683228,598.134827 
	C1006.537781,598.134827 903.225708,598.134827 799.575928,597.773682 
	C802.166748,594.299133 805.095215,591.185791 808.175659,587.910828 
	C802.099060,582.615845 796.483521,577.722717 790.598267,572.594482 
	C784.019775,579.761780 777.645264,586.706909 770.996277,593.951111 
	C771.446960,594.594788 772.668091,596.338867 773.889221,598.082947 
	C743.871216,598.112244 713.853149,598.141479 683.046997,598.024780 
	C680.979431,596.191711 679.700012,594.504700 678.310486,592.672424 
	C674.841187,594.547241 671.547607,596.327148 667.859375,598.091919 
	C666.944092,598.142883 666.423584,598.208862 665.903015,598.274902 
	C663.739014,598.230103 661.575073,598.146301 659.411072,598.146118 
	C553.959961,598.139709 448.508820,598.140503 343.057709,598.140503 
	C340.918030,598.140503 338.778351,598.140503 335.792786,598.140503 
	C335.792786,595.818726 335.792786,593.903992 335.792786,591.989197 
	C335.792755,557.671753 335.796265,523.354370 335.782928,489.036926 
	C335.782227,487.211456 335.639465,485.386017 335.491608,482.916321 
	C340.194885,478.381195 344.969360,474.490326 349.994171,470.395477 
	C344.609955,464.552582 339.839783,459.376038 335.069580,454.199493 
M1006.278931,385.165833 
	C991.607117,382.132599 976.935303,379.099396 961.379578,375.883453 
	C964.702881,382.367249 967.553528,387.928955 970.682190,394.033051 
	C966.091797,395.265717 962.018005,396.359650 957.547546,397.560120 
	C958.877014,405.114563 960.160950,412.410187 961.560364,420.362061 
	C968.492065,418.686218 975.016113,417.108917 981.776978,415.474365 
	C984.961975,421.426300 988.075439,427.244476 991.652832,433.929657 
	C997.643738,418.082642 1003.343811,403.093475 1008.876648,388.042816 
	C1009.095764,387.446625 1007.722717,386.265137 1006.278931,385.165833 
M337.650696,303.394348 
	C339.134460,296.446381 340.618225,289.498383 342.234253,281.931152 
	C337.018402,281.050293 332.193665,280.235504 326.977600,279.354614 
	C326.977600,272.597900 326.977600,265.906250 326.977600,258.062958 
	C313.596161,269.409210 301.045593,280.050903 288.142029,290.991974 
	C300.854431,301.940247 312.946075,312.353882 326.189789,323.759735 
	C326.189789,315.796082 326.189789,309.544220 326.189789,303.222137 
	C330.174561,303.521301 333.615662,303.779633 337.650696,303.394348 
M813.734192,275.907715 
	C809.848816,275.196289 805.963440,274.484833 801.170837,273.607269 
	C800.120850,284.813354 799.126587,295.424530 798.098328,306.399414 
	C806.657043,306.399414 814.067566,306.399414 821.406860,306.399414 
	C822.335083,296.862671 823.232605,287.641602 824.174561,277.963959 
	C821.011719,277.320984 817.795959,276.667236 813.734192,275.907715 
M893.463867,198.997864 
	C883.827026,194.675140 873.906311,192.188431 862.842224,193.793610 
	C863.859863,201.736984 864.802917,209.098694 865.719482,216.253052 
	C869.807617,216.810638 873.478821,216.994751 876.973816,217.877182 
	C880.459473,218.757263 883.768372,220.337326 887.489868,221.736481 
	C891.660950,215.588684 895.899170,209.341858 900.293274,202.865311 
	C897.861816,201.456192 896.003418,200.379135 893.463867,198.997864 
M384.612579,367.881195 
	C383.455963,372.002594 382.299347,376.123993 381.040771,380.608734 
	C388.291443,383.214447 395.372192,385.759064 403.608368,388.718933 
	C406.038239,377.087646 408.307007,366.227356 410.745026,354.556946 
	C401.672302,354.556946 394.150909,354.556946 386.648010,354.556946 
	C386.020111,358.872498 385.424591,362.965363 384.612579,367.881195 
M632.072693,369.507874 
	C631.735535,373.623169 631.398376,377.738464 631.021484,382.339172 
	C638.927307,382.930267 646.437317,383.491791 654.195190,384.071808 
	C655.215271,373.666504 656.167358,363.954834 657.162292,353.806488 
	C649.238770,352.849121 641.765930,351.946198 634.169739,351.028381 
	C633.435364,357.364014 632.784485,362.979218 632.072693,369.507874 
M650.867554,324.567505 
	C654.737427,325.188232 658.607300,325.808990 662.558167,326.442719 
	C664.657166,316.454956 666.653992,306.953400 668.731812,297.066376 
	C661.162781,295.201630 653.863831,293.403442 646.071350,291.483643 
	C643.834412,302.193848 641.751892,312.164551 639.598389,322.475311 
	C643.565002,323.182159 646.801819,323.758972 650.867554,324.567505 
M806.146851,338.735291 
	C804.780701,339.092438 803.414551,339.449615 801.776062,339.877960 
	C804.448486,351.695404 808.113647,362.516205 815.096008,372.248962 
	C821.642456,367.739105 827.760376,363.524475 833.395020,359.642761 
	C830.085999,351.164154 826.980713,343.207428 823.760010,334.955139 
	C818.281494,336.109192 812.615112,337.302795 806.146851,338.735291 
M927.531677,399.085571 
	C920.633850,398.389648 913.736084,397.693695 906.437622,396.957336 
	C905.177368,404.668274 903.969727,412.057281 902.670776,420.005157 
	C913.901855,421.140076 924.201050,422.180847 934.725891,423.244446 
	C935.171143,414.835785 935.562073,407.453766 935.966492,399.817535 
	C933.061157,399.553040 930.758911,399.343445 927.531677,399.085571 
M645.412842,446.887146 
	C647.831299,446.887146 650.249756,446.887146 652.899902,446.887146 
	C652.899902,436.061371 652.899902,426.008606 652.899902,415.434998 
	C645.248718,415.434998 637.894592,415.434998 630.144531,415.434998 
	C630.144531,425.957031 630.144531,436.293579 630.144531,446.891663 
	C635.181274,446.891663 639.810181,446.891663 645.412842,446.887146 
M422.670166,456.798279 
	C427.423553,458.153839 432.176941,459.509430 436.916321,460.860992 
	C440.436066,451.603943 443.826660,442.686554 447.304016,433.540894 
	C440.174286,430.289703 433.434326,427.216248 426.100037,423.871796 
	C422.166199,434.210266 418.412811,444.074493 414.554840,454.213623 
	C417.513672,455.150085 419.712311,455.845947 422.670166,456.798279 
M671.223694,369.714417 
	C667.855347,374.766998 664.487061,379.819580 660.975464,385.087097 
	C667.516724,389.619232 673.701660,393.904449 680.127136,398.356323 
	C686.090637,389.405945 691.677612,381.020660 697.561584,372.189606 
	C690.835022,367.921417 684.466309,363.880310 677.833191,359.671417 
	C675.611755,363.069000 673.630798,366.098755 671.223694,369.714417 
M903.032471,314.429749 
	C902.391357,318.306427 901.750244,322.183105 901.060242,326.355255 
	C908.737244,327.849976 916.020508,329.268005 924.050537,330.831421 
	C925.645508,320.148132 927.194031,309.775787 928.788208,299.097992 
	C920.397888,298.325531 912.908203,297.635986 905.517822,296.955566 
	C904.638062,303.052856 903.880005,308.306061 903.032471,314.429749 
M695.740173,325.190796 
	C694.489746,327.463531 693.239380,329.736267 691.899597,332.171448 
	C698.850952,336.109100 705.306824,339.766113 712.278625,343.715363 
	C717.321472,334.148865 722.099548,325.084747 727.089966,315.617706 
	C719.828796,312.132721 713.027222,308.868347 706.057373,305.523193 
	C702.540955,312.215210 699.304382,318.374603 695.740173,325.190796 
M666.347290,563.041626 
	C664.318542,554.746582 662.289734,546.451477 660.197021,537.894714 
	C652.602661,539.331543 645.344910,540.704651 637.307190,542.225403 
	C639.894836,552.913269 642.356506,563.080811 644.897034,573.573975 
	C652.170288,571.322937 658.526978,569.480408 664.761475,567.290161 
	C665.685974,566.965393 666.034119,565.000244 666.347290,563.041626 
M858.154785,472.407654 
	C856.236023,471.641907 854.317200,470.876160 852.361023,470.095520 
	C847.964844,479.318329 843.776062,488.106079 839.371155,497.347168 
	C846.402344,500.889801 853.089050,504.258881 860.153809,507.818420 
	C864.812195,498.080200 869.153198,489.005432 873.692017,479.517120 
	C868.416565,477.122894 863.616699,474.944489 858.154785,472.407654 
M631.809082,496.871735 
	C632.236450,501.437927 632.663818,506.004150 633.105713,510.726044 
	C641.166565,509.804291 648.517029,508.963745 656.111877,508.095245 
	C655.258240,497.716431 654.460144,488.012512 653.630554,477.926178 
	C645.812988,478.377808 638.407654,478.805634 630.558960,479.259094 
	C630.955139,485.068634 631.326355,490.511841 631.809082,496.871735 
M841.526611,234.087692 
	C843.079407,231.997040 844.632202,229.906372 846.311890,227.644897 
	C840.566528,222.377167 835.100830,217.365860 828.524902,211.336594 
	C822.262695,221.609344 816.389954,231.243256 810.213989,241.374466 
	C818.436768,244.765625 825.395325,247.635437 832.165283,250.427460 
	C835.388611,244.752228 838.248535,239.716736 841.526611,234.087692 
M367.142273,306.650665 
	C365.899200,308.950684 364.656128,311.250702 363.648743,313.114655 
	C369.917877,318.889282 375.826263,324.331665 382.038818,330.054230 
	C388.004852,326.520203 394.396637,322.734009 401.001099,318.821808 
	C394.500397,307.784637 385.543091,299.959717 374.462677,293.737274 
	C372.069183,297.978271 369.800873,301.997528 367.142273,306.650665 
M737.792114,285.260345 
	C738.695068,284.422394 740.069031,283.745605 740.420349,282.718933 
	C742.027100,278.023285 743.557007,273.279724 744.711609,268.456940 
	C745.880310,263.574646 746.575806,258.579071 747.537964,253.307938 
	C739.211304,252.414200 731.882935,251.627625 724.860046,250.873825 
	C722.479858,260.316681 720.269714,269.084900 717.956360,278.262695 
	C724.361145,280.535980 730.722168,282.793701 737.792114,285.260345 
M503.261505,324.303772 
	C498.769348,321.834473 494.277161,319.365143 489.528931,316.755066 
	C484.408295,325.543610 479.431610,334.085083 474.203522,343.058075 
	C480.990631,347.179932 487.412323,351.079865 494.133331,355.161560 
	C499.485840,345.950928 504.542542,337.249268 509.843353,328.127594 
	C507.555969,326.815063 505.719910,325.761505 503.261505,324.303772 
M454.869629,373.367432 
	C450.329163,380.649139 445.788727,387.930847 441.039856,395.546753 
	C448.147858,399.638092 454.589508,403.345886 461.237213,407.172272 
	C466.634033,398.484131 471.852539,390.083008 477.205139,381.466003 
	C470.662476,377.199432 464.432617,373.136810 457.994263,368.938263 
	C456.937073,370.390808 456.078674,371.570221 454.869629,373.367432 
M167.716385,365.909027 
	C163.004089,365.195435 158.291809,364.481812 152.646301,363.626892 
	C151.954254,374.939331 151.303131,385.582764 150.667191,395.977997 
	C159.172546,395.977997 166.569870,395.977997 173.930435,395.977997 
	C174.574829,385.954987 175.177658,376.578247 175.786011,367.115936 
	C173.182419,366.710083 170.885651,366.352081 167.716385,365.909027 
M530.092163,235.473923 
	C536.333862,237.514389 542.575562,239.554840 549.524292,241.826431 
	C552.366211,231.026703 555.022400,220.932709 557.757751,210.537964 
	C549.321289,208.902313 542.093079,207.500916 535.023010,206.130173 
	C532.553467,214.985611 530.164246,223.249710 528.034302,231.580109 
	C527.772705,232.603180 528.897522,233.980713 530.092163,235.473923 
M926.167908,266.748535 
	C927.148926,265.947632 929.007141,265.114380 928.978943,264.350708 
	C928.581726,253.581421 926.662231,243.101517 922.603027,232.809235 
	C915.096985,235.680817 908.055359,238.374725 901.673096,240.816376 
	C903.451111,250.295853 905.084412,259.003723 906.732056,267.788116 
	C913.002625,267.454437 919.121155,267.128845 926.167908,266.748535 
M815.081848,539.548584 
	C813.020996,542.712585 810.960144,545.876648 808.782227,549.220459 
	C815.245789,553.699097 821.353027,557.930847 828.007690,562.541870 
	C833.744934,553.480774 839.284119,544.732483 845.031921,535.654724 
	C837.909729,531.488647 831.506775,527.743286 824.886475,523.870789 
	C821.612122,529.126160 818.551331,534.038696 815.081848,539.548584 
M875.849792,397.370544 
	C876.672180,394.752991 877.494568,392.135468 878.207153,389.867279 
	C869.542664,385.562286 861.447754,381.540283 853.207886,377.446259 
	C849.036926,383.686005 844.905884,389.866058 840.185913,396.927002 
	C850.553833,402.042847 860.380554,406.891663 870.500122,411.885010 
	C872.481445,406.491730 874.022095,402.297913 875.849792,397.370544 
M897.195190,356.377197 
	C895.926392,356.925720 893.795410,357.201263 893.521973,358.064941 
	C890.772156,366.749084 888.327209,375.529724 885.672119,384.713257 
	C893.114929,387.117950 900.279480,389.432739 907.820618,391.869202 
	C910.864502,381.480316 913.729858,371.700745 916.675354,361.647552 
	C909.808167,359.819946 903.880249,358.242310 897.195190,356.377197 
M891.780090,436.308655 
	C893.578979,431.503967 895.377930,426.699280 897.338562,421.462677 
	C889.921326,418.748932 882.846130,416.160339 875.550293,413.490967 
	C871.774902,423.206482 868.244385,432.291962 864.517700,441.882294 
	C871.824829,444.854462 878.786377,447.686066 886.025269,450.630463 
	C888.012817,445.625641 889.724976,441.314331 891.780090,436.308655 
M160.885437,330.438263 
	C161.110779,331.006073 161.210571,331.965179 161.580048,332.083710 
	C168.463913,334.292084 175.379852,336.400452 182.378006,338.557251 
	C185.855743,328.874695 189.081650,319.893250 192.408371,310.631104 
	C185.202026,307.588684 178.390839,304.713074 170.874634,301.539856 
	C167.479507,311.222748 164.251846,320.428070 160.885437,330.438263 
M601.576965,457.074585 
	C595.260864,464.070892 588.944763,471.067200 583.834534,476.727783 
	C589.108948,482.843262 593.983704,488.495392 599.135803,494.469177 
	C606.497803,486.366852 613.384155,478.787903 620.460938,470.999420 
	C614.875793,466.103577 609.784790,461.586884 604.604858,457.174622 
	C604.016052,456.673035 602.927917,456.757690 601.576965,457.074585 
M510.366333,275.807526 
	C508.221436,280.419006 506.076538,285.030487 503.813568,289.895905 
	C510.863922,293.407837 517.527283,296.726959 524.686157,300.292969 
	C529.157593,290.607910 533.498718,281.204926 537.946106,271.571930 
	C530.404785,268.385315 523.576416,265.499908 516.456604,262.491394 
	C514.412231,267.017456 512.575623,271.083466 510.366333,275.807526 
M210.887772,251.644165 
	C207.837631,249.668350 204.787491,247.692551 201.153244,245.338364 
	C195.674881,254.591858 190.401276,263.499512 184.910355,272.774231 
	C192.204849,276.679993 198.732468,280.175140 205.444550,283.769043 
	C210.656128,274.947601 215.594467,266.588684 220.678070,257.983856 
	C217.334320,255.813553 214.418686,253.921127 210.887772,251.644165 
M231.758774,228.745010 
	C233.865219,230.273651 235.971664,231.802292 238.122452,233.363098 
	C244.615906,225.422119 250.775650,217.889252 257.078888,210.180908 
	C251.179596,204.990646 245.581238,200.065140 239.587967,194.792191 
	C232.785736,203.122849 226.230362,211.151184 219.512207,219.378891 
	C223.803955,222.654938 227.500610,225.476730 231.758774,228.745010 
M369.002441,443.544678 
	C370.545380,444.945923 371.867523,445.598267 373.350159,443.265015 
	C378.581116,435.033020 383.943970,426.884888 389.524750,418.292450 
	C382.139557,414.283600 375.493958,410.676208 368.918427,407.106842 
	C363.595734,415.505432 358.538269,423.485535 353.242004,431.842438 
	C358.309631,435.602356 363.368652,439.355896 369.002441,443.544678 
M561.760010,530.269287 
	C566.753845,525.757446 571.747681,521.245605 576.932678,516.561157 
	C571.288513,510.598907 566.182800,505.205505 560.962402,499.690948 
	C553.325012,506.491089 546.037659,512.979492 538.442383,519.742065 
	C543.395203,525.755188 548.200012,531.588684 553.137573,537.583313 
	C556.161865,535.020752 558.692261,532.876709 561.760010,530.269287 
M499.611481,546.155212 
	C496.383362,547.729858 493.155273,549.304565 489.624054,551.027100 
	C492.399261,558.254272 495.046234,565.147339 498.106262,573.116211 
	C508.195465,567.704956 517.735596,562.588257 527.684082,557.252441 
	C522.978516,550.184509 518.807983,543.920227 514.600769,537.600952 
	C509.473877,540.561401 504.883911,543.211792 499.611481,546.155212 
M661.878418,245.373749 
	C659.786560,250.356400 657.694702,255.339050 655.447144,260.692413 
	C663.054993,263.445862 670.013672,265.964325 677.015503,268.498444 
	C681.094299,259.739044 684.982361,251.389191 689.064331,242.622940 
	C682.716064,238.691208 676.311035,234.724289 669.515686,230.515625 
	C666.874451,235.584747 664.507324,240.127823 661.878418,245.373749 
M276.353119,158.861954 
	C271.523560,163.087036 266.694000,167.312119 261.320435,172.013123 
	C267.450439,177.415009 273.033081,182.334564 278.820465,187.434525 
	C285.314728,181.931519 292.641998,175.722687 300.192322,169.324814 
	C295.566467,163.211960 291.007111,157.186951 286.274963,150.933655 
	C282.865204,153.653183 279.883423,156.031387 276.353119,158.861954 
M722.722290,204.639938 
	C714.316223,201.955002 705.991821,201.432709 697.410278,205.161301 
	C699.925598,211.701263 702.154663,217.773529 704.655273,223.731842 
	C705.083679,224.752792 706.574646,225.700058 707.740723,225.973373 
	C712.264343,227.033600 716.854919,227.807922 722.483459,228.893753 
	C726.985046,225.004227 732.601562,220.151413 739.458923,214.226395 
	C733.560791,210.787323 728.514404,207.844910 722.722290,204.639938 
M460.861023,548.685303 
	C456.691010,544.971619 452.520966,541.257996 448.134460,537.351501 
	C442.453522,542.471436 436.952454,547.429321 431.012360,552.782837 
	C439.978607,561.322815 447.911377,570.247559 459.613098,575.249695 
	C462.300507,567.802429 464.859619,560.710632 467.353149,553.800659 
	C465.055573,551.992798 463.239929,550.564148 460.861023,548.685303 
M432.742371,503.628082 
	C432.356537,498.723755 431.970703,493.819458 431.554443,488.528290 
	C423.949127,488.181641 416.574127,487.845459 408.975739,487.499115 
	C408.397430,499.579437 409.121857,510.890778 413.265991,522.107483 
	C420.747314,519.616150 427.910553,517.230774 434.885010,514.908264 
	C434.123627,511.006866 433.488403,507.751801 432.742371,503.628082 
z"/>
<path fill="#273353" opacity="1.000000" stroke="none" 
	d="
M124.753929,751.144531 
	C127.569763,777.205078 130.327820,802.820862 133.162659,829.149841 
	C138.978485,789.074036 144.686630,749.740173 150.413239,710.279053 
	C156.067505,710.279053 161.172150,710.279053 166.892044,710.279053 
	C172.561829,748.958008 178.225067,787.592163 184.080383,827.536743 
	C188.959351,787.790466 193.704010,749.138184 198.469742,710.314392 
	C204.112335,710.314392 209.197052,710.314392 214.801346,710.314392 
	C207.267899,760.116516 199.767380,809.701050 192.244400,859.433960 
	C186.328430,859.433960 180.883972,859.433960 174.920486,859.433960 
	C169.437775,821.532898 163.953674,783.622131 158.469559,745.711365 
	C158.205505,745.693481 157.941437,745.675537 157.677368,745.657593 
	C152.077576,783.506958 146.477768,821.356323 140.812836,859.645935 
	C135.595627,859.645935 130.615128,859.819946 125.667534,859.494019 
	C124.716896,859.431396 123.281868,857.494080 123.105003,856.271912 
	C119.362640,830.411194 115.762901,804.529846 112.147484,778.650818 
	C109.176872,757.387329 106.215317,736.122620 103.275414,714.854919 
	C103.077698,713.424561 103.096527,711.964355 103.001495,710.285889 
	C108.587959,710.285889 113.864670,710.285889 119.690109,710.285889 
	C121.357620,723.747742 123.026886,737.223694 124.753929,751.144531 
z"/>
<path fill="#C6A959" opacity="1.000000" stroke="none" 
	d="
M591.008179,843.996826 
	C591.008179,849.316467 591.008179,854.136963 591.008179,859.352051 
	C586.008972,859.352051 581.297424,859.352051 576.239990,859.352051 
	C576.239990,809.717041 576.239990,760.189636 576.239990,710.072693 
	C581.843079,710.072693 587.301453,709.866089 592.719666,710.239990 
	C593.857239,710.318420 595.428650,712.370728 595.820801,713.784912 
	C605.894470,750.115540 615.837891,786.482239 625.742554,822.618469 
	C625.742554,785.464844 625.742554,747.979309 625.742554,710.278748 
	C630.738159,710.278748 635.351440,710.278748 640.686829,710.278748 
	C640.686829,712.202576 640.686829,713.973633 640.686829,715.744751 
	C640.686829,761.719116 640.621338,807.693787 640.786255,853.667542 
	C640.803101,858.361511 639.690796,859.992126 634.756348,859.868591 
	C622.095825,859.551575 622.172241,859.762146 618.949890,847.770996 
	C609.471619,812.500122 599.921814,777.248413 591.008179,744.241394 
	C591.008179,775.821472 591.008179,809.659668 591.008179,843.996826 
z"/>
<path fill="#273353" opacity="1.000000" stroke="none" 
	d="
M373.169006,789.000854 
	C373.832153,779.889343 373.298676,770.972900 375.398254,762.726868 
	C380.337494,743.328430 401.234711,737.549011 416.813873,751.318237 
	C416.813873,735.130005 416.813873,719.468628 416.813873,703.581299 
	C422.359192,703.581299 427.288116,703.581299 432.600037,703.581299 
	C432.600037,755.495483 432.600037,807.243225 432.600037,859.324219 
	C428.024994,859.324219 423.263824,859.324219 417.926880,859.324219 
	C417.611633,856.556946 417.278442,853.632324 416.883209,850.162842 
	C416.187408,850.958557 415.645233,851.423462 415.293854,852.003784 
	C410.135010,860.524780 402.096619,861.997437 393.130829,860.943970 
	C385.110260,860.001587 379.292236,855.633484 377.012390,847.990417 
	C375.085632,841.531189 373.753937,834.710144 373.449707,827.990784 
	C372.869812,815.182800 373.210510,802.333069 373.169006,789.000854 
M416.788971,775.904724 
	C416.267517,773.138123 415.999695,770.293091 415.173767,767.620544 
	C413.226532,761.319885 409.128235,758.503723 402.526642,758.538269 
	C396.742584,758.568542 392.647125,761.483826 391.005066,767.644958 
	C389.948242,771.610291 389.425629,775.821960 389.372803,779.932312 
	C389.184540,794.572205 389.146271,809.218567 389.386108,823.856995 
	C389.467010,828.796753 390.001221,833.868591 391.297699,838.615295 
	C393.113190,845.262268 398.657715,847.966248 405.343475,846.341125 
	C413.030487,844.472412 415.601105,838.267883 415.868927,831.675110 
	C416.610931,813.409607 416.577637,795.112610 416.788971,775.904724 
z"/>
<path fill="#C6AA5B" opacity="1.000000" stroke="none" 
	d="
M747.943481,855.941284 
	C746.844788,857.489746 745.867615,859.451233 744.670349,859.596436 
	C741.091858,860.030090 737.427124,859.752197 733.452759,859.752197 
	C733.452759,807.493164 733.452759,755.673157 733.452759,703.545410 
	C738.662964,703.545410 743.562012,703.545410 748.868896,703.545410 
	C748.868896,720.489563 748.868896,737.230957 748.868896,753.972290 
	C749.368835,754.339111 749.868774,754.705933 750.368713,755.072754 
	C750.709045,754.196777 750.880066,753.197021 751.415833,752.463989 
	C757.122864,744.656860 765.220703,742.924744 774.084595,744.336731 
	C782.222717,745.633118 787.471558,750.971863 789.850586,758.642395 
	C791.361206,763.513000 792.571167,768.711060 792.592896,773.768005 
	C792.678894,793.728638 792.440430,813.697388 791.852356,833.649292 
	C791.714111,838.339478 790.304077,843.206604 788.504578,847.592407 
	C783.433411,859.952087 767.811584,865.184326 756.265259,858.439514 
	C753.251282,856.678833 750.987183,853.634521 747.964355,850.789856 
	C747.964355,852.411865 747.964355,853.967896 747.943481,855.941284 
M776.886414,801.500000 
	C776.886230,795.015869 777.129517,788.519775 776.809570,782.051453 
	C776.549011,776.782898 776.119507,771.420776 774.841675,766.332031 
	C773.461853,760.837341 769.675293,758.667236 764.005066,758.733459 
	C756.019348,758.826782 750.530518,763.969482 750.095825,773.814148 
	C749.312378,791.560242 749.215759,809.346130 749.292786,827.113464 
	C749.310913,831.291443 750.780029,835.605286 752.277344,839.595642 
	C753.844910,843.773315 757.281555,845.991577 761.937134,846.272095 
	C769.907166,846.752197 775.076965,842.392456 775.888306,832.853760 
	C776.745178,822.780457 776.595947,812.621521 776.886414,801.500000 
z"/>
<path fill="#C7AA5C" opacity="1.000000" stroke="none" 
	d="
M999.263611,841.997620 
	C999.263672,797.333252 999.330750,753.168152 999.163208,709.003906 
	C999.145752,704.402222 1000.386963,702.993958 1005.023376,703.126587 
	C1015.548828,703.427612 1015.555420,703.194092 1015.555420,713.693726 
	C1015.555420,739.192688 1015.555420,764.691650 1015.555420,790.190613 
	C1015.555420,791.939453 1015.555481,793.688232 1015.555481,795.437073 
	C1015.822021,795.475708 1016.088562,795.514343 1016.355164,795.552917 
	C1023.387695,780.752991 1030.595581,766.032227 1037.339600,751.101868 
	C1039.219604,746.940002 1041.464355,745.203125 1045.980225,745.751404 
	C1049.194336,746.141602 1052.494141,745.827148 1056.717407,745.827148 
	C1054.848511,749.497803 1053.462402,752.271545 1052.031372,755.021973 
	C1047.420288,763.884033 1043.015747,772.864563 1038.074951,781.539307 
	C1035.693481,785.720337 1035.698364,789.382935 1037.214233,793.783203 
	C1044.149292,813.915222 1050.821289,834.138000 1057.572388,854.333313 
	C1058.086548,855.871460 1058.480103,857.449829 1059.139526,859.737366 
	C1053.695679,859.737366 1048.753540,859.973022 1043.865234,859.564026 
	C1042.709473,859.467346 1041.220093,857.367981 1040.756836,855.912170 
	C1036.065430,841.171631 1031.557983,826.372559 1026.992065,811.592102 
	C1026.257202,809.212952 1025.489014,806.844116 1024.370239,803.316589 
	C1020.592163,811.181824 1015.379150,817.283752 1015.518433,825.804871 
	C1015.679138,835.635193 1015.431335,845.472473 1015.620667,855.301758 
	C1015.688477,858.819336 1014.497437,859.836426 1011.021729,859.844482 
	C999.263062,859.871887 999.263367,860.001465 999.263367,848.497131 
	C999.263367,846.497131 999.263367,844.497131 999.263611,841.997620 
z"/>
<path fill="#283454" opacity="1.000000" stroke="none" 
	d="
M296.779907,808.999390 
	C296.779968,787.841736 296.779968,767.184082 296.779968,746.144165 
	C301.589813,746.144165 306.484741,746.144165 311.641602,746.144165 
	C311.936005,748.777954 312.240356,751.500732 312.486847,753.705872 
	C316.687134,750.793823 320.422546,746.907410 324.965668,745.291138 
	C340.205017,739.869446 353.291412,748.569641 355.036041,764.686035 
	C355.447540,768.487488 355.635925,772.330811 355.643555,776.155396 
	C355.695129,801.982483 355.670471,827.809692 355.670502,853.636902 
	C355.670502,855.432617 355.670502,857.228333 355.670502,859.341797 
	C350.291290,859.341797 345.366028,859.341797 339.755096,859.341797 
	C339.755096,857.646606 339.755066,855.879639 339.755066,854.112610 
	C339.754974,828.785278 339.772217,803.458008 339.730591,778.130737 
	C339.725952,775.309204 339.559357,772.464111 339.169525,769.671631 
	C338.157562,762.422913 335.142700,759.214600 329.117767,758.660889 
	C321.722107,757.981201 316.624878,760.637573 314.987671,767.569580 
	C313.475891,773.970276 312.874176,780.707275 312.806213,787.305786 
	C312.560822,811.123230 312.709717,834.944641 312.709717,859.213867 
	C307.456879,859.213867 302.407806,859.213867 296.779846,859.213867 
	C296.779846,842.738281 296.779846,826.118835 296.779907,808.999390 
z"/>
<path fill="#263253" opacity="1.000000" stroke="none" 
	d="
M259.472595,791.013184 
	C259.405487,782.859497 259.528595,775.181274 258.998688,767.548279 
	C258.525757,760.736267 254.917389,757.443359 248.991577,757.373840 
	C243.147324,757.305237 239.244110,760.664429 238.174957,767.016663 
	C237.710754,769.774719 237.742233,772.616211 237.526184,775.744263 
	C232.500397,775.744263 227.586197,775.744263 222.631851,775.744263 
	C218.152695,755.896545 234.660141,740.344116 256.029846,744.466125 
	C267.531342,746.684631 274.218170,754.262024 274.988708,766.849121 
	C275.527649,775.653198 275.389069,784.501587 275.456512,793.330933 
	C275.616882,814.327393 275.722046,835.324341 275.839447,856.321106 
	C275.844757,857.274414 275.751038,858.228333 275.692047,859.409424 
	C270.803009,859.409424 266.190643,859.409424 261.344360,859.409424 
	C260.845551,857.032166 260.346924,854.655823 259.710938,851.624756 
	C256.027405,857.311768 251.302872,860.546570 244.916199,861.107910 
	C232.581406,862.191956 224.543701,856.860474 220.719238,845.024292 
	C217.775085,835.912598 217.606232,826.559326 219.435532,817.365356 
	C222.279922,803.069885 231.433197,795.027039 246.082626,792.965027 
	C250.495544,792.343872 254.945633,791.986450 259.472595,791.013184 
M257.066803,840.280884 
	C261.732605,828.798462 259.420563,816.881531 260.035126,805.134583 
	C256.437958,805.134583 253.599960,804.926392 250.802277,805.173828 
	C242.575302,805.901489 236.555878,809.851929 235.350098,816.881775 
	C234.250732,823.291199 234.405869,830.023499 234.852905,836.555664 
	C235.201401,841.648193 238.123520,845.739502 243.578568,846.744202 
	C249.099228,847.761047 253.753540,846.085083 257.066803,840.280884 
z"/>
<path fill="#273353" opacity="1.000000" stroke="none" 
	d="
M483.001678,805.942444 
	C477.203674,805.942444 471.905304,805.942444 465.645691,805.942444 
	C466.161407,816.105225 466.305298,825.884644 467.294617,835.577820 
	C467.808105,840.608704 470.247833,845.223877 475.716705,846.998291 
	C483.565521,849.544922 490.267975,845.320923 491.819061,836.791870 
	C492.379181,833.711792 492.486115,830.549255 492.816040,827.262573 
	C497.836761,827.262573 502.609436,827.262573 507.364777,827.262573 
	C509.669586,839.851196 503.422424,853.988037 493.663055,858.414490 
	C480.675659,864.305054 463.845856,861.703064 457.300690,851.568665 
	C453.935730,846.358337 451.539154,839.610840 451.303925,833.458557 
	C450.534363,813.333618 450.167389,793.125061 451.132172,773.020081 
	C452.224609,750.255920 470.558075,738.484985 491.343781,745.966980 
	C500.457123,749.247375 505.557373,756.462891 506.655701,765.346191 
	C508.299713,778.642761 508.354614,792.135803 509.107025,805.942444 
	C499.783966,805.942444 491.642639,805.942444 483.001678,805.942444 
M466.285645,781.614136 
	C466.285645,785.230774 466.285645,788.847473 466.285645,792.949524 
	C471.041412,792.949524 475.315948,792.949524 479.590454,792.949524 
	C484.000580,792.949524 488.410736,792.949524 493.531433,792.949524 
	C492.944458,783.969788 492.886902,775.647644 491.711853,767.486511 
	C490.785889,761.055359 486.360596,757.930542 480.314117,757.732727 
	C473.791870,757.519348 469.569916,760.293213 467.946228,766.881897 
	C466.847076,771.342163 466.802917,776.062439 466.285645,781.614136 
z"/>
<path fill="#C6A95A" opacity="1.000000" stroke="none" 
	d="
M1102.484619,744.192383 
	C1116.626709,747.564148 1122.812622,754.760681 1122.975098,768.844543 
	C1123.259521,793.486023 1123.133301,818.132263 1123.174927,842.776550 
	C1123.184082,848.222229 1123.176270,853.667847 1123.176270,859.435669 
	C1118.748413,859.435669 1114.166260,859.435669 1109.156006,859.435669 
	C1108.677979,857.045288 1108.196899,854.640076 1107.608887,851.699951 
	C1103.706421,857.685181 1098.455322,860.987793 1091.366333,861.178955 
	C1079.431641,861.500732 1072.259521,856.614685 1068.586914,845.147827 
	C1065.137573,834.377808 1065.232056,823.484558 1068.474854,812.726990 
	C1072.189575,800.404358 1082.975098,793.365845 1099.138550,792.262451 
	C1101.600220,792.094299 1104.069214,792.034485 1106.646851,791.919617 
	C1106.646851,783.077820 1107.184937,774.457703 1106.464844,765.944092 
	C1105.951416,759.872742 1102.320801,757.555664 1096.587280,757.600830 
	C1090.861450,757.645935 1087.240479,760.541809 1086.174927,766.359375 
	C1085.641235,769.273193 1085.674316,772.290833 1085.421265,775.657654 
	C1080.421631,775.657654 1075.544067,775.657654 1070.647217,775.657654 
	C1067.881104,761.313416 1075.117432,745.460510 1093.062256,744.170410 
	C1096.041382,743.956177 1099.050049,744.153259 1102.484619,744.192383 
M1081.904419,824.693848 
	C1082.236938,829.141907 1082.064941,833.702271 1083.024658,838.010620 
	C1084.340210,843.917053 1088.225708,846.817566 1093.453369,846.984375 
	C1099.221680,847.168579 1103.386230,844.680786 1105.367920,839.053955 
	C1109.261353,827.999512 1107.746704,816.579346 1107.772949,805.294312 
	C1090.306763,803.946960 1082.826294,809.452148 1081.904419,824.693848 
z"/>
<path fill="#C6A959" opacity="1.000000" stroke="none" 
	d="
M913.041260,793.000000 
	C913.041260,815.286621 913.041260,837.073242 913.041260,859.695496 
	C908.976685,859.695496 904.552856,860.401733 900.585632,859.363342 
	C898.893677,858.920471 898.155457,854.833679 896.949158,852.330933 
	C892.997192,858.219543 887.114868,861.371582 879.298157,861.242493 
	C869.952637,861.088135 863.278625,857.052490 859.730896,848.495667 
	C854.469421,835.805481 854.215637,822.705261 859.344421,810.079041 
	C864.567566,797.220276 876.053955,793.342224 888.810730,792.291992 
	C891.280273,792.088684 893.780945,792.262695 897.474670,792.262695 
	C896.995544,782.784302 896.828491,773.728943 895.959290,764.741516 
	C895.532532,760.329041 892.364258,757.868469 887.661804,757.633484 
	C882.709167,757.385925 878.528503,758.618347 876.927429,763.726868 
	C875.749329,767.485962 875.338013,771.485474 874.514282,775.743408 
	C869.888367,775.743408 864.982300,775.743408 859.650452,775.743408 
	C859.711487,765.484192 860.190552,755.293945 869.523071,748.952332 
	C879.328430,742.289307 890.262634,742.076294 900.907288,747.002441 
	C910.083557,751.249146 912.361084,759.936096 912.863708,769.031494 
	C913.294739,776.833740 913.009583,784.675659 913.041260,793.000000 
M883.056152,806.186584 
	C877.094482,808.132812 873.295227,812.377441 872.549194,818.373901 
	C871.799133,824.403076 871.677002,830.652405 872.369263,836.680176 
	C873.103149,843.069885 877.420654,846.638062 882.834656,846.973267 
	C889.183350,847.366333 894.511230,844.260742 895.589905,837.515381 
	C897.276672,826.966736 897.652405,816.208435 898.672913,804.514404 
	C892.668396,805.119751 888.259888,805.564148 883.056152,806.186584 
z"/>
<path fill="#C6AA5A" opacity="1.000000" stroke="none" 
	d="
M679.765869,860.638184 
	C666.226624,856.445740 659.807739,848.822998 659.280945,833.552124 
	C658.580566,813.249817 658.310425,792.871216 659.252258,772.590210 
	C660.282898,750.397034 678.854248,738.641235 699.416870,745.945129 
	C707.123840,748.682739 711.664062,754.399292 713.975220,761.918762 
	C718.369263,776.215576 716.289001,790.888977 716.815308,805.902222 
	C702.382202,805.902222 688.617126,805.902222 673.385864,805.902222 
	C674.296204,816.959045 674.554749,827.562988 676.238281,837.935730 
	C677.368896,844.901611 682.764160,848.128357 688.842041,847.593445 
	C695.368713,847.019104 699.026062,843.148865 700.066589,835.671997 
	C700.432556,833.041504 700.735840,830.402344 701.111572,827.419861 
	C705.888306,827.419861 710.616943,827.419861 715.343689,827.419861 
	C717.937988,842.965149 709.572876,861.180359 690.160950,861.059082 
	C686.833374,861.038330 683.506714,860.861267 679.765869,860.638184 
M685.520874,792.951965 
	C690.609314,792.951965 695.697754,792.951965 701.546143,792.951965 
	C701.007812,784.057922 701.018738,775.895630 699.876343,767.898132 
	C698.890869,760.999023 694.615723,757.912964 688.288818,757.807617 
	C681.474365,757.694092 677.189148,760.412964 676.016724,767.628296 
	C674.701172,775.724243 674.789124,784.048279 674.223206,792.951904 
	C678.315308,792.951904 681.424622,792.951904 685.520874,792.951965 
z"/>
<path fill="#C6A95A" opacity="1.000000" stroke="none" 
	d="
M967.006348,796.980957 
	C983.706970,808.181885 986.883667,823.890381 982.974670,841.940247 
	C980.541260,853.176514 971.835144,860.330566 960.336060,861.005188 
	C951.376221,861.530823 942.594604,861.246094 935.644470,854.364136 
	C927.765686,846.562561 927.453857,836.703003 927.979431,826.230835 
	C933.158691,826.230835 938.079407,826.230835 943.591675,826.230835 
	C943.735107,829.054626 943.750977,831.983643 944.055359,834.882324 
	C945.062012,844.466919 951.657227,849.716003 959.997742,846.915710 
	C962.729248,845.998535 965.994568,843.189575 966.781982,840.573364 
	C970.010193,829.847839 968.673523,818.943604 958.934753,811.897034 
	C953.679138,808.094238 948.310303,804.429749 943.241028,800.391052 
	C928.926270,788.986267 925.306946,767.865295 935.090637,753.816589 
	C940.715881,745.739197 952.498718,741.963684 963.828491,744.608398 
	C974.573486,747.116455 980.453918,753.419983 981.997864,764.439819 
	C982.637390,769.004150 982.847473,773.628662 983.289856,778.645691 
	C977.744690,778.645691 972.854858,778.645691 967.081055,778.645691 
	C967.081055,775.182190 967.278503,771.727661 967.039490,768.303650 
	C966.553650,761.344055 963.101807,757.900879 956.866394,757.796387 
	C950.325806,757.686707 946.797913,761.127686 945.987488,768.204834 
	C945.063660,776.272583 947.163330,783.011719 954.100037,787.821899 
	C958.337402,790.760315 962.508179,793.794861 967.006348,796.980957 
z"/>
<path fill="#283454" opacity="1.000000" stroke="none" 
	d="
M540.289917,747.791565 
	C540.506042,752.207642 540.691711,756.192993 540.869812,760.015625 
	C544.021301,756.310852 546.689209,751.847168 550.552124,749.011292 
	C554.325256,746.241211 559.318298,745.132751 564.487244,743.001526 
	C564.487244,750.853760 564.487244,757.123291 564.487244,763.351074 
	C546.867676,767.240356 541.320374,774.085083 541.129272,792.948059 
	C540.923523,813.256836 541.079407,833.569214 541.077576,853.880066 
	C541.077393,855.658264 541.077515,857.436462 541.077515,859.434204 
	C535.622192,859.434204 530.699280,859.434204 525.395386,859.434204 
	C525.395386,821.527832 525.395386,783.831116 525.395386,745.772888 
	C529.638916,745.772888 533.950806,745.703735 538.255859,745.843994 
	C538.939575,745.866272 539.592468,746.831543 540.289917,747.791565 
z"/>
<path fill="#C6A959" opacity="1.000000" stroke="none" 
	d="
M826.654602,855.596680 
	C825.716187,857.281433 824.875488,859.462952 823.824890,859.569153 
	C819.736389,859.982666 815.581421,859.737610 810.854858,859.737610 
	C810.854858,821.684204 810.854858,784.141357 810.854858,746.215088 
	C815.533569,746.215088 820.390930,746.215088 825.681274,746.215088 
	C825.681274,751.246582 825.681274,756.031433 825.681274,760.816345 
	C830.938660,751.341003 837.857788,744.791321 849.571899,744.182251 
	C849.571899,750.695557 849.571899,757.047058 849.571899,763.391357 
	C832.585266,766.956787 827.161926,773.060547 826.845703,790.665283 
	C826.459717,812.151001 826.691284,833.647888 826.654602,855.596680 
z"/>
<path fill="#283454" opacity="1.000000" stroke="none" 
	d="
M435.844604,101.552528 
	C435.654358,99.322197 435.495667,97.536598 435.266937,94.962845 
	C445.995331,94.962845 456.366425,94.962845 466.912262,94.962845 
	C466.912262,102.127174 466.912262,109.658867 466.912262,117.732132 
	C456.872253,117.732132 447.301208,117.732132 437.146790,117.732132 
	C436.746460,112.774658 436.311310,107.385956 435.844604,101.552528 
z"/>
<path fill="#283351" opacity="1.000000" stroke="none" 
	d="
M554.835938,143.645218 
	C558.472717,154.613632 560.912109,165.535461 560.751831,177.375000 
	C553.088806,177.375000 545.679565,177.375000 538.151123,177.375000 
	C536.706543,169.057587 535.222290,160.511749 533.644104,151.425400 
	C538.754150,149.325439 544.381287,147.013016 550.281982,144.415955 
	C551.907776,143.900574 553.259949,143.669815 554.835938,143.645218 
z"/>
<path fill="#273353" opacity="1.000000" stroke="none" 
	d="
M374.754272,106.542511 
	C384.389343,104.057663 393.673584,101.724861 403.345459,99.294655 
	C404.895050,107.436363 406.281647,114.721626 407.702545,122.187164 
	C398.106995,124.558434 388.821320,126.853119 378.948792,129.292831 
	C376.861328,122.476105 374.739166,115.723328 372.811432,108.915497 
	C372.656769,108.369263 373.841278,107.443794 374.754272,106.542511 
z"/>
<path fill="#273353" opacity="1.000000" stroke="none" 
	d="
M514.892700,103.121292 
	C520.977966,106.497101 526.709473,109.743294 533.000305,113.306305 
	C527.757874,119.904434 523.061584,125.815140 518.710815,131.291000 
	C510.720032,127.402718 503.187469,123.737411 495.369293,119.933121 
	C496.973389,113.045509 498.655396,105.823395 500.518799,97.822418 
	C505.389343,99.618187 509.964172,101.304924 514.892700,103.121292 
z"/>
<path fill="#273253" opacity="1.000000" stroke="none" 
	d="
M266.905640,485.170624 
	C273.422211,484.217285 279.479065,483.296448 286.095032,482.290619 
	C288.105988,489.125366 290.196655,496.230957 292.457367,503.914490 
	C281.478271,507.644867 270.391357,508.662689 258.903320,508.945404 
	C258.903320,501.093414 258.903320,493.645355 258.903320,485.703705 
	C261.582520,485.525909 264.014221,485.364502 266.905640,485.170624 
z"/>
<path fill="#273353" opacity="1.000000" stroke="none" 
	d="
M206.530426,494.458618 
	C202.357666,491.738342 198.486908,489.227356 194.156418,486.418182 
	C199.112595,480.009857 203.746307,474.018494 208.094635,468.396149 
	C216.072693,472.771484 223.740280,476.976562 231.992416,481.502197 
	C229.702881,488.075165 227.231491,495.170197 224.461456,503.122589 
	C218.349213,500.191223 212.590805,497.429565 206.530426,494.458618 
z"/>
<path fill="#273253" opacity="1.000000" stroke="none" 
	d="
M668.254028,598.107056 
	C671.547607,596.327148 674.841187,594.547241 678.310486,592.672424 
	C679.700012,594.504700 680.979431,596.191711 682.571777,598.044312 
	C686.581970,601.609314 690.279236,605.008667 694.754578,609.123413 
	C692.443054,614.863770 689.634155,621.839233 686.684814,629.163513 
	C673.897827,624.690186 665.497864,615.749573 658.518433,604.466797 
	C661.094727,602.872498 663.458008,601.410034 666.358765,599.613647 
	C667.348877,598.888855 667.801453,598.497986 668.254028,598.107056 
z"/>
<path fill="#273252" opacity="1.000000" stroke="none" 
	d="
M160.377655,442.122375 
	C158.931137,438.135834 157.750504,434.385284 156.342926,429.913757 
	C163.783234,427.749695 170.955338,425.663635 178.025223,423.607330 
	C181.008072,430.178986 183.786926,436.301239 186.818451,442.658234 
	C187.896988,444.493500 188.722855,446.094025 189.823151,448.226379 
	C183.658066,452.379120 177.409592,456.588043 170.294952,461.380371 
	C166.977264,454.841522 163.810394,448.599915 160.377655,442.122375 
z"/>
<path fill="#273253" opacity="1.000000" stroke="none" 
	d="
M721.033936,622.042480 
	C721.031555,618.745850 721.031555,615.939880 721.031555,613.822510 
	C729.779114,611.868408 738.014526,610.028748 746.742737,608.079041 
	C749.492004,614.427307 752.442505,621.240234 755.596985,628.524109 
	C744.653076,633.484192 733.499451,635.970520 721.036316,636.079590 
	C721.036316,631.409851 721.036316,626.971497 721.033936,622.042480 
z"/>
<path fill="#273252" opacity="1.000000" stroke="none" 
	d="
M345.761902,142.537384 
	C338.799408,146.047806 332.087524,149.292953 324.700104,152.864700 
	C322.843414,149.613205 320.821075,146.071579 318.538757,142.366531 
	C316.707886,139.311035 315.136993,136.418961 313.171570,132.800522 
	C322.642792,127.976395 331.989685,123.215599 341.787964,118.224899 
	C345.052704,125.643303 348.034607,132.419022 351.233612,139.688110 
	C349.450317,140.570694 347.731415,141.421402 345.761902,142.537384 
z"/>
<path fill="#273252" opacity="1.000000" stroke="none" 
	d="
M334.713257,454.062103 
	C339.839783,459.376038 344.609955,464.552582 349.994171,470.395477 
	C344.969360,474.490326 340.194885,478.381195 335.281677,482.551880 
	C331.409515,485.272430 327.676086,487.713196 323.473175,490.460938 
	C319.441254,483.796234 315.537170,477.342834 311.598358,470.832031 
	C319.351624,465.072144 326.854248,459.498444 334.713257,454.062103 
z"/>
<path fill="#273251" opacity="1.000000" stroke="none" 
	d="
M774.158264,598.281738 
	C772.668091,596.338867 771.446960,594.594788 770.996277,593.951111 
	C777.645264,586.706909 784.019775,579.761780 790.598267,572.594482 
	C796.483521,577.722717 802.099060,582.615845 808.175659,587.910828 
	C805.095215,591.185791 802.166748,594.299133 799.107788,597.724365 
	C794.320862,602.200684 789.664307,606.364990 784.693481,610.810364 
	C781.112488,606.509583 777.769897,602.495056 774.158264,598.281738 
z"/>
<path fill="#35405F" opacity="1.000000" stroke="none" 
	d="
M1161.510132,719.646057 
	C1160.813232,717.624023 1160.275269,715.973206 1159.737427,714.322388 
	C1159.509277,714.381165 1159.281250,714.440002 1159.053223,714.498779 
	C1159.053223,721.404785 1159.053223,728.310791 1159.053223,735.216797 
	C1158.676758,735.551331 1158.300293,735.885803 1157.923950,736.220337 
	C1156.998901,735.224731 1155.297119,734.249023 1155.271118,733.230469 
	C1155.055298,724.770752 1155.148804,716.303223 1155.148804,707.798462 
	C1159.517578,706.109741 1161.793945,707.284241 1162.947876,711.656189 
	C1164.470947,717.426636 1166.482178,723.068237 1168.594727,729.749451 
	C1170.911743,723.101868 1172.937744,717.249329 1174.992554,711.406860 
	C1176.555786,706.961914 1176.572021,706.967590 1182.040283,707.467102 
	C1182.040283,716.684509 1182.040283,725.936523 1182.040283,735.413696 
	C1179.417114,736.680603 1178.298218,735.841248 1178.337036,732.814758 
	C1178.411621,727.003296 1178.358765,721.190125 1177.287476,715.065369 
	C1176.116211,718.628479 1174.963013,722.197693 1173.767822,725.752869 
	C1172.921509,728.270203 1172.194458,730.851807 1171.063599,733.238586 
	C1170.541748,734.339722 1169.292114,735.416748 1168.149902,735.756226 
	C1167.642700,735.907043 1166.198242,734.338928 1165.843750,733.319824 
	C1164.317749,728.932373 1163.038208,724.459229 1161.510132,719.646057 
z"/>
<path fill="#313C5B" opacity="1.000000" stroke="none" 
	d="
M1141.790161,736.063477 
	C1134.140381,735.825989 1131.783325,734.029663 1130.819214,726.638550 
	C1132.865479,728.132629 1134.336060,728.783508 1135.181274,729.905334 
	C1137.423096,732.880554 1140.177368,733.752197 1143.484985,732.274231 
	C1146.915405,730.741455 1147.089355,726.318787 1143.738037,724.256653 
	C1141.932983,723.145935 1139.748413,722.654175 1137.738892,721.873474 
	C1134.305420,720.539734 1131.318970,718.685425 1131.372803,714.488770 
	C1131.421265,710.720337 1133.507935,708.102173 1137.149414,707.286682 
	C1141.182129,706.383484 1145.208618,706.540527 1148.019531,710.273254 
	C1148.768188,711.267395 1149.044800,712.616943 1149.538086,713.803284 
	C1149.258057,714.206726 1148.978027,714.610168 1148.697998,715.013672 
	C1147.473022,714.300293 1146.280762,713.521545 1145.015503,712.888672 
	C1143.084351,711.922607 1141.156738,710.579773 1139.120117,710.349854 
	C1138.096069,710.234314 1135.977783,712.155701 1135.895874,713.269348 
	C1135.791260,714.692017 1136.901123,716.675232 1138.111206,717.604370 
	C1139.621704,718.764099 1141.767700,719.095215 1143.638672,719.785828 
	C1147.734375,721.297485 1150.593140,723.706543 1150.132690,728.594116 
	C1149.678223,733.421326 1146.657471,735.481079 1141.790161,736.063477 
z"/>
<path fill="#F5EECF" opacity="1.000000" stroke="none" 
	d="
M667.859375,598.091919 
	C667.801453,598.497986 667.348877,598.888855 666.610107,599.391846 
	C666.239075,599.303833 666.154175,599.103638 665.986084,598.589111 
	C666.423584,598.208862 666.944092,598.142883 667.859375,598.091919 
z"/>
<path fill="#263150" opacity="1.000000" stroke="none" 
	d="
M1006.685181,385.261108 
	C1007.722717,386.265137 1009.095764,387.446625 1008.876648,388.042816 
	C1003.343811,403.093475 997.643738,418.082642 991.652832,433.929657 
	C988.075439,427.244476 984.961975,421.426300 981.776978,415.474365 
	C975.016113,417.108917 968.492065,418.686218 961.560364,420.362061 
	C960.160950,412.410187 958.877014,405.114563 957.547546,397.560120 
	C962.018005,396.359650 966.091797,395.265717 970.682190,394.033051 
	C967.553528,387.928955 964.702881,382.367249 961.379578,375.883453 
	C976.935303,379.099396 991.607117,382.132599 1006.685181,385.261108 
z"/>
<path fill="#253150" opacity="1.000000" stroke="none" 
	d="
M337.353729,303.716156 
	C333.615662,303.779633 330.174561,303.521301 326.189789,303.222137 
	C326.189789,309.544220 326.189789,315.796082 326.189789,323.759735 
	C312.946075,312.353882 300.854431,301.940247 288.142029,290.991974 
	C301.045593,280.050903 313.596161,269.409210 326.977600,258.062958 
	C326.977600,265.906250 326.977600,272.597900 326.977600,279.354614 
	C332.193665,280.235504 337.018402,281.050293 342.234253,281.931152 
	C340.618225,289.498383 339.134460,296.446381 337.353729,303.716156 
z"/>
<path fill="#273251" opacity="1.000000" stroke="none" 
	d="
M814.157227,275.960602 
	C817.795959,276.667236 821.011719,277.320984 824.174561,277.963959 
	C823.232605,287.641602 822.335083,296.862671 821.406860,306.399414 
	C814.067566,306.399414 806.657043,306.399414 798.098328,306.399414 
	C799.126587,295.424530 800.120850,284.813354 801.170837,273.607269 
	C805.963440,274.484833 809.848816,275.196289 814.157227,275.960602 
z"/>
<path fill="#273251" opacity="1.000000" stroke="none" 
	d="
M893.804443,199.149979 
	C896.003418,200.379135 897.861816,201.456192 900.293274,202.865311 
	C895.899170,209.341858 891.660950,215.588684 887.489868,221.736481 
	C883.768372,220.337326 880.459473,218.757263 876.973816,217.877182 
	C873.478821,216.994751 869.807617,216.810638 865.719482,216.253052 
	C864.802917,209.098694 863.859863,201.736984 862.842224,193.793610 
	C873.906311,192.188431 883.827026,194.675140 893.804443,199.149979 
z"/>
<path fill="#273251" opacity="1.000000" stroke="none" 
	d="
M384.720825,367.469727 
	C385.424591,362.965363 386.020111,358.872498 386.648010,354.556946 
	C394.150909,354.556946 401.672302,354.556946 410.745026,354.556946 
	C408.307007,366.227356 406.038239,377.087646 403.608368,388.718933 
	C395.372192,385.759064 388.291443,383.214447 381.040771,380.608734 
	C382.299347,376.123993 383.455963,372.002594 384.720825,367.469727 
z"/>
<path fill="#273251" opacity="1.000000" stroke="none" 
	d="
M632.103149,369.051147 
	C632.784485,362.979218 633.435364,357.364014 634.169739,351.028381 
	C641.765930,351.946198 649.238770,352.849121 657.162292,353.806488 
	C656.167358,363.954834 655.215271,373.666504 654.195190,384.071808 
	C646.437317,383.491791 638.927307,382.930267 631.021484,382.339172 
	C631.398376,377.738464 631.735535,373.623169 632.103149,369.051147 
z"/>
<path fill="#263250" opacity="1.000000" stroke="none" 
	d="
M650.453125,324.451660 
	C646.801819,323.758972 643.565002,323.182159 639.598389,322.475311 
	C641.751892,312.164551 643.834412,302.193848 646.071350,291.483643 
	C653.863831,293.403442 661.162781,295.201630 668.731812,297.066376 
	C666.653992,306.953400 664.657166,316.454956 662.558167,326.442719 
	C658.607300,325.808990 654.737427,325.188232 650.453125,324.451660 
z"/>
<path fill="#263250" opacity="1.000000" stroke="none" 
	d="
M806.547791,338.615845 
	C812.615112,337.302795 818.281494,336.109192 823.760010,334.955139 
	C826.980713,343.207428 830.085999,351.164154 833.395020,359.642761 
	C827.760376,363.524475 821.642456,367.739105 815.096008,372.248962 
	C808.113647,362.516205 804.448486,351.695404 801.776062,339.877960 
	C803.414551,339.449615 804.780701,339.092438 806.547791,338.615845 
z"/>
<path fill="#273251" opacity="1.000000" stroke="none" 
	d="
M927.994202,399.109741 
	C930.758911,399.343445 933.061157,399.553040 935.966492,399.817535 
	C935.562073,407.453766 935.171143,414.835785 934.725891,423.244446 
	C924.201050,422.180847 913.901855,421.140076 902.670776,420.005157 
	C903.969727,412.057281 905.177368,404.668274 906.437622,396.957336 
	C913.736084,397.693695 920.633850,398.389648 927.994202,399.109741 
z"/>
<path fill="#253150" opacity="1.000000" stroke="none" 
	d="
M644.925964,446.889404 
	C639.810181,446.891663 635.181274,446.891663 630.144531,446.891663 
	C630.144531,436.293579 630.144531,425.957031 630.144531,415.434998 
	C637.894592,415.434998 645.248718,415.434998 652.899902,415.434998 
	C652.899902,426.008606 652.899902,436.061371 652.899902,446.887146 
	C650.249756,446.887146 647.831299,446.887146 644.925964,446.889404 
z"/>
<path fill="#273251" opacity="1.000000" stroke="none" 
	d="
M422.290558,456.670044 
	C419.712311,455.845947 417.513672,455.150085 414.554840,454.213623 
	C418.412811,444.074493 422.166199,434.210266 426.100037,423.871796 
	C433.434326,427.216248 440.174286,430.289703 447.304016,433.540894 
	C443.826660,442.686554 440.436066,451.603943 436.916321,460.860992 
	C432.176941,459.509430 427.423553,458.153839 422.290558,456.670044 
z"/>
<path fill="#263250" opacity="1.000000" stroke="none" 
	d="
M671.436768,369.421478 
	C673.630798,366.098755 675.611755,363.069000 677.833191,359.671417 
	C684.466309,363.880310 690.835022,367.921417 697.561584,372.189606 
	C691.677612,381.020660 686.090637,389.405945 680.127136,398.356323 
	C673.701660,393.904449 667.516724,389.619232 660.975464,385.087097 
	C664.487061,379.819580 667.855347,374.766998 671.436768,369.421478 
z"/>
<path fill="#263250" opacity="1.000000" stroke="none" 
	d="
M903.077271,313.994507 
	C903.880005,308.306061 904.638062,303.052856 905.517822,296.955566 
	C912.908203,297.635986 920.397888,298.325531 928.788208,299.097992 
	C927.194031,309.775787 925.645508,320.148132 924.050537,330.831421 
	C916.020508,329.268005 908.737244,327.849976 901.060242,326.355255 
	C901.750244,322.183105 902.391357,318.306427 903.077271,313.994507 
z"/>
<path fill="#263250" opacity="1.000000" stroke="none" 
	d="
M695.903992,324.862366 
	C699.304382,318.374603 702.540955,312.215210 706.057373,305.523193 
	C713.027222,308.868347 719.828796,312.132721 727.089966,315.617706 
	C722.099548,325.084747 717.321472,334.148865 712.278625,343.715363 
	C705.306824,339.766113 698.850952,336.109100 691.899597,332.171448 
	C693.239380,329.736267 694.489746,327.463531 695.903992,324.862366 
z"/>
<path fill="#263251" opacity="1.000000" stroke="none" 
	d="
M666.498108,563.417786 
	C666.034119,565.000244 665.685974,566.965393 664.761475,567.290161 
	C658.526978,569.480408 652.170288,571.322937 644.897034,573.573975 
	C642.356506,563.080811 639.894836,552.913269 637.307190,542.225403 
	C645.344910,540.704651 652.602661,539.331543 660.197021,537.894714 
	C662.289734,546.451477 664.318542,554.746582 666.498108,563.417786 
z"/>
<path fill="#263250" opacity="1.000000" stroke="none" 
	d="
M858.485840,472.586884 
	C863.616699,474.944489 868.416565,477.122894 873.692017,479.517120 
	C869.153198,489.005432 864.812195,498.080200 860.153809,507.818420 
	C853.089050,504.258881 846.402344,500.889801 839.371155,497.347168 
	C843.776062,488.106079 847.964844,479.318329 852.361023,470.095520 
	C854.317200,470.876160 856.236023,471.641907 858.485840,472.586884 
z"/>
<path fill="#263250" opacity="1.000000" stroke="none" 
	d="
M631.753296,496.413391 
	C631.326355,490.511841 630.955139,485.068634 630.558960,479.259094 
	C638.407654,478.805634 645.812988,478.377808 653.630554,477.926178 
	C654.460144,488.012512 655.258240,497.716431 656.111877,508.095245 
	C648.517029,508.963745 641.166565,509.804291 633.105713,510.726044 
	C632.663818,506.004150 632.236450,501.437927 631.753296,496.413391 
z"/>
<path fill="#263251" opacity="1.000000" stroke="none" 
	d="
M841.317566,234.384476 
	C838.248535,239.716736 835.388611,244.752228 832.165283,250.427460 
	C825.395325,247.635437 818.436768,244.765625 810.213989,241.374466 
	C816.389954,231.243256 822.262695,221.609344 828.524902,211.336594 
	C835.100830,217.365860 840.566528,222.377167 846.311890,227.644897 
	C844.632202,229.906372 843.079407,231.997040 841.317566,234.384476 
z"/>
<path fill="#273251" opacity="1.000000" stroke="none" 
	d="
M367.337402,306.333710 
	C369.800873,301.997528 372.069183,297.978271 374.462677,293.737274 
	C385.543091,299.959717 394.500397,307.784637 401.001099,318.821808 
	C394.396637,322.734009 388.004852,326.520203 382.038818,330.054230 
	C375.826263,324.331665 369.917877,318.889282 363.648743,313.114655 
	C364.656128,311.250702 365.899200,308.950684 367.337402,306.333710 
z"/>
<path fill="#263250" opacity="1.000000" stroke="none" 
	d="
M737.437622,285.155884 
	C730.722168,282.793701 724.361145,280.535980 717.956360,278.262695 
	C720.269714,269.084900 722.479858,260.316681 724.860046,250.873825 
	C731.882935,251.627625 739.211304,252.414200 747.537964,253.307938 
	C746.575806,258.579071 745.880310,263.574646 744.711609,268.456940 
	C743.557007,273.279724 742.027100,278.023285 740.420349,282.718933 
	C740.069031,283.745605 738.695068,284.422394 737.437622,285.155884 
z"/>
<path fill="#273251" opacity="1.000000" stroke="none" 
	d="
M503.572662,324.505859 
	C505.719910,325.761505 507.555969,326.815063 509.843353,328.127594 
	C504.542542,337.249268 499.485840,345.950928 494.133331,355.161560 
	C487.412323,351.079865 480.990631,347.179932 474.203522,343.058075 
	C479.431610,334.085083 484.408295,325.543610 489.528931,316.755066 
	C494.277161,319.365143 498.769348,321.834473 503.572662,324.505859 
z"/>
<path fill="#273251" opacity="1.000000" stroke="none" 
	d="
M455.044952,373.058533 
	C456.078674,371.570221 456.937073,370.390808 457.994263,368.938263 
	C464.432617,373.136810 470.662476,377.199432 477.205139,381.466003 
	C471.852539,390.083008 466.634033,398.484131 461.237213,407.172272 
	C454.589508,403.345886 448.147858,399.638092 441.039856,395.546753 
	C445.788727,387.930847 450.329163,380.649139 455.044952,373.058533 
z"/>
<path fill="#263150" opacity="1.000000" stroke="none" 
	d="
M168.152634,365.951538 
	C170.885651,366.352081 173.182419,366.710083 175.786011,367.115936 
	C175.177658,376.578247 174.574829,385.954987 173.930435,395.977997 
	C166.569870,395.977997 159.172546,395.977997 150.667191,395.977997 
	C151.303131,385.582764 151.954254,374.939331 152.646301,363.626892 
	C158.291809,364.481812 163.004089,365.195435 168.152634,365.951538 
z"/>
<path fill="#273251" opacity="1.000000" stroke="none" 
	d="
M529.735962,235.333954 
	C528.897522,233.980713 527.772705,232.603180 528.034302,231.580109 
	C530.164246,223.249710 532.553467,214.985611 535.023010,206.130173 
	C542.093079,207.500916 549.321289,208.902313 557.757751,210.537964 
	C555.022400,220.932709 552.366211,231.026703 549.524292,241.826431 
	C542.575562,239.554840 536.333862,237.514389 529.735962,235.333954 
z"/>
<path fill="#273251" opacity="1.000000" stroke="none" 
	d="
M925.703796,266.775879 
	C919.121155,267.128845 913.002625,267.454437 906.732056,267.788116 
	C905.084412,259.003723 903.451111,250.295853 901.673096,240.816376 
	C908.055359,238.374725 915.096985,235.680817 922.603027,232.809235 
	C926.662231,243.101517 928.581726,253.581421 928.978943,264.350708 
	C929.007141,265.114380 927.148926,265.947632 925.703796,266.775879 
z"/>
<path fill="#263251" opacity="1.000000" stroke="none" 
	d="
M815.286194,539.249878 
	C818.551331,534.038696 821.612122,529.126160 824.886475,523.870789 
	C831.506775,527.743286 837.909729,531.488647 845.031921,535.654724 
	C839.284119,544.732483 833.744934,553.480774 828.007690,562.541870 
	C821.353027,557.930847 815.245789,553.699097 808.782227,549.220459 
	C810.960144,545.876648 813.020996,542.712585 815.286194,539.249878 
z"/>
<path fill="#263250" opacity="1.000000" stroke="none" 
	d="
M875.706299,397.737335 
	C874.022095,402.297913 872.481445,406.491730 870.500122,411.885010 
	C860.380554,406.891663 850.553833,402.042847 840.185913,396.927002 
	C844.905884,389.866058 849.036926,383.686005 853.207886,377.446259 
	C861.447754,381.540283 869.542664,385.562286 878.207153,389.867279 
	C877.494568,392.135468 876.672180,394.752991 875.706299,397.737335 
z"/>
<path fill="#273251" opacity="1.000000" stroke="none" 
	d="
M897.573730,356.520935 
	C903.880249,358.242310 909.808167,359.819946 916.675354,361.647552 
	C913.729858,371.700745 910.864502,381.480316 907.820618,391.869202 
	C900.279480,389.432739 893.114929,387.117950 885.672119,384.713257 
	C888.327209,375.529724 890.772156,366.749084 893.521973,358.064941 
	C893.795410,357.201263 895.926392,356.925720 897.573730,356.520935 
z"/>
<path fill="#263250" opacity="1.000000" stroke="none" 
	d="
M891.608643,436.655823 
	C889.724976,441.314331 888.012817,445.625641 886.025269,450.630463 
	C878.786377,447.686066 871.824829,444.854462 864.517700,441.882294 
	C868.244385,432.291962 871.774902,423.206482 875.550293,413.490967 
	C882.846130,416.160339 889.921326,418.748932 897.338562,421.462677 
	C895.377930,426.699280 893.578979,431.503967 891.608643,436.655823 
z"/>
<path fill="#273251" opacity="1.000000" stroke="none" 
	d="
M160.954803,330.035828 
	C164.251846,320.428070 167.479507,311.222748 170.874634,301.539856 
	C178.390839,304.713074 185.202026,307.588684 192.408371,310.631104 
	C189.081650,319.893250 185.855743,328.874695 182.378006,338.557251 
	C175.379852,336.400452 168.463913,334.292084 161.580048,332.083710 
	C161.210571,331.965179 161.110779,331.006073 160.954803,330.035828 
z"/>
<path fill="#263251" opacity="1.000000" stroke="none" 
	d="
M601.824097,456.822510 
	C602.927917,456.757690 604.016052,456.673035 604.604858,457.174622 
	C609.784790,461.586884 614.875793,466.103577 620.460938,470.999420 
	C613.384155,478.787903 606.497803,486.366852 599.135803,494.469177 
	C593.983704,488.495392 589.108948,482.843262 583.834534,476.727783 
	C588.944763,471.067200 595.260864,464.070892 601.824097,456.822510 
z"/>
<path fill="#263250" opacity="1.000000" stroke="none" 
	d="
M510.552704,275.478516 
	C512.575623,271.083466 514.412231,267.017456 516.456604,262.491394 
	C523.576416,265.499908 530.404785,268.385315 537.946106,271.571930 
	C533.498718,281.204926 529.157593,290.607910 524.686157,300.292969 
	C517.527283,296.726959 510.863922,293.407837 503.813568,289.895905 
	C506.076538,285.030487 508.221436,280.419006 510.552704,275.478516 
z"/>
<path fill="#273251" opacity="1.000000" stroke="none" 
	d="
M211.195419,251.836441 
	C214.418686,253.921127 217.334320,255.813553 220.678070,257.983856 
	C215.594467,266.588684 210.656128,274.947601 205.444550,283.769043 
	C198.732468,280.175140 192.204849,276.679993 184.910355,272.774231 
	C190.401276,263.499512 195.674881,254.591858 201.153244,245.338364 
	C204.787491,247.692551 207.837631,249.668350 211.195419,251.836441 
z"/>
<path fill="#263250" opacity="1.000000" stroke="none" 
	d="
M231.478027,228.521774 
	C227.500610,225.476730 223.803955,222.654938 219.512207,219.378891 
	C226.230362,211.151184 232.785736,203.122849 239.587967,194.792191 
	C245.581238,200.065140 251.179596,204.990646 257.078888,210.180908 
	C250.775650,217.889252 244.615906,225.422119 238.122452,233.363098 
	C235.971664,231.802292 233.865219,230.273651 231.478027,228.521774 
z"/>
<path fill="#263250" opacity="1.000000" stroke="none" 
	d="
M368.715027,443.327026 
	C363.368652,439.355896 358.309631,435.602356 353.242004,431.842438 
	C358.538269,423.485535 363.595734,415.505432 368.918427,407.106842 
	C375.493958,410.676208 382.139557,414.283600 389.524750,418.292450 
	C383.943970,426.884888 378.581116,435.033020 373.350159,443.265015 
	C371.867523,445.598267 370.545380,444.945923 368.715027,443.327026 
z"/>
<path fill="#263250" opacity="1.000000" stroke="none" 
	d="
M561.491333,530.500977 
	C558.692261,532.876709 556.161865,535.020752 553.137573,537.583313 
	C548.200012,531.588684 543.395203,525.755188 538.442383,519.742065 
	C546.037659,512.979492 553.325012,506.491089 560.962402,499.690948 
	C566.182800,505.205505 571.288513,510.598907 576.932678,516.561157 
	C571.747681,521.245605 566.753845,525.757446 561.491333,530.500977 
z"/>
<path fill="#263251" opacity="1.000000" stroke="none" 
	d="
M499.952698,546.008667 
	C504.883911,543.211792 509.473877,540.561401 514.600769,537.600952 
	C518.807983,543.920227 522.978516,550.184509 527.684082,557.252441 
	C517.735596,562.588257 508.195465,567.704956 498.106262,573.116211 
	C495.046234,565.147339 492.399261,558.254272 489.624054,551.027100 
	C493.155273,549.304565 496.383362,547.729858 499.952698,546.008667 
z"/>
<path fill="#263250" opacity="1.000000" stroke="none" 
	d="
M662.009277,245.022324 
	C664.507324,240.127823 666.874451,235.584747 669.515686,230.515625 
	C676.311035,234.724289 682.716064,238.691208 689.064331,242.622940 
	C684.982361,251.389191 681.094299,259.739044 677.015503,268.498444 
	C670.013672,265.964325 663.054993,263.445862 655.447144,260.692413 
	C657.694702,255.339050 659.786560,250.356400 662.009277,245.022324 
z"/>
<path fill="#273251" opacity="1.000000" stroke="none" 
	d="
M276.627380,158.635773 
	C279.883423,156.031387 282.865204,153.653183 286.274963,150.933655 
	C291.007111,157.186951 295.566467,163.211960 300.192322,169.324814 
	C292.641998,175.722687 285.314728,181.931519 278.820465,187.434525 
	C273.033081,182.334564 267.450439,177.415009 261.320435,172.013123 
	C266.694000,167.312119 271.523560,163.087036 276.627380,158.635773 
z"/>
<path fill="#263150" opacity="1.000000" stroke="none" 
	d="
M723.095154,204.771210 
	C728.514404,207.844910 733.560791,210.787323 739.458923,214.226395 
	C732.601562,220.151413 726.985046,225.004227 722.483459,228.893753 
	C716.854919,227.807922 712.264343,227.033600 707.740723,225.973373 
	C706.574646,225.700058 705.083679,224.752792 704.655273,223.731842 
	C702.154663,217.773529 699.925598,211.701263 697.410278,205.161301 
	C705.991821,201.432709 714.316223,201.955002 723.095154,204.771210 
z"/>
<path fill="#263250" opacity="1.000000" stroke="none" 
	d="
M461.142639,548.910400 
	C463.239929,550.564148 465.055573,551.992798 467.353149,553.800659 
	C464.859619,560.710632 462.300507,567.802429 459.613098,575.249695 
	C447.911377,570.247559 439.978607,561.322815 431.012360,552.782837 
	C436.952454,547.429321 442.453522,542.471436 448.134460,537.351501 
	C452.520966,541.257996 456.691010,544.971619 461.142639,548.910400 
z"/>
<path fill="#253150" opacity="1.000000" stroke="none" 
	d="
M432.797760,504.062408 
	C433.488403,507.751801 434.123627,511.006866 434.885010,514.908264 
	C427.910553,517.230774 420.747314,519.616150 413.265991,522.107483 
	C409.121857,510.890778 408.397430,499.579437 408.975739,487.499115 
	C416.574127,487.845459 423.949127,488.181641 431.554443,488.528290 
	C431.970703,493.819458 432.356537,498.723755 432.797760,504.062408 
z"/>
<path fill="#FBFBFC" opacity="1.000000" stroke="none" 
	d="
M416.819885,776.366394 
	C416.577637,795.112610 416.610931,813.409607 415.868927,831.675110 
	C415.601105,838.267883 413.030487,844.472412 405.343475,846.341125 
	C398.657715,847.966248 393.113190,845.262268 391.297699,838.615295 
	C390.001221,833.868591 389.467010,828.796753 389.386108,823.856995 
	C389.146271,809.218567 389.184540,794.572205 389.372803,779.932312 
	C389.425629,775.821960 389.948242,771.610291 391.005066,767.644958 
	C392.647125,761.483826 396.742584,758.568542 402.526642,758.538269 
	C409.128235,758.503723 413.226532,761.319885 415.173767,767.620544 
	C415.999695,770.293091 416.267517,773.138123 416.819885,776.366394 
z"/>
<path fill="#FEFEFD" opacity="1.000000" stroke="none" 
	d="
M776.886353,802.000000 
	C776.595947,812.621521 776.745178,822.780457 775.888306,832.853760 
	C775.076965,842.392456 769.907166,846.752197 761.937134,846.272095 
	C757.281555,845.991577 753.844910,843.773315 752.277344,839.595642 
	C750.780029,835.605286 749.310913,831.291443 749.292786,827.113464 
	C749.215759,809.346130 749.312378,791.560242 750.095825,773.814148 
	C750.530518,763.969482 756.019348,758.826782 764.005066,758.733459 
	C769.675293,758.667236 773.461853,760.837341 774.841675,766.332031 
	C776.119507,771.420776 776.549011,776.782898 776.809570,782.051453 
	C777.129517,788.519775 776.886230,795.015869 776.886353,802.000000 
z"/>
<path fill="#FDFDFD" opacity="1.000000" stroke="none" 
	d="
M256.912292,840.634644 
	C253.753540,846.085083 249.099228,847.761047 243.578568,846.744202 
	C238.123520,845.739502 235.201401,841.648193 234.852905,836.555664 
	C234.405869,830.023499 234.250732,823.291199 235.350098,816.881775 
	C236.555878,809.851929 242.575302,805.901489 250.802277,805.173828 
	C253.599960,804.926392 256.437958,805.134583 260.035126,805.134583 
	C259.420563,816.881531 261.732605,828.798462 256.912292,840.634644 
z"/>
<path fill="#FBFCFC" opacity="1.000000" stroke="none" 
	d="
M466.286255,781.140259 
	C466.802917,776.062439 466.847076,771.342163 467.946228,766.881897 
	C469.569916,760.293213 473.791870,757.519348 480.314117,757.732727 
	C486.360596,757.930542 490.785889,761.055359 491.711853,767.486511 
	C492.886902,775.647644 492.944458,783.969788 493.531433,792.949524 
	C488.410736,792.949524 484.000580,792.949524 479.590454,792.949524 
	C475.315948,792.949524 471.041412,792.949524 466.285645,792.949524 
	C466.285645,788.847473 466.285645,785.230774 466.286255,781.140259 
z"/>
<path fill="#FEFEFD" opacity="1.000000" stroke="none" 
	d="
M1081.920166,824.228882 
	C1082.826294,809.452148 1090.306763,803.946960 1107.772949,805.294312 
	C1107.746704,816.579346 1109.261353,827.999512 1105.367920,839.053955 
	C1103.386230,844.680786 1099.221680,847.168579 1093.453369,846.984375 
	C1088.225708,846.817566 1084.340210,843.917053 1083.024658,838.010620 
	C1082.064941,833.702271 1082.236938,829.141907 1081.920166,824.228882 
z"/>
<path fill="#FEFDFC" opacity="1.000000" stroke="none" 
	d="
M883.453735,806.097534 
	C888.259888,805.564148 892.668396,805.119751 898.672913,804.514404 
	C897.652405,816.208435 897.276672,826.966736 895.589905,837.515381 
	C894.511230,844.260742 889.183350,847.366333 882.834656,846.973267 
	C877.420654,846.638062 873.103149,843.069885 872.369263,836.680176 
	C871.677002,830.652405 871.799133,824.403076 872.549194,818.373901 
	C873.295227,812.377441 877.094482,808.132812 883.453735,806.097534 
z"/>
<path fill="#FFFEFE" opacity="1.000000" stroke="none" 
	d="
M685.027405,792.951904 
	C681.424622,792.951904 678.315308,792.951904 674.223206,792.951904 
	C674.789124,784.048279 674.701172,775.724243 676.016724,767.628296 
	C677.189148,760.412964 681.474365,757.694092 688.288818,757.807617 
	C694.615723,757.912964 698.890869,760.999023 699.876343,767.898132 
	C701.018738,775.895630 701.007812,784.057922 701.546143,792.951965 
	C695.697754,792.951965 690.609314,792.951965 685.027405,792.951904 
z"/>
</svg>