<svg version="1.1" id="Layer_1" xmlns="http://www.w3.org/2000/svg" xmlns:xlink="http://www.w3.org/1999/xlink" x="0px" y="0px"
	 width="100%" viewBox="0 0 1270 902" enable-background="new 0 0 1270 902" xml:space="preserve">
<path fill="#FFFFFF" opacity="1.000000" stroke="none" 
	d="
M774.000000,903.000000 
	C749.312439,903.000000 724.624878,903.000000 699.634766,902.664551 
	C718.553284,898.499695 723.379822,879.589783 722.234741,862.275757 
	C715.972595,862.278564 709.712280,862.278564 704.294800,862.278564 
	C702.816589,868.730164 702.253601,875.070862 699.868774,880.630005 
	C696.764709,887.865479 683.650452,887.999756 678.834900,881.677124 
	C674.770813,876.341187 674.014099,870.371399 673.854553,864.001343 
	C673.640747,855.466858 673.061646,846.941528 672.608948,837.796570 
	C690.014771,837.796570 706.401306,837.796570 722.003540,837.796570 
	C722.003540,822.614441 723.145508,807.917114 721.764038,793.460938 
	C718.950867,764.021484 689.806091,758.463806 670.450684,769.211426 
	C658.375061,775.916809 654.529419,788.214600 654.258362,800.717712 
	C653.725403,825.300049 654.229553,849.934021 655.316528,874.501831 
	C655.587097,880.617493 659.341309,886.745850 662.173157,892.536438 
	C665.287537,898.904724 672.147522,900.359436 678.000000,903.000000 
	C603.979126,903.000000 529.958191,903.000000 455.595520,902.642395 
	C473.328308,898.886658 479.764862,877.846924 477.315216,862.370239 
	C471.210785,862.370239 465.145905,862.370239 459.378021,862.370239 
	C458.885162,866.342712 458.376801,869.906555 458.013977,873.485168 
	C457.427124,879.273010 453.031647,885.197449 448.632172,885.985229 
	C440.655457,887.413635 435.284882,885.133911 432.191711,878.431580 
	C426.161072,865.364014 430.216858,851.593506 428.811707,837.698486 
	C445.777466,837.698486 461.835938,837.698486 476.997742,837.698486 
	C476.997742,821.860291 478.108032,806.359497 476.651642,791.103760 
	C475.454620,778.564697 468.257935,768.583191 454.912262,765.603149 
	C449.669250,764.432434 444.002258,764.952087 438.534485,765.049072 
	C431.788940,765.168579 426.011322,767.824829 421.042999,772.420959 
	C411.347900,781.389832 409.471680,793.515320 409.226532,805.461121 
	C408.770569,827.681030 409.272644,849.945068 410.194153,872.156738 
	C410.563721,881.064026 413.123383,890.023132 420.684540,895.995789 
	C424.348114,898.889587 428.867889,900.699402 433.000000,903.000000 
	C407.645782,903.000000 382.291534,903.000000 356.587402,902.649048 
	C360.893555,899.371948 365.549591,896.445679 369.989990,893.654968 
	C370.294983,895.188232 370.844360,897.950073 371.396271,900.724609 
	C377.545776,900.724609 383.621490,900.724609 389.740448,900.724609 
	C389.740448,839.411926 389.740448,778.374878 389.740448,717.281250 
	C383.082184,717.281250 376.686615,717.281250 369.816467,717.281250 
	C369.816467,735.546570 369.816467,753.535645 369.816467,771.921265 
	C360.559662,764.126343 350.530701,763.088562 339.782867,765.685120 
	C326.174835,768.972717 319.399536,783.198914 319.147491,795.974976 
	C318.648224,821.282043 318.515747,846.619019 319.197052,871.917603 
	C319.556854,885.277649 323.737427,897.488770 338.000000,903.000000 
	C283.312439,903.000000 228.624878,903.000000 173.586151,902.650024 
	C177.579483,899.634216 181.923996,896.968323 186.148148,894.376282 
	C187.056335,896.069580 183.687576,900.697327 189.204422,900.947937 
	C194.317703,901.180176 199.449829,900.997375 204.026794,900.997375 
	C204.657516,900.441284 204.891556,900.330750 204.890701,900.221985 
	C204.603271,863.136536 204.523438,826.046814 203.800690,788.969666 
	C203.662308,781.870667 200.718918,774.573486 194.493240,770.340881 
	C183.226685,762.681091 170.742386,762.655579 158.231537,766.998718 
	C144.790619,771.664856 138.761475,788.344910 141.580139,802.691772 
	C147.667145,802.691772 153.743134,802.691772 159.175049,802.691772 
	C160.163284,797.835754 160.812958,793.334900 162.033356,788.994507 
	C163.403305,784.122192 168.216614,780.810120 172.806564,781.002441 
	C177.936539,781.217407 183.248917,784.780701 183.742844,789.773132 
	C184.759644,800.050903 184.935883,810.411804 185.442871,820.439148 
	C179.633896,821.033020 174.909500,821.541992 170.179718,821.994690 
	C155.720963,823.378479 142.832474,831.131592 139.202179,846.049683 
	C137.216248,854.210571 137.034668,862.969238 137.140274,871.444519 
	C137.313721,885.366272 141.790131,897.224915 156.000000,903.000000 
	C104.402962,903.000000 52.805923,903.000000 1.000000,903.000000 
	C1.000000,846.645935 1.000000,790.291626 1.386458,733.634644 
	C2.848490,741.250916 3.961403,749.165161 4.989445,757.090332 
	C6.081285,765.507202 7.003881,773.946716 8.161014,782.354309 
	C9.692410,793.481262 11.386343,804.585815 12.998044,815.701843 
	C14.236436,824.243164 15.490670,832.782349 16.674597,841.331238 
	C18.150393,851.987549 19.530685,862.657104 21.009319,873.313049 
	C22.279350,882.465698 23.629684,891.607117 24.979485,900.996826 
	C31.565741,900.996826 37.714668,901.111877 43.851219,900.887756 
	C44.919468,900.848816 46.708275,899.501770 46.858196,898.552551 
	C48.712780,886.811035 50.340149,875.033386 51.995380,863.260681 
	C53.696720,851.160034 55.318111,839.047913 57.058067,826.952881 
	C59.329308,811.164734 61.664452,795.385681 64.014145,779.609009 
	C64.574379,775.847412 65.301414,772.110657 66.123535,767.372192 
	C72.634636,812.660706 78.974609,856.758911 85.309822,900.823975 
	C92.644150,900.823975 99.599678,900.823975 106.819885,900.823975 
	C115.677124,842.261414 124.514160,783.832458 133.367355,725.296631 
	C125.980583,725.296631 119.559517,725.296631 113.001183,725.296631 
	C107.351433,771.840637 101.735039,818.109863 96.650993,859.993408 
	C90.529144,817.915222 83.783020,771.546082 77.011200,725.000305 
	C70.942619,725.000305 65.449409,724.787048 59.994297,725.148682 
	C58.610641,725.240417 56.481621,726.967346 56.185837,728.279114 
	C55.114433,733.030579 54.661392,737.922852 54.003750,742.765930 
	C52.621937,752.942200 51.387112,763.140381 49.853882,773.293579 
	C48.033978,785.345337 45.768410,797.331543 44.054127,809.397034 
	C42.149139,822.804749 40.693302,836.275635 38.940552,849.705811 
	C38.469223,853.317322 37.629410,856.880737 37.016430,860.157776 
	C31.972612,815.205078 26.924837,770.217041 21.851368,725.000000 
	C14.615091,725.000000 7.807546,725.000000 1.000000,725.000000 
	C1.000000,483.761230 1.000000,242.522430 1.000000,1.000000 
	C131.354095,1.000000 261.708374,1.000000 392.414520,1.352048 
	C392.303070,1.884960 391.426544,2.090452 391.435669,2.243155 
	C391.912750,10.247854 392.476135,18.247343 393.003876,26.249130 
	C393.239044,29.815287 395.514526,30.170042 398.433624,30.031309 
	C407.308899,29.609505 416.191437,29.093861 425.070404,29.107023 
	C429.137482,29.113052 430.202576,27.728945 430.074921,23.888935 
	C429.821503,16.266884 430.000000,8.630475 430.000000,1.000000 
	C710.254822,1.000000 990.509583,1.000000 1271.000000,1.000000 
	C1271.000000,240.687515 1271.000000,480.375092 1270.554321,720.531372 
	C1267.954224,721.000000 1265.799927,721.000000 1263.592041,721.000000 
	C1260.658081,729.403992 1257.773804,737.665222 1254.744141,746.343323 
	C1251.884521,737.474182 1249.230469,729.242737 1246.642700,721.216431 
	C1243.942749,721.216431 1241.668213,721.216431 1239.229980,721.216431 
	C1239.229980,732.842773 1239.229980,744.251953 1239.229980,755.757324 
	C1240.863647,755.757324 1242.257202,755.757324 1244.065430,755.757324 
	C1244.065430,747.896790 1244.065430,740.263245 1244.065430,731.212097 
	C1246.670044,739.520874 1248.724121,746.440552 1251.086914,753.253235 
	C1251.486206,754.404663 1253.298096,755.901672 1254.309204,755.797668 
	C1255.625366,755.662231 1257.456055,754.332214 1257.916382,753.090515 
	C1260.686279,745.619019 1263.127319,738.025574 1265.678467,730.472961 
	C1265.843140,730.489929 1266.007935,730.506836 1266.172607,730.523804 
	C1266.172607,738.976257 1266.172607,747.428772 1266.172607,756.000000 
	C1268.007080,756.000000 1269.503540,756.000000 1271.000000,756.000000 
	C1271.000000,804.913452 1271.000000,853.826843 1271.000000,903.000000 
	C1237.646240,903.000000 1204.291748,903.000000 1170.620605,902.672852 
	C1174.621460,899.759399 1178.938965,897.173096 1182.856445,894.826477 
	C1183.223511,896.278320 1183.809204,898.595032 1184.337891,900.686340 
	C1190.430908,900.686340 1196.022583,900.686340 1201.620728,900.686340 
	C1201.780396,899.916321 1201.963867,899.444397 1201.964111,898.972412 
	C1201.984741,863.977234 1202.197510,828.979980 1201.839111,793.988586 
	C1201.759155,786.179260 1199.904297,778.239868 1193.823364,772.370239 
	C1184.089844,762.974854 1172.075562,763.261414 1160.115356,765.537781 
	C1141.489746,769.082886 1136.042725,788.985962 1138.732788,802.757202 
	C1144.662109,802.757202 1150.600830,802.757202 1156.774048,802.757202 
	C1157.203613,799.319824 1157.599976,796.082825 1158.014038,792.848083 
	C1158.843018,786.371277 1163.148804,781.923218 1169.433838,781.036560 
	C1173.503906,780.462280 1180.074341,784.032043 1180.533325,788.347229 
	C1181.677368,799.100159 1181.920288,809.948914 1182.509766,820.489929 
	C1175.911499,821.074524 1170.586304,821.160706 1165.408936,822.080261 
	C1151.991455,824.463196 1141.707275,830.800049 1136.699707,844.455994 
	C1133.079102,854.328979 1133.337646,864.458191 1134.285278,874.359070 
	C1135.467285,886.710205 1140.053589,897.851379 1153.000000,903.000000 
	C1107.312500,903.000000 1061.624878,903.000000 1015.629272,902.667053 
	C1023.501526,900.763245 1029.634399,895.907349 1033.340576,888.884216 
	C1038.486328,879.133606 1038.866089,868.283142 1037.675293,857.517700 
	C1036.591919,847.722778 1032.358154,839.105774 1024.933838,832.687012 
	C1019.015442,827.570129 1012.364014,823.235168 1005.748413,819.006104 
	C996.016785,812.785278 991.398438,804.434692 992.937805,792.743774 
	C993.637146,787.432617 997.112732,782.964966 1002.214417,781.993042 
	C1008.846680,780.729553 1012.641724,782.500488 1015.069763,788.566833 
	C1016.138306,791.236633 1016.649536,794.210754 1016.928650,797.093689 
	C1017.239990,800.309021 1017.000000,803.577820 1017.000000,806.686035 
	C1023.760071,806.686035 1029.687866,806.686035 1035.998413,806.686035 
	C1035.998413,801.911499 1036.413330,797.395752 1035.914429,792.983337 
	C1034.779663,782.948608 1032.181885,773.348267 1022.321228,768.219910 
	C1015.388306,764.614136 1007.907532,764.233337 999.984436,764.769592 
	C986.973083,765.650208 976.977356,773.857666 974.276123,786.643738 
	C970.899658,802.625854 972.376831,817.675476 985.763062,829.166199 
	C991.358765,833.969604 997.161621,838.649719 1003.375122,842.589600 
	C1014.573547,849.690125 1019.373413,859.474670 1018.025269,872.566711 
	C1017.253174,880.064758 1012.977722,885.539734 1007.331909,886.017822 
	C997.190125,886.876526 993.449097,883.539001 991.150696,874.711304 
	C990.015259,870.350281 989.971069,865.705200 989.446350,861.299622 
	C982.931702,861.299622 976.670898,861.299622 969.995483,861.299622 
	C970.074036,872.994446 969.644287,884.712158 978.129150,893.606689 
	C982.054688,897.721741 987.980835,899.928223 993.000000,903.000000 
	C969.979126,903.000000 946.958191,903.000000 923.606445,902.678345 
	C927.097046,899.866699 930.918396,897.376648 935.006042,894.713135 
	C935.489075,896.542236 936.044556,898.645813 936.558411,900.591797 
	C942.731445,900.591797 948.772766,900.591797 954.000000,900.591797 
	C954.000000,896.570923 954.000000,892.978943 954.000000,889.386963 
	C954.000000,859.390076 954.040466,829.393127 953.954346,799.396484 
	C953.942078,795.128174 953.624512,790.809387 952.913330,786.604370 
	C951.028198,775.457703 944.437988,768.016235 933.525879,765.463989 
	C928.265137,764.233582 922.512024,764.895264 916.990112,765.032288 
	C896.070068,765.551025 888.058533,785.968811 890.819031,802.684204 
	C897.106262,802.684204 903.369263,802.684204 910.004761,802.684204 
	C910.004761,799.407349 909.847046,796.425171 910.036438,793.465149 
	C910.480530,786.526001 915.214661,781.613281 921.820190,781.014160 
	C926.978760,780.546326 932.229675,783.870605 932.901367,790.484375 
	C933.910217,800.418762 933.164001,810.531433 933.164001,820.597839 
	C928.684143,821.048584 923.931152,821.373840 919.224548,822.031128 
	C908.286316,823.558716 898.573975,827.389893 892.354919,837.266785 
	C886.779968,846.120605 885.656250,855.957397 885.983521,866.143066 
	C886.476074,881.470398 889.252563,895.567139 905.000000,903.000000 
	C866.979126,903.000000 828.958191,903.000000 790.634521,902.664673 
	C802.190247,900.313354 807.421448,891.635498 809.787659,881.313721 
	C811.755493,872.729309 812.898621,863.740784 812.822937,854.944885 
	C812.630493,832.571167 814.670166,810.126343 811.041809,787.825073 
	C808.181091,770.241760 793.335754,760.051636 775.598816,765.972717 
	C770.749451,767.591492 766.504333,771.020325 761.739685,773.757690 
	C761.739685,755.224609 761.739685,736.196655 761.739685,717.321777 
	C754.891907,717.321777 748.628235,717.321777 742.395020,717.321777 
	C742.395020,778.686768 742.395020,839.729126 742.395020,900.710938 
	C748.394531,900.710938 753.994995,900.710938 760.019714,900.710938 
	C760.019714,897.564087 760.019714,894.693298 760.019714,891.822510 
	C763.218628,897.688660 768.526550,900.444885 774.000000,903.000000 
M273.964600,459.928436 
	C273.964600,504.502686 273.964600,549.076904 273.964600,594.000000 
	C276.870483,594.000000 279.012695,594.000000 281.154907,594.000000 
	C406.607727,594.000000 532.060547,593.999207 657.513367,594.006042 
	C659.676880,594.006165 661.840393,594.097168 663.706177,594.772339 
	C660.996826,596.201965 658.126404,597.408447 655.666687,599.183960 
	C654.822754,599.793152 654.280273,602.305237 654.829163,603.135986 
	C663.016785,615.529602 672.799805,626.117737 687.859680,630.731628 
	C691.347839,622.056763 694.820801,613.419495 697.895325,605.773193 
	C692.861816,601.563293 688.429077,597.855835 684.927856,594.035522 
	C719.903381,594.029297 754.878906,594.023071 790.132263,594.647888 
	C794.314636,599.552979 798.497009,604.458130 802.862244,609.577698 
	C808.656616,604.051025 813.978271,598.975159 820.196411,593.979187 
	C942.557434,593.979187 1064.918457,593.979187 1187.582153,593.979187 
	C1187.197998,592.769531 1187.122070,592.077576 1186.788940,591.547058 
	C1171.400879,567.034546 1155.439453,542.859863 1140.786499,517.916321 
	C1131.808960,502.633850 1123.625854,486.642181 1117.241699,470.135254 
	C1107.518188,444.994232 1107.550537,417.925232 1105.066040,391.444794 
	C1104.001221,380.096832 1103.926270,368.656525 1102.883545,357.305756 
	C1102.286377,350.805847 1102.013550,343.713867 1099.185669,338.102600 
	C1093.903320,327.621246 1087.010376,317.928925 1080.510498,308.091339 
	C1075.654785,300.742462 1068.707520,294.560822 1067.625854,285.170502 
	C1066.289062,273.564270 1065.328979,261.914215 1063.952515,250.313202 
	C1063.040649,242.628174 1061.450806,235.125473 1056.861328,228.536285 
	C1049.529053,218.009064 1042.248291,207.438583 1035.251343,196.687393 
	C1029.670166,188.111374 1025.042480,179.243973 1024.775391,168.420517 
	C1024.625244,162.332993 1022.800598,156.132278 1020.834778,150.283569 
	C1018.437683,143.151825 1008.833801,137.383606 1002.284424,139.264435 
	C998.450867,140.365356 995.873047,139.036636 993.053711,137.454880 
	C987.060486,134.092484 984.108704,128.383072 981.983032,122.216064 
	C976.990967,107.732727 967.259888,97.908142 952.488159,94.178032 
	C936.763977,90.207397 920.804382,87.106277 904.858704,84.096535 
	C893.735779,81.997070 882.503540,80.278580 871.243225,79.173500 
	C863.579590,78.421387 855.685547,78.387360 848.687744,82.837624 
	C843.839050,85.921127 839.215088,89.543259 834.012817,91.844574 
	C824.997559,95.832581 815.255127,97.804718 805.989441,93.249580 
	C786.912720,83.871269 768.255432,73.641357 749.208740,64.199356 
	C743.436707,61.338020 737.595581,58.777386 730.477417,58.809383 
	C664.661743,59.105213 598.843994,58.945801 532.698853,58.377640 
	C531.877014,58.317768 531.055237,58.257893 529.277039,58.049683 
	C451.012726,58.033123 372.748413,58.017708 294.484100,57.994011 
	C292.321625,57.993355 290.159180,57.903721 288.306702,57.219574 
	C290.198273,56.447468 292.089844,55.675362 294.098206,54.855583 
	C290.128754,45.886906 286.364990,37.382942 282.344360,28.298668 
	C270.445038,34.368134 259.011597,40.199982 247.603699,46.018784 
	C249.719894,50.263603 251.361954,53.557373 252.072418,56.964340 
	C172.227188,56.964340 92.381958,56.964340 12.132039,56.964340 
	C11.807421,59.162708 11.119015,61.888874 11.046896,64.631248 
	C10.619219,80.894104 10.325446,97.160553 10.003926,113.426125 
	C9.659372,130.857071 9.339781,148.288513 8.998393,165.719528 
	C8.673307,182.318130 8.312535,198.916046 8.006832,215.514999 
	C7.649004,234.944244 7.367434,254.374924 6.988783,273.803741 
	C6.713961,287.905151 6.305705,302.003906 6.010081,316.104950 
	C5.644657,333.535461 5.251420,350.966064 5.028879,368.398651 
	C4.877953,380.221375 4.990561,392.047607 5.011345,403.872192 
	C5.014158,405.471924 5.169061,407.071350 5.327149,410.064636 
	C26.457787,410.064636 47.195450,410.064636 68.200447,410.727722 
	C72.208580,418.229248 76.216713,425.730743 80.342842,433.453094 
	C88.655083,427.894928 96.404091,422.713348 104.249718,417.467163 
	C103.053619,415.142334 102.025848,413.144684 101.929184,411.035217 
	C110.539154,411.356812 119.147316,411.742950 127.759514,411.985229 
	C141.534439,412.372742 155.311508,412.688995 169.088638,412.991119 
	C185.531021,413.351746 201.973312,413.747070 218.417786,413.971466 
	C229.415024,414.121552 240.419785,413.824249 251.413971,414.061432 
	C258.812164,414.221008 266.197754,414.964294 273.851654,415.463593 
	C273.851654,418.076447 273.851654,420.540344 273.132568,422.999786 
	C272.636505,423.025452 271.988312,422.855377 271.666656,423.105438 
	C263.565613,429.402344 255.458084,435.693237 247.497803,442.164917 
	C246.804825,442.728302 246.564438,444.851044 247.055954,445.710999 
	C251.184647,452.934601 255.533432,460.032440 260.195099,467.799896 
	C264.971741,464.720978 269.411957,461.858948 273.964600,459.928436 
M557.000000,741.501953 
	C557.000000,794.577698 557.000000,847.653503 557.000000,900.725586 
	C563.678101,900.725586 569.606262,900.725586 575.500000,900.725586 
	C575.500000,856.931458 575.500000,813.411743 575.500000,769.502197 
	C580.404114,787.666626 585.220520,805.453430 590.007202,823.248291 
	C596.712952,848.177734 603.371521,873.120056 610.169739,898.024231 
	C610.483154,899.172302 611.935791,900.814636 612.906494,900.848877 
	C619.828125,901.093262 626.762390,900.979187 633.585571,900.979187 
	C633.585571,841.933044 633.585571,783.561157 633.585571,725.315735 
	C627.237854,725.315735 621.309509,725.315735 615.500000,725.315735 
	C615.500000,768.856628 615.500000,812.080322 615.500000,856.023987 
	C614.747314,852.607666 614.243164,849.778076 613.496094,847.014160 
	C607.570618,825.090820 601.614502,803.175720 595.636536,781.266663 
	C590.776855,763.456055 585.907288,745.647827 580.910583,727.875610 
	C580.597046,726.760498 579.165527,725.182068 578.209229,725.149841 
	C571.277161,724.915894 564.333496,725.024170 557.000000,725.024170 
	C557.000000,730.570923 557.000000,735.537231 557.000000,741.501953 
M1113.569336,901.000000 
	C1117.838013,901.000000 1122.106689,901.000000 1126.628906,901.000000 
	C1126.125488,899.304932 1125.789307,898.038208 1125.374878,896.797607 
	C1116.972168,871.645996 1108.596680,846.485168 1100.111084,821.361511 
	C1098.874023,817.699097 1098.883667,814.551697 1100.899414,811.041321 
	C1105.804443,802.499451 1110.385132,793.767700 1114.957520,785.039551 
	C1117.993774,779.243469 1120.790283,773.321716 1123.917358,767.005066 
	C1117.302490,767.005066 1111.327148,766.889343 1105.363770,767.104858 
	C1104.201904,767.146851 1102.547485,768.210083 1102.032959,769.252686 
	C1096.579956,780.302124 1091.296265,791.435425 1085.997925,802.560852 
	C1082.228027,810.476624 1078.507080,818.415649 1074.764282,826.344299 
	C1074.477661,826.272949 1074.191162,826.201538 1073.904541,826.130127 
	C1073.904541,789.919312 1073.904541,753.708496 1073.904541,717.338379 
	C1067.430298,717.338379 1061.384277,717.338379 1055.414307,717.338379 
	C1055.414307,778.721985 1055.414307,839.766296 1055.414307,900.683472 
	C1061.762573,900.683472 1067.691650,900.683472 1074.000000,900.683472 
	C1074.000000,889.902893 1075.005493,879.311462 1073.744507,868.997070 
	C1072.183594,856.227783 1079.731079,847.510559 1084.717896,836.798706 
	C1085.379883,838.063110 1085.769653,838.596008 1085.954956,839.192444 
	C1091.626099,857.455322 1097.583008,875.638611 1102.751953,894.042969 
	C1104.382202,899.847656 1106.928467,902.055786 1113.569336,901.000000 
M285.865997,767.360229 
	C279.161102,764.365845 272.250092,763.358459 264.999176,764.987427 
	C257.875427,766.587830 252.130707,770.164124 248.463531,776.645447 
	C247.895187,773.257874 247.389206,770.242004 246.891037,767.272766 
	C240.427231,767.272766 234.334961,767.272766 228.722763,767.272766 
	C228.722763,811.889954 228.722763,856.240784 228.722763,900.751709 
	C235.511597,900.751709 241.576218,900.751709 248.000000,900.751709 
	C248.000000,898.711426 248.000000,896.914612 248.000000,895.117737 
	C248.000000,867.119751 247.822357,839.119812 248.136841,811.125366 
	C248.207077,804.873901 249.539276,798.520264 251.127640,792.432068 
	C253.032654,785.130188 258.604004,782.423828 268.360107,783.000610 
	C273.225586,783.288391 276.524231,786.845825 277.977692,793.667786 
	C278.516724,796.197815 278.951782,798.809326 278.957214,801.384644 
	C279.023132,832.715576 279.000000,864.046692 279.000000,895.377747 
	C279.000000,897.150635 279.000000,898.923584 279.000000,900.701904 
	C285.947723,900.701904 292.347137,900.701904 299.000000,900.701904 
	C299.000000,872.097168 299.080475,843.789490 298.954071,815.482666 
	C298.912720,806.228699 298.778931,796.932800 297.865784,787.737671 
	C297.062683,779.650452 294.047455,772.301453 285.865997,767.360229 
M543.936646,788.116882 
	C543.936646,780.498535 543.936646,772.880127 543.936646,765.305481 
	C532.241943,764.370911 525.478149,768.883728 515.929688,784.086304 
	C515.929688,778.017761 515.929688,772.660828 515.929688,767.288574 
	C509.402893,767.288574 503.339539,767.288574 497.300598,767.288574 
	C497.300598,811.966980 497.300598,856.356018 497.300598,900.675293 
	C504.005066,900.675293 510.404785,900.675293 517.000000,900.675293 
	C517.000000,875.375366 516.950378,850.399292 517.045044,825.423828 
	C517.062378,820.840271 517.477295,816.235962 518.033936,811.680969 
	C519.719116,797.890930 529.456543,789.246948 543.936646,788.116882 
M852.000000,844.500000 
	C852.333923,833.902039 852.033447,823.234314 853.188416,812.726624 
	C854.247681,803.089233 858.539734,794.693665 868.456299,790.952820 
	C872.038696,789.601379 875.951172,789.125122 879.739075,788.243408 
	C879.739075,780.653320 879.739075,773.057007 879.739075,764.998413 
	C866.577209,764.755798 858.017090,771.114319 852.473999,782.774963 
	C851.880676,777.179504 851.354553,772.218018 850.827820,767.250244 
	C844.360046,767.250244 838.431213,767.250244 832.915649,767.250244 
	C832.915649,811.939209 832.915649,856.378479 832.915649,900.685303 
	C839.763000,900.685303 845.689880,900.685303 852.000000,900.685303 
	C852.000000,882.082153 852.000000,863.791077 852.000000,844.500000 
M113.545647,454.954376 
	C111.587730,457.308807 109.629814,459.663239 106.882553,462.966858 
	C119.653786,469.889984 131.759888,476.452545 144.249664,483.223083 
	C147.851501,473.062439 150.953171,464.312714 153.772888,456.358398 
	C144.712860,451.063690 136.112595,445.976837 127.419899,441.053192 
	C126.564468,440.568634 124.569542,440.613037 124.074409,441.213074 
	C120.558929,445.473541 117.296516,449.942841 113.545647,454.954376 
M464.938019,19.307108 
	C463.865479,23.657421 462.792938,28.007736 461.943420,31.453499 
	C471.614838,36.267075 480.641235,40.759621 490.156006,45.495247 
	C495.451965,38.780975 501.281311,31.390484 507.367035,23.674906 
	C495.615997,14.712008 482.800323,8.617335 468.235535,4.617749 
	C467.104889,9.442320 466.049286,13.946832 464.938019,19.307108 
M742.933228,608.571594 
	C737.775574,609.233215 732.617859,609.894836 727.792603,610.513794 
	C727.792603,619.882385 727.792603,629.335693 727.792603,639.105408 
	C742.527344,638.040894 756.151855,635.913635 769.256226,629.584534 
	C765.608215,621.000427 762.041565,612.607788 758.335815,603.888000 
	C753.460205,605.274963 748.546387,606.672852 742.933228,608.571594 
M342.830231,38.047775 
	C348.509155,36.950050 354.188049,35.852325 360.250610,34.680443 
	C358.658813,25.925438 357.249878,17.487095 355.435120,9.136962 
	C355.227081,8.179760 352.562958,6.880366 351.357025,7.152929 
	C340.522430,9.601753 329.747681,12.322576 319.001678,15.140216 
	C318.294434,15.325659 317.337280,17.148411 317.559479,17.891754 
	C320.077240,26.313875 322.802582,34.673939 325.519958,43.200096 
	C331.273895,41.539085 336.670441,39.981236 342.830231,38.047775 
M189.253128,460.936127 
	C187.635223,460.936127 186.017319,460.936127 184.241989,460.936127 
	C184.241989,470.481476 184.241989,479.556091 184.241989,488.937836 
	C198.261932,489.398163 211.598724,487.167145 224.885696,483.296722 
	C222.065948,473.735901 219.423492,464.776215 217.064926,456.779144 
	C207.368546,458.098450 198.702591,459.277527 189.253128,460.936127 
M1227.058105,748.575867 
	C1222.970093,753.766907 1218.274658,752.520264 1214.583130,745.186890 
	C1212.834839,745.186890 1211.042847,745.186890 1208.603516,745.186890 
	C1209.805542,747.828491 1210.564209,750.272949 1211.921387,752.320740 
	C1215.013306,756.986267 1219.993408,756.218933 1224.535522,755.919250 
	C1228.207031,755.677002 1231.446777,754.111572 1232.882324,750.300232 
	C1234.423828,746.207520 1234.515991,742.044250 1230.667969,739.353210 
	C1227.434204,737.091736 1223.409302,735.988708 1220.033447,733.891602 
	C1218.355835,732.849365 1217.105957,730.841797 1216.235718,729.000183 
	C1216.051392,728.610046 1218.379028,726.178650 1219.522583,726.198914 
	C1221.693604,726.237305 1225.084961,726.763367 1225.767090,728.161438 
	C1227.638550,731.996765 1230.115112,731.018677 1232.972656,730.637024 
	C1231.339355,723.500671 1229.649292,720.550415 1219.552368,721.018982 
	C1214.045044,721.274475 1211.439697,723.448242 1210.442505,729.213440 
	C1209.693481,733.543579 1211.933350,736.657654 1215.892334,738.383850 
	C1218.246216,739.410217 1220.781616,740.024475 1223.122925,741.074463 
	C1226.014526,742.371277 1228.806152,743.917603 1227.058105,748.575867 
z"/>
<path fill="#1B3767" opacity="1.000000" stroke="none" 
	d="
M1.000000,725.444153 
	C7.807546,725.000000 14.615091,725.000000 21.851368,725.000000 
	C26.924837,770.217041 31.972612,815.205078 37.016430,860.157776 
	C37.629410,856.880737 38.469223,853.317322 38.940552,849.705811 
	C40.693302,836.275635 42.149139,822.804749 44.054127,809.397034 
	C45.768410,797.331543 48.033978,785.345337 49.853882,773.293579 
	C51.387112,763.140381 52.621937,752.942200 54.003750,742.765930 
	C54.661392,737.922852 55.114433,733.030579 56.185837,728.279114 
	C56.481621,726.967346 58.610641,725.240417 59.994297,725.148682 
	C65.449409,724.787048 70.942619,725.000305 77.011200,725.000305 
	C83.783020,771.546082 90.529144,817.915222 96.650993,859.993408 
	C101.735039,818.109863 107.351433,771.840637 113.001183,725.296631 
	C119.559517,725.296631 125.980583,725.296631 133.367355,725.296631 
	C124.514160,783.832458 115.677124,842.261414 106.819885,900.823975 
	C99.599678,900.823975 92.644150,900.823975 85.309822,900.823975 
	C78.974609,856.758911 72.634636,812.660706 66.123535,767.372192 
	C65.301414,772.110657 64.574379,775.847412 64.014145,779.609009 
	C61.664452,795.385681 59.329308,811.164734 57.058067,826.952881 
	C55.318111,839.047913 53.696720,851.160034 51.995380,863.260681 
	C50.340149,875.033386 48.712780,886.811035 46.858196,898.552551 
	C46.708275,899.501770 44.919468,900.848816 43.851219,900.887756 
	C37.714668,901.111877 31.565741,900.996826 24.979485,900.996826 
	C23.629684,891.607117 22.279350,882.465698 21.009319,873.313049 
	C19.530685,862.657104 18.150393,851.987549 16.674597,841.331238 
	C15.490670,832.782349 14.236436,824.243164 12.998044,815.701843 
	C11.386343,804.585815 9.692410,793.481262 8.161014,782.354309 
	C7.003881,773.946716 6.081285,765.507202 4.989445,757.090332 
	C3.961403,749.165161 2.848490,741.250916 1.386458,733.165955 
	C1.000000,730.629456 1.000000,728.258850 1.000000,725.444153 
z"/>
<path fill="#1B3767" opacity="1.000000" stroke="none" 
	d="
M338.467957,903.000000 
	C323.737427,897.488770 319.556854,885.277649 319.197052,871.917603 
	C318.515747,846.619019 318.648224,821.282043 319.147491,795.974976 
	C319.399536,783.198914 326.174835,768.972717 339.782867,765.685120 
	C350.530701,763.088562 360.559662,764.126343 369.816467,771.921265 
	C369.816467,753.535645 369.816467,735.546570 369.816467,717.281250 
	C376.686615,717.281250 383.082184,717.281250 389.740448,717.281250 
	C389.740448,778.374878 389.740448,839.411926 389.740448,900.724609 
	C383.621490,900.724609 377.545776,900.724609 371.396271,900.724609 
	C370.844360,897.950073 370.294983,895.188232 369.989990,893.654968 
	C365.549591,896.445679 360.893555,899.371948 356.118744,902.649048 
	C350.311951,903.000000 344.623932,903.000000 338.467957,903.000000 
M370.000000,856.386047 
	C369.666595,836.824646 369.683228,817.247986 368.826599,797.709473 
	C368.486572,789.953674 364.215027,783.605713 356.613770,783.006775 
	C346.284485,782.192749 342.436218,784.937622 339.986877,795.247681 
	C339.129608,798.856079 338.448822,802.602539 338.411926,806.293213 
	C338.234436,824.060242 338.179108,841.830994 338.366669,859.597412 
	C338.419647,864.615845 339.176208,869.672668 340.090149,874.623352 
	C341.029114,879.709167 346.005035,884.559326 350.000214,884.997864 
	C357.642487,885.836853 363.426392,883.696106 365.542786,877.601624 
	C367.794403,871.117737 368.576355,864.123535 370.000000,856.386047 
z"/>
<path fill="#D6AD42" opacity="1.000000" stroke="none" 
	d="
M774.466858,903.000000 
	C768.526550,900.444885 763.218628,897.688660 760.019714,891.822510 
	C760.019714,894.693298 760.019714,897.564087 760.019714,900.710938 
	C753.994995,900.710938 748.394531,900.710938 742.395020,900.710938 
	C742.395020,839.729126 742.395020,778.686768 742.395020,717.321777 
	C748.628235,717.321777 754.891907,717.321777 761.739685,717.321777 
	C761.739685,736.196655 761.739685,755.224609 761.739685,773.757690 
	C766.504333,771.020325 770.749451,767.591492 775.598816,765.972717 
	C793.335754,760.051636 808.181091,770.241760 811.041809,787.825073 
	C814.670166,810.126343 812.630493,832.571167 812.822937,854.944885 
	C812.898621,863.740784 811.755493,872.729309 809.787659,881.313721 
	C807.421448,891.635498 802.190247,900.313354 790.165894,902.664673 
	C784.977905,903.000000 779.955811,903.000000 774.466858,903.000000 
M762.012756,868.137512 
	C763.353943,871.800964 764.260864,875.703979 766.123047,879.080078 
	C770.575684,887.152405 784.873413,887.218445 787.973877,879.527161 
	C790.305603,873.742981 792.582703,867.486572 792.775635,861.373840 
	C793.384216,842.093262 793.262573,822.775269 792.821777,803.485535 
	C792.706543,798.441467 790.846802,793.267456 788.912048,788.509338 
	C788.000000,786.266296 785.285278,783.931030 782.922729,783.250488 
	C774.160645,780.726501 766.535950,784.899414 764.104248,793.714355 
	C762.465332,799.655273 761.181702,805.914246 761.152222,812.037720 
	C761.063721,830.441589 761.667786,848.848816 762.012756,868.137512 
z"/>
<path fill="#1B3767" opacity="1.000000" stroke="none" 
	d="
M156.467606,903.000000 
	C141.790131,897.224915 137.313721,885.366272 137.140274,871.444519 
	C137.034668,862.969238 137.216248,854.210571 139.202179,846.049683 
	C142.832474,831.131592 155.720963,823.378479 170.179718,821.994690 
	C174.909500,821.541992 179.633896,821.033020 185.442871,820.439148 
	C184.935883,810.411804 184.759644,800.050903 183.742844,789.773132 
	C183.248917,784.780701 177.936539,781.217407 172.806564,781.002441 
	C168.216614,780.810120 163.403305,784.122192 162.033356,788.994507 
	C160.812958,793.334900 160.163284,797.835754 159.175049,802.691772 
	C153.743134,802.691772 147.667145,802.691772 141.580139,802.691772 
	C138.761475,788.344910 144.790619,771.664856 158.231537,766.998718 
	C170.742386,762.655579 183.226685,762.681091 194.493240,770.340881 
	C200.718918,774.573486 203.662308,781.870667 203.800690,788.969666 
	C204.523438,826.046814 204.603271,863.136536 204.890701,900.221985 
	C204.891556,900.330750 204.657516,900.441284 204.026794,900.997375 
	C199.449829,900.997375 194.317703,901.180176 189.204422,900.947937 
	C183.687576,900.697327 187.056335,896.069580 186.148148,894.376282 
	C181.923996,896.968323 177.579483,899.634216 173.117493,902.650024 
	C167.645065,903.000000 162.290146,903.000000 156.467606,903.000000 
M158.914062,847.537659 
	C154.411057,855.687988 155.321701,864.515015 156.675247,873.008606 
	C158.499146,884.453552 164.300812,885.647766 169.890884,885.853149 
	C176.656799,886.101807 183.148193,880.335571 183.769699,872.244629 
	C184.660721,860.645203 183.996902,848.926392 183.996902,836.976074 
	C174.725357,837.137451 165.052353,837.083130 158.914062,847.537659 
z"/>
<path fill="#D6AD42" opacity="1.000000" stroke="none" 
	d="
M1153.467529,903.000000 
	C1140.053589,897.851379 1135.467285,886.710205 1134.285278,874.359070 
	C1133.337646,864.458191 1133.079102,854.328979 1136.699707,844.455994 
	C1141.707275,830.800049 1151.991455,824.463196 1165.408936,822.080261 
	C1170.586304,821.160706 1175.911499,821.074524 1182.509766,820.489929 
	C1181.920288,809.948914 1181.677368,799.100159 1180.533325,788.347229 
	C1180.074341,784.032043 1173.503906,780.462280 1169.433838,781.036560 
	C1163.148804,781.923218 1158.843018,786.371277 1158.014038,792.848083 
	C1157.599976,796.082825 1157.203613,799.319824 1156.774048,802.757202 
	C1150.600830,802.757202 1144.662109,802.757202 1138.732788,802.757202 
	C1136.042725,788.985962 1141.489746,769.082886 1160.115356,765.537781 
	C1172.075562,763.261414 1184.089844,762.974854 1193.823364,772.370239 
	C1199.904297,778.239868 1201.759155,786.179260 1201.839111,793.988586 
	C1202.197510,828.979980 1201.984741,863.977234 1201.964111,898.972412 
	C1201.963867,899.444397 1201.780396,899.916321 1201.620728,900.686340 
	C1196.022583,900.686340 1190.430908,900.686340 1184.337891,900.686340 
	C1183.809204,898.595032 1183.223511,896.278320 1182.856445,894.826477 
	C1178.938965,897.173096 1174.621460,899.759399 1170.151855,902.672852 
	C1164.645020,903.000000 1159.290161,903.000000 1153.467529,903.000000 
M1178.122925,879.537231 
	C1179.620361,874.284241 1181.983276,869.102051 1182.419922,863.762329 
	C1183.140137,854.954895 1182.615356,846.045593 1182.615356,837.001160 
	C1179.875000,837.001160 1177.550781,836.932861 1175.231567,837.012878 
	C1164.298096,837.390320 1155.198486,843.675110 1154.182251,852.541809 
	C1153.407837,859.298462 1153.647217,866.235657 1154.100342,873.048401 
	C1154.464233,878.519226 1157.189697,883.165649 1162.743042,884.904724 
	C1168.638428,886.750732 1174.050781,885.690369 1178.122925,879.537231 
z"/>
<path fill="#D6AD42" opacity="1.000000" stroke="none" 
	d="
M905.467957,903.000000 
	C889.252563,895.567139 886.476074,881.470398 885.983521,866.143066 
	C885.656250,855.957397 886.779968,846.120605 892.354919,837.266785 
	C898.573975,827.389893 908.286316,823.558716 919.224548,822.031128 
	C923.931152,821.373840 928.684143,821.048584 933.164001,820.597839 
	C933.164001,810.531433 933.910217,800.418762 932.901367,790.484375 
	C932.229675,783.870605 926.978760,780.546326 921.820190,781.014160 
	C915.214661,781.613281 910.480530,786.526001 910.036438,793.465149 
	C909.847046,796.425171 910.004761,799.407349 910.004761,802.684204 
	C903.369263,802.684204 897.106262,802.684204 890.819031,802.684204 
	C888.058533,785.968811 896.070068,765.551025 916.990112,765.032288 
	C922.512024,764.895264 928.265137,764.233582 933.525879,765.463989 
	C944.437988,768.016235 951.028198,775.457703 952.913330,786.604370 
	C953.624512,790.809387 953.942078,795.128174 953.954346,799.396484 
	C954.040466,829.393127 954.000000,859.390076 954.000000,889.386963 
	C954.000000,892.978943 954.000000,896.570923 954.000000,900.591797 
	C948.772766,900.591797 942.731445,900.591797 936.558411,900.591797 
	C936.044556,898.645813 935.489075,896.542236 935.006042,894.713135 
	C930.918396,897.376648 927.097046,899.866699 923.137817,902.678345 
	C917.311951,903.000000 911.623962,903.000000 905.467957,903.000000 
M933.604553,871.857849 
	C934.264221,860.367920 934.923889,848.877991 935.605713,837.001953 
	C932.198730,837.001953 930.036194,836.805603 927.919739,837.034424 
	C915.865906,838.337708 907.420898,841.745178 906.046631,855.673462 
	C905.489990,861.315430 905.554077,867.103882 906.110291,872.749390 
	C906.851562,880.273315 912.967468,886.080139 919.114746,885.978088 
	C926.272766,885.859192 931.930542,880.450195 933.604553,871.857849 
z"/>
<path fill="#1B3767" opacity="1.000000" stroke="none" 
	d="
M433.468567,903.000000 
	C428.867889,900.699402 424.348114,898.889587 420.684540,895.995789 
	C413.123383,890.023132 410.563721,881.064026 410.194153,872.156738 
	C409.272644,849.945068 408.770569,827.681030 409.226532,805.461121 
	C409.471680,793.515320 411.347900,781.389832 421.042999,772.420959 
	C426.011322,767.824829 431.788940,765.168579 438.534485,765.049072 
	C444.002258,764.952087 449.669250,764.432434 454.912262,765.603149 
	C468.257935,768.583191 475.454620,778.564697 476.651642,791.103760 
	C478.108032,806.359497 476.997742,821.860291 476.997742,837.698486 
	C461.835938,837.698486 445.777466,837.698486 428.811707,837.698486 
	C430.216858,851.593506 426.161072,865.364014 432.191711,878.431580 
	C435.284882,885.133911 440.655457,887.413635 448.632172,885.985229 
	C453.031647,885.197449 457.427124,879.273010 458.013977,873.485168 
	C458.376801,869.906555 458.885162,866.342712 459.378021,862.370239 
	C465.145905,862.370239 471.210785,862.370239 477.315216,862.370239 
	C479.764862,877.846924 473.328308,898.886658 455.126862,902.642395 
	C447.979034,903.000000 440.958099,903.000000 433.468567,903.000000 
M429.000000,805.591797 
	C429.000000,811.011597 429.000000,816.431335 429.000000,821.643921 
	C439.413361,821.643921 449.140442,821.643921 459.979065,821.643921 
	C458.955139,810.932007 458.405121,800.601562 456.821381,790.432068 
	C455.956726,784.880066 450.945404,781.883850 444.872559,781.450500 
	C439.680328,781.079956 433.713959,784.117249 432.136719,789.011658 
	C430.519165,794.031128 429.999939,799.404602 429.000000,805.591797 
z"/>
<path fill="#D6AD42" opacity="1.000000" stroke="none" 
	d="
M678.468506,903.000000 
	C672.147522,900.359436 665.287537,898.904724 662.173157,892.536438 
	C659.341309,886.745850 655.587097,880.617493 655.316528,874.501831 
	C654.229553,849.934021 653.725403,825.300049 654.258362,800.717712 
	C654.529419,788.214600 658.375061,775.916809 670.450684,769.211426 
	C689.806091,758.463806 718.950867,764.021484 721.764038,793.460938 
	C723.145508,807.917114 722.003540,822.614441 722.003540,837.796570 
	C706.401306,837.796570 690.014771,837.796570 672.608948,837.796570 
	C673.061646,846.941528 673.640747,855.466858 673.854553,864.001343 
	C674.014099,870.371399 674.770813,876.341187 678.834900,881.677124 
	C683.650452,887.999756 696.764709,887.865479 699.868774,880.630005 
	C702.253601,875.070862 702.816589,868.730164 704.294800,862.278564 
	C709.712280,862.278564 715.972595,862.278564 722.234741,862.275757 
	C723.379822,879.589783 718.553284,898.499695 699.166077,902.664551 
	C692.312378,903.000000 685.624695,903.000000 678.468506,903.000000 
M679.557434,784.953552 
	C678.364380,786.872314 676.361938,788.692749 676.114746,790.726501 
	C674.874634,800.931824 674.093506,811.192932 673.129639,821.668213 
	C684.255493,821.668213 693.951355,821.668213 704.898193,821.668213 
	C703.899597,811.285522 703.837097,801.157837 701.738953,791.471069 
	C699.615601,781.667480 688.613770,778.611023 679.557434,784.953552 
z"/>
<path fill="#D6AD42" opacity="1.000000" stroke="none" 
	d="
M993.468567,903.000000 
	C987.980835,899.928223 982.054688,897.721741 978.129150,893.606689 
	C969.644287,884.712158 970.074036,872.994446 969.995483,861.299622 
	C976.670898,861.299622 982.931702,861.299622 989.446350,861.299622 
	C989.971069,865.705200 990.015259,870.350281 991.150696,874.711304 
	C993.449097,883.539001 997.190125,886.876526 1007.331909,886.017822 
	C1012.977722,885.539734 1017.253174,880.064758 1018.025269,872.566711 
	C1019.373413,859.474670 1014.573547,849.690125 1003.375122,842.589600 
	C997.161621,838.649719 991.358765,833.969604 985.763062,829.166199 
	C972.376831,817.675476 970.899658,802.625854 974.276123,786.643738 
	C976.977356,773.857666 986.973083,765.650208 999.984436,764.769592 
	C1007.907532,764.233337 1015.388306,764.614136 1022.321228,768.219910 
	C1032.181885,773.348267 1034.779663,782.948608 1035.914429,792.983337 
	C1036.413330,797.395752 1035.998413,801.911499 1035.998413,806.686035 
	C1029.687866,806.686035 1023.760071,806.686035 1017.000000,806.686035 
	C1017.000000,803.577820 1017.239990,800.309021 1016.928650,797.093689 
	C1016.649536,794.210754 1016.138306,791.236633 1015.069763,788.566833 
	C1012.641724,782.500488 1008.846680,780.729553 1002.214417,781.993042 
	C997.112732,782.964966 993.637146,787.432617 992.937805,792.743774 
	C991.398438,804.434692 996.016785,812.785278 1005.748413,819.006104 
	C1012.364014,823.235168 1019.015442,827.570129 1024.933838,832.687012 
	C1032.358154,839.105774 1036.591919,847.722778 1037.675293,857.517700 
	C1038.866089,868.283142 1038.486328,879.133606 1033.340576,888.884216 
	C1029.634399,895.907349 1023.501526,900.763245 1015.160645,902.667053 
	C1007.979065,903.000000 1000.958069,903.000000 993.468567,903.000000 
z"/>
<path fill="#1B3767" opacity="1.000000" stroke="none" 
	d="
M429.531342,1.000000 
	C430.000000,8.630475 429.821503,16.266884 430.074921,23.888935 
	C430.202576,27.728945 429.137482,29.113052 425.070404,29.107023 
	C416.191437,29.093861 407.308899,29.609505 398.433624,30.031309 
	C395.514526,30.170042 393.239044,29.815287 393.003876,26.249130 
	C392.476135,18.247343 391.912750,10.247854 391.435669,2.243155 
	C391.426544,2.090452 392.303070,1.884960 392.883179,1.352048 
	C405.020905,1.000000 417.041779,1.000000 429.531342,1.000000 
z"/>
<path fill="#1B3767" opacity="1.000000" stroke="none" 
	d="
M1271.000000,755.531372 
	C1269.503540,756.000000 1268.007080,756.000000 1266.172607,756.000000 
	C1266.172607,747.428772 1266.172607,738.976257 1266.172607,730.523804 
	C1266.007935,730.506836 1265.843140,730.489929 1265.678467,730.472961 
	C1263.127319,738.025574 1260.686279,745.619019 1257.916382,753.090515 
	C1257.456055,754.332214 1255.625366,755.662231 1254.309204,755.797668 
	C1253.298096,755.901672 1251.486206,754.404663 1251.086914,753.253235 
	C1248.724121,746.440552 1246.670044,739.520874 1244.065430,731.212097 
	C1244.065430,740.263245 1244.065430,747.896790 1244.065430,755.757324 
	C1242.257202,755.757324 1240.863647,755.757324 1239.229980,755.757324 
	C1239.229980,744.251953 1239.229980,732.842773 1239.229980,721.216431 
	C1241.668213,721.216431 1243.942749,721.216431 1246.642700,721.216431 
	C1249.230469,729.242737 1251.884521,737.474182 1254.744141,746.343323 
	C1257.773804,737.665222 1260.658081,729.403992 1263.592041,721.000000 
	C1265.799927,721.000000 1267.954224,721.000000 1270.554321,721.000000 
	C1271.000000,732.354248 1271.000000,743.708435 1271.000000,755.531372 
z"/>
<path fill="#EBD058" opacity="1.000000" stroke="none" 
	d="
M533.026855,58.918694 
	C598.843994,58.945801 664.661743,59.105213 730.477417,58.809383 
	C737.595581,58.777386 743.436707,61.338020 749.208740,64.199356 
	C768.255432,73.641357 786.912720,83.871269 805.989441,93.249580 
	C815.255127,97.804718 824.997559,95.832581 834.012817,91.844574 
	C839.215088,89.543259 843.839050,85.921127 848.687744,82.837624 
	C855.685547,78.387360 863.579590,78.421387 871.243225,79.173500 
	C882.503540,80.278580 893.735779,81.997070 904.858704,84.096535 
	C920.804382,87.106277 936.763977,90.207397 952.488159,94.178032 
	C967.259888,97.908142 976.990967,107.732727 981.983032,122.216064 
	C984.108704,128.383072 987.060486,134.092484 993.053711,137.454880 
	C995.873047,139.036636 998.450867,140.365356 1002.284424,139.264435 
	C1008.833801,137.383606 1018.437683,143.151825 1020.834778,150.283569 
	C1022.800598,156.132278 1024.625244,162.332993 1024.775391,168.420517 
	C1025.042480,179.243973 1029.670166,188.111374 1035.251343,196.687393 
	C1042.248291,207.438583 1049.529053,218.009064 1056.861328,228.536285 
	C1061.450806,235.125473 1063.040649,242.628174 1063.952515,250.313202 
	C1065.328979,261.914215 1066.289062,273.564270 1067.625854,285.170502 
	C1068.707520,294.560822 1075.654785,300.742462 1080.510498,308.091339 
	C1087.010376,317.928925 1093.903320,327.621246 1099.185669,338.102600 
	C1102.013550,343.713867 1102.286377,350.805847 1102.883545,357.305756 
	C1103.926270,368.656525 1104.001221,380.096832 1105.066040,391.444794 
	C1107.550537,417.925232 1107.518188,444.994232 1117.241699,470.135254 
	C1123.625854,486.642181 1131.808960,502.633850 1140.786499,517.916321 
	C1155.439453,542.859863 1171.400879,567.034546 1186.788940,591.547058 
	C1187.122070,592.077576 1187.197998,592.769531 1187.582153,593.979187 
	C1064.918457,593.979187 942.557434,593.979187 819.826172,593.639221 
	C823.068726,589.452026 826.681580,585.604797 830.559387,581.475464 
	C823.339783,575.165588 816.516235,569.201904 809.931152,563.446655 
	C801.759766,571.933167 793.951355,580.042603 786.084229,588.213013 
	C787.009155,589.636780 788.431763,591.826843 789.854431,594.016846 
	C754.878906,594.023071 719.903381,594.029297 684.138794,593.958252 
	C681.408264,591.525146 679.466797,589.169250 677.587891,586.889282 
	C672.910645,589.387817 668.457275,591.766785 664.003906,594.145752 
	C661.840393,594.097168 659.676880,594.006165 657.513367,594.006042 
	C532.060547,593.999207 406.607727,594.000000 281.154907,594.000000 
	C279.012695,594.000000 276.870483,594.000000 273.964600,594.000000 
	C273.964600,549.076904 273.964600,504.502686 274.044983,459.145081 
	C279.993378,453.355682 285.861389,448.349670 291.726013,443.346558 
	C285.412872,436.161743 279.632263,429.582977 273.851654,423.004242 
	C273.851654,420.540344 273.851654,418.076447 273.851654,415.463593 
	C266.197754,414.964294 258.812164,414.221008 251.413971,414.061432 
	C240.419785,413.824249 229.415024,414.121552 218.417786,413.971466 
	C201.973312,413.747070 185.531021,413.351746 169.088638,412.991119 
	C155.311508,412.688995 141.534439,412.372742 127.759514,411.985229 
	C119.147316,411.742950 110.539154,411.356812 101.140533,410.943237 
	C96.794083,403.315613 93.236282,395.779907 89.576736,388.028687 
	C81.145630,390.487762 72.626160,392.972626 63.958363,395.500732 
	C65.363594,400.649658 66.648354,405.357147 67.933113,410.064636 
	C47.195450,410.064636 26.457787,410.064636 5.327149,410.064636 
	C5.169061,407.071350 5.014158,405.471924 5.011345,403.872192 
	C4.990561,392.047607 4.877953,380.221375 5.028879,368.398651 
	C5.251420,350.966064 5.644657,333.535461 6.010081,316.104950 
	C6.305705,302.003906 6.713961,287.905151 6.988783,273.803741 
	C7.367434,254.374924 7.649004,234.944244 8.006832,215.514999 
	C8.312535,198.916046 8.673307,182.318130 8.998393,165.719528 
	C9.339781,148.288513 9.659372,130.857071 10.003926,113.426125 
	C10.325446,97.160553 10.619219,80.894104 11.046896,64.631248 
	C11.119015,61.888874 11.807421,59.162708 12.132039,56.964340 
	C92.381958,56.964340 172.227188,56.964340 252.860687,57.047070 
	C256.548920,61.498318 259.448883,65.866837 262.411224,70.329330 
	C264.374451,69.258263 266.075226,68.228668 267.860046,67.374771 
	C274.557404,64.170631 281.282196,61.023857 287.996704,57.855579 
	C290.159180,57.903721 292.321625,57.993355 294.484100,57.994011 
	C372.748413,58.017708 451.012726,58.033123 529.548035,58.417900 
	C522.080811,62.003643 514.342529,65.221161 507.332275,68.135994 
	C509.269775,78.846848 511.086517,88.890160 512.877197,98.789505 
	C521.631104,98.789505 530.524658,98.789505 539.752991,98.789505 
	C539.629089,96.067665 539.792114,93.727966 539.375366,91.496536 
	C537.344238,80.621376 535.158142,69.775154 533.026855,58.918694 
M1057.307983,370.922607 
	C1060.658569,362.114594 1064.009155,353.306549 1067.591064,343.890503 
	C1048.377197,339.849701 1029.611572,335.903168 1009.992004,331.777039 
	C1013.878601,339.407410 1017.372803,346.267395 1021.076843,353.539429 
	C1015.638611,354.896149 1010.736389,356.119171 1005.589722,357.403198 
	C1007.220642,366.509247 1008.764832,375.130646 1010.471436,384.659149 
	C1017.376099,382.968506 1024.008667,381.666046 1030.412231,379.640015 
	C1033.580933,378.637421 1034.821411,379.421021 1036.135010,382.110657 
	C1039.079712,388.140503 1042.293579,394.038910 1045.945923,401.041840 
	C1049.928467,390.500549 1053.487793,381.079041 1057.307983,370.922607 
M260.872498,268.769501 
	C262.956909,270.504730 263.167633,269.259644 263.241241,267.380005 
	C263.506226,260.615723 263.853546,253.854660 264.189117,246.678162 
	C268.594971,247.292679 272.646576,247.857803 277.126556,248.482666 
	C279.024780,239.390121 280.868317,230.559448 282.778351,221.410294 
	C276.479614,220.397003 270.796234,219.482712 264.873535,218.529922 
	C264.873535,210.242126 264.873535,202.071274 264.873535,193.079956 
	C249.160309,206.420837 234.049225,219.250473 218.693405,232.287918 
	C232.910507,244.587448 246.613281,256.442017 260.872498,268.769501 
M620.118286,406.457214 
	C620.118286,409.529419 620.118286,412.601654 620.118286,415.443878 
	C629.894836,415.443878 638.808044,415.443878 648.178223,415.443878 
	C648.178223,403.101044 648.178223,391.192291 648.178223,378.541870 
	C639.307312,378.541870 630.428650,378.541870 620.118408,378.541870 
	C620.118408,387.303375 620.118408,396.390289 620.118286,406.457214 
M868.745850,528.299011 
	C870.329041,525.614441 871.912231,522.929871 873.732361,519.843567 
	C865.581726,515.075317 857.767761,510.504028 849.954590,505.933228 
	C843.471558,516.112732 837.245911,525.888062 830.771118,536.054626 
	C838.326538,541.302185 845.773376,546.474426 853.613831,551.919983 
	C858.689026,543.988281 863.516296,536.444031 868.745850,528.299011 
M76.519745,256.953918 
	C73.820381,264.704834 71.121010,272.455750 68.286179,280.595612 
	C77.747879,283.379181 86.363495,285.913849 94.866623,288.415405 
	C98.971359,277.003815 102.819603,266.305298 106.779404,255.296661 
	C98.346817,251.746841 90.032417,248.246780 81.402603,244.613922 
	C79.727112,248.872787 78.277771,252.556824 76.519745,256.953918 
M948.112183,348.621307 
	C951.434448,337.693359 954.756653,326.765442 958.231750,315.334686 
	C948.983521,312.847076 940.264832,310.501892 931.322266,308.096497 
	C927.843811,319.772858 924.494324,331.016296 921.034302,342.630737 
	C929.242310,345.309692 937.247192,347.972351 945.305054,350.463776 
	C946.000671,350.678864 947.046570,349.761139 948.112183,348.621307 
M374.682495,426.769745 
	C381.163696,428.621002 387.644928,430.472229 393.995728,432.286224 
	C398.238831,421.197662 402.250336,410.714417 406.406860,399.852081 
	C398.107086,396.066498 389.904846,392.325378 381.036591,388.280457 
	C376.317474,400.703705 371.873016,412.403870 367.327240,424.370819 
	C370.177460,425.303162 372.049225,425.915436 374.682495,426.769745 
M885.513245,334.324280 
	C884.553101,334.431000 883.076111,334.176453 882.710999,334.698975 
	C877.791382,341.738800 873.026672,348.886871 867.589172,356.948669 
	C879.858276,363.041809 891.505920,368.826324 903.679993,374.872284 
	C907.139221,365.250275 910.195618,356.748627 913.071228,348.749878 
	C903.693787,343.882355 894.877563,339.306183 885.513245,334.324280 
M666.206116,162.935150 
	C660.820496,174.041168 655.434814,185.147171 649.882935,196.596069 
	C659.675842,200.145172 668.052917,203.181152 676.278198,206.162109 
	C681.140259,195.646286 685.785034,185.600479 690.523621,175.351807 
	C683.605774,171.034271 676.580627,166.596237 669.471252,162.297546 
	C668.778442,161.878662 667.565674,162.319641 666.206116,162.935150 
M335.210419,245.284683 
	C330.414581,241.871597 325.618713,238.458511 320.560760,234.858887 
	C315.732361,243.473984 311.358276,251.278442 307.418182,258.308563 
	C314.920074,265.229248 322.031128,271.789368 329.339691,278.531677 
	C336.527618,274.270233 344.203552,269.719513 353.033356,264.484680 
	C346.928497,257.860138 341.342560,251.798645 335.210419,245.284683 
M746.143677,225.302689 
	C748.629272,226.740845 750.090332,226.064713 750.857117,223.267532 
	C752.699707,216.545425 754.856018,209.903778 756.515381,203.138824 
	C757.723022,198.215744 758.339355,193.147614 759.276733,187.817444 
	C749.643982,186.783615 740.778625,185.832153 732.219543,184.913559 
	C729.388367,196.029755 726.701233,206.580322 723.926025,217.476776 
	C731.039001,219.989029 738.211365,222.522247 746.143677,225.302689 
M693.714661,338.237579 
	C695.887268,334.763031 698.059875,331.288513 700.365295,327.601532 
	C692.376404,322.528137 684.834595,317.738647 677.076660,312.811951 
	C670.266602,323.047333 663.689148,332.932922 656.981567,343.014252 
	C664.683899,348.369843 672.033997,353.480530 679.738647,358.837708 
	C684.356506,352.017181 688.823120,345.420105 693.714661,338.237579 
M402.469482,555.013184 
	C408.194427,559.146301 413.919403,563.279419 420.311829,567.894409 
	C423.898254,557.991516 426.983337,549.472961 429.809387,541.669617 
	C421.937958,534.810120 414.598419,528.414124 406.991058,521.784790 
	C400.312225,527.815063 393.584534,533.889526 386.509369,540.277649 
	C391.935669,545.309814 396.927399,549.938965 402.469482,555.013184 
M917.576843,379.043060 
	C914.957397,378.092896 912.337952,377.142700 909.392639,376.074341 
	C904.977600,387.419189 900.676575,398.471100 896.237427,409.877747 
	C904.922791,413.410950 913.267822,416.805664 922.011475,420.362579 
	C926.588867,408.563477 930.945862,397.332611 935.446045,385.732513 
	C929.411072,383.452087 923.864746,381.356293 917.576843,379.043060 
M442.874573,284.318115 
	C441.091553,287.297150 439.308502,290.276215 437.346161,293.554871 
	C445.341278,298.420776 453.078796,303.129944 461.193237,308.068481 
	C467.575043,297.096436 473.705017,286.557404 479.958405,275.806183 
	C471.518921,271.107422 463.719666,266.765106 455.676788,262.287170 
	C451.375793,269.647797 447.281647,276.654419 442.874573,284.318115 
M851.221741,290.121185 
	C850.679138,288.079895 850.136475,286.038635 849.495789,283.628418 
	C840.376099,285.570587 831.671997,287.424255 822.562378,289.364258 
	C825.361877,303.422455 830.088196,316.295288 838.247986,328.243286 
	C846.017456,322.892029 853.471558,317.757996 860.270508,313.075195 
	C857.203186,305.298920 854.358032,298.085876 851.221741,290.121185 
M556.678162,499.468018 
	C556.867004,498.281586 557.657776,496.550293 557.152527,495.992188 
	C551.481262,489.727264 545.610535,483.642914 539.722351,477.435120 
	C530.698486,485.462463 521.925354,493.266754 512.901184,501.294434 
	C518.817139,508.452026 524.582825,515.427856 530.663025,522.784180 
	C539.383423,514.966492 547.782593,507.436737 556.678162,499.468018 
M658.155396,529.286560 
	C657.686584,527.062317 657.217834,524.838074 656.707764,522.417847 
	C647.473694,524.153687 638.729126,525.797485 629.201355,527.588501 
	C632.249146,540.293701 635.140381,552.346191 638.148071,564.884399 
	C647.525085,561.985413 656.179504,559.309753 664.777283,556.651672 
	C662.574036,547.503052 660.476440,538.793030 658.155396,529.286560 
M126.169609,216.733749 
	C130.752640,209.062454 135.335678,201.391159 140.070694,193.465469 
	C132.273117,188.430038 124.672913,183.522049 116.614922,178.318451 
	C110.014587,189.515701 103.753654,200.137177 97.362038,210.980347 
	C106.065720,215.648514 113.906693,219.853973 121.964127,224.175522 
	C123.408615,221.669067 124.638077,219.535721 126.169609,216.733749 
M214.629303,105.107323 
	C220.863342,99.903511 227.097382,94.699707 233.537994,89.323471 
	C227.942139,81.948715 222.445953,74.705315 216.642181,67.056549 
	C206.753311,75.456436 197.282425,83.501289 187.442825,91.859329 
	C194.155151,98.934975 200.387726,105.504890 206.794846,112.258797 
	C209.464874,109.816467 211.781967,107.696983 214.629303,105.107323 
M894.889282,121.216698 
	C895.838135,129.081421 896.786926,136.946152 897.571411,143.448807 
	C906.914856,145.907303 915.271851,148.106262 924.102844,150.429932 
	C928.688721,143.635498 933.681152,136.238770 938.809753,128.640396 
	C926.235901,120.473839 912.916809,116.712646 898.375549,117.322426 
	C896.447083,117.403290 894.026062,117.122688 894.889282,121.216698 
M873.005554,155.569763 
	C867.166260,150.218506 861.326904,144.867249 855.185852,139.239456 
	C845.552246,149.737839 838.728333,161.404190 833.595215,174.525650 
	C842.316650,178.162506 850.518738,181.582794 858.015381,184.708908 
	C863.557068,176.097504 868.876282,167.956451 873.989563,159.688049 
	C874.486267,158.884781 873.710022,157.294266 873.005554,155.569763 
M717.314026,293.946777 
	C723.325928,283.168976 729.337769,272.391144 735.527039,261.295410 
	C726.476196,256.950043 718.447937,253.095627 710.210083,249.140579 
	C704.562866,259.830536 699.088989,270.192383 693.432800,280.899323 
	C701.263611,285.299744 708.919495,289.601868 717.314026,293.946777 
M649.540710,235.051315 
	C646.370239,234.311310 643.199768,233.571304 639.584473,232.727463 
	C636.953552,245.269547 634.446472,257.221680 631.860535,269.549530 
	C641.473022,271.213959 650.357117,272.752289 659.247253,274.291656 
	C661.795166,262.168762 664.171570,250.861679 666.583862,239.384125 
	C660.957031,237.931885 655.657654,236.564163 649.540710,235.051315 
M818.969727,246.330063 
	C818.677917,248.571381 818.338196,250.836548 821.724243,250.835144 
	C829.845642,250.831787 837.967102,250.834076 846.041016,250.834076 
	C847.136536,239.375748 848.190308,228.353897 849.303162,216.714523 
	C840.657288,215.088699 831.781677,213.419678 821.801575,211.542953 
	C820.825684,223.273407 819.906494,234.322174 818.969727,246.330063 
M971.021851,186.391754 
	C969.266174,178.889740 967.510498,171.387741 965.634766,163.372772 
	C956.140869,166.992142 947.721497,170.201843 939.916992,173.177155 
	C942.019043,184.213104 943.990845,194.565308 946.022827,205.233688 
	C954.833862,204.692200 963.711487,204.146606 973.171143,203.565262 
	C972.455688,197.738037 971.812134,192.496628 971.021851,186.391754 
M508.172546,133.892929 
	C505.505249,144.466095 502.837982,155.039261 500.043335,166.117279 
	C508.576843,168.932281 517.132019,171.754425 526.337280,174.791016 
	C529.721191,162.103897 532.941772,150.029099 536.242188,137.655151 
	C530.345825,136.452271 525.354004,135.286667 520.307495,134.451614 
	C516.368286,133.799805 512.361023,133.558578 508.172546,133.892929 
M172.952713,128.553360 
	C169.456924,125.501350 165.961121,122.449348 161.916519,118.918205 
	C153.932510,128.638550 146.064362,138.217865 137.956268,148.089294 
	C145.750290,154.025391 152.955887,159.513351 160.131775,164.978653 
	C167.844070,155.550980 175.211990,146.544281 182.780365,137.292557 
	C179.669479,134.531647 176.572647,131.783234 172.952713,128.553360 
M874.827209,458.250610 
	C872.158508,463.717804 869.489807,469.184998 866.627502,475.048859 
	C875.023499,479.292633 883.052307,483.350830 891.518555,487.630096 
	C897.033508,476.032745 902.250366,465.062195 907.577087,453.860535 
	C898.684631,449.847137 890.587646,446.192749 882.220154,442.416321 
	C879.728516,447.694427 877.404663,452.616974 874.827209,458.250610 
M597.474121,433.035156 
	C594.724731,430.662170 591.975281,428.289215 589.003662,425.724457 
	C580.785522,434.737762 572.786194,443.511017 564.643982,452.440948 
	C571.410828,458.917847 577.874329,465.104462 584.732605,471.668915 
	C593.262634,462.322601 601.503784,453.292725 609.976746,444.008881 
	C605.708252,440.277679 601.846863,436.902313 597.474121,433.035156 
M328.849243,397.359253 
	C331.869995,392.240295 334.890778,387.121338 338.081360,381.714630 
	C329.657104,377.134949 321.699829,372.809143 313.897827,368.567749 
	C307.556000,378.560883 301.513489,388.082336 295.227142,397.988037 
	C302.384583,403.293182 309.681793,408.701935 317.385986,414.412323 
	C321.237579,408.670898 324.833038,403.311279 328.849243,397.359253 
M969.214233,262.840210 
	C970.181824,255.970047 971.149414,249.099869 972.191589,241.699753 
	C962.626465,240.780807 953.645142,239.917953 944.650757,239.053848 
	C942.855408,251.008789 941.143494,262.407990 939.391296,274.075714 
	C948.477417,275.839508 957.236877,277.539856 966.472778,279.332703 
	C967.401245,273.795288 968.246521,268.753754 969.214233,262.840210 
M332.606476,320.894623 
	C331.102875,326.451569 329.599274,332.008514 328.020355,337.843872 
	C336.646698,340.953156 345.031708,343.975464 353.854645,347.155609 
	C358.468414,334.025421 361.961365,321.071350 361.985321,306.722473 
	C352.498383,306.722473 343.624023,306.722473 334.632294,306.722473 
	C334.026215,311.213593 333.428589,315.641968 332.606476,320.894623 
M718.795410,156.225281 
	C721.904480,157.638901 725.013489,159.052536 728.403381,160.593872 
	C734.946106,154.922119 741.686279,149.079147 748.380005,143.276459 
	C738.635010,129.550583 711.939880,123.361397 699.969055,131.803070 
	C703.188110,140.076263 706.422241,148.388123 709.406738,156.058426 
	C712.741699,156.058426 715.363098,156.058426 718.795410,156.225281 
M463.568207,534.132141 
	C461.043518,535.316467 458.518829,536.500793 455.567749,537.885132 
	C458.867401,546.534241 462.082184,554.960876 465.687744,564.411804 
	C477.703064,557.939331 489.130005,551.783752 500.873047,545.457947 
	C495.165649,536.895996 490.158813,529.385010 485.331512,522.143311 
	C477.890686,526.274475 471.077881,530.056946 463.568207,534.132141 
M650.149048,470.156677 
	C649.740356,464.239136 649.331665,458.321625 648.894836,451.996094 
	C639.581909,452.496094 630.700256,452.972931 621.115173,453.487518 
	C622.135864,466.173035 623.123047,478.442566 624.129028,490.945129 
	C633.830933,489.843353 642.685669,488.837799 651.835999,487.798645 
	C651.271667,481.918243 650.751587,476.498657 650.149048,470.156677 
M943.020508,372.439545 
	C942.414612,376.018799 941.808777,379.598053 941.055725,384.046692 
	C953.755920,385.387177 966.196899,386.700287 979.302856,388.083588 
	C979.757385,378.272247 980.174255,369.272827 980.588501,360.332001 
	C968.653687,359.076019 957.335449,357.884918 945.745667,356.665253 
	C944.836182,361.817627 943.974609,366.698486 943.020508,372.439545 
M482.901886,208.326477 
	C479.388336,215.797424 475.874756,223.268356 472.164276,231.157974 
	C480.476379,235.251099 488.578827,239.240982 497.183594,243.478241 
	C502.524567,231.924576 507.644073,220.849930 512.933899,209.406891 
	C504.044342,205.631744 495.734467,202.102783 487.276581,198.510956 
	C485.738251,201.890961 484.436646,204.750824 482.901886,208.326477 
M433.289734,351.821381 
	C436.006531,347.517731 438.723358,343.214081 441.588104,338.676117 
	C433.702667,333.535187 426.231598,328.664429 418.230316,323.447998 
	C411.545624,334.225922 405.055115,344.690826 398.427673,355.376495 
	C406.931274,360.253632 414.656433,364.684296 422.575500,369.226166 
	C426.146545,363.420868 429.525299,357.928162 433.289734,351.821381 
M647.158325,305.237244 
	C640.103760,304.420654 633.049133,303.604034 625.431030,302.722198 
	C624.181030,315.270477 622.975769,327.370270 621.736938,339.806763 
	C631.381348,340.582611 640.236450,341.294952 649.407104,342.032684 
	C650.624146,329.809448 651.795837,318.041382 652.965454,306.294495 
	C650.946533,305.907745 649.487671,305.628265 647.158325,305.237244 
M361.799408,487.720520 
	C362.956818,493.154541 364.114197,498.588531 365.379181,504.527710 
	C374.773651,501.416412 383.339233,498.579620 391.153809,495.991577 
	C389.846069,485.224335 388.615295,475.090515 387.328430,464.495117 
	C378.900146,464.043610 370.051361,463.569580 360.030273,463.032745 
	C360.589813,471.423615 361.104126,479.136292 361.799408,487.720520 
M66.959312,356.246124 
	C73.051254,356.246124 79.143188,356.246124 85.002350,356.246124 
	C85.745049,344.163147 86.429008,333.035858 87.136276,321.529236 
	C78.095978,320.239594 69.207031,318.971497 59.493439,317.585785 
	C58.754261,331.134552 58.066132,343.747620 57.352974,356.819489 
	C61.126514,356.617279 63.586060,356.485474 66.959312,356.246124 
z"/>
<path fill="#D6AD42" opacity="1.000000" stroke="none" 
	d="
M557.000000,741.002747 
	C557.000000,735.537231 557.000000,730.570923 557.000000,725.024170 
	C564.333496,725.024170 571.277161,724.915894 578.209229,725.149841 
	C579.165527,725.182068 580.597046,726.760498 580.910583,727.875610 
	C585.907288,745.647827 590.776855,763.456055 595.636536,781.266663 
	C601.614502,803.175720 607.570618,825.090820 613.496094,847.014160 
	C614.243164,849.778076 614.747314,852.607666 615.500000,856.023987 
	C615.500000,812.080322 615.500000,768.856628 615.500000,725.315735 
	C621.309509,725.315735 627.237854,725.315735 633.585571,725.315735 
	C633.585571,783.561157 633.585571,841.933044 633.585571,900.979187 
	C626.762390,900.979187 619.828125,901.093262 612.906494,900.848877 
	C611.935791,900.814636 610.483154,899.172302 610.169739,898.024231 
	C603.371521,873.120056 596.712952,848.177734 590.007202,823.248291 
	C585.220520,805.453430 580.404114,787.666626 575.500000,769.502197 
	C575.500000,813.411743 575.500000,856.931458 575.500000,900.725586 
	C569.606262,900.725586 563.678101,900.725586 557.000000,900.725586 
	C557.000000,847.653503 557.000000,794.577698 557.000000,741.002747 
z"/>
<path fill="#D6AD42" opacity="1.000000" stroke="none" 
	d="
M1113.089844,901.000000 
	C1106.928467,902.055786 1104.382202,899.847656 1102.751953,894.042969 
	C1097.583008,875.638611 1091.626099,857.455322 1085.954956,839.192444 
	C1085.769653,838.596008 1085.379883,838.063110 1084.717896,836.798706 
	C1079.731079,847.510559 1072.183594,856.227783 1073.744507,868.997070 
	C1075.005493,879.311462 1074.000000,889.902893 1074.000000,900.683472 
	C1067.691650,900.683472 1061.762573,900.683472 1055.414307,900.683472 
	C1055.414307,839.766296 1055.414307,778.721985 1055.414307,717.338379 
	C1061.384277,717.338379 1067.430298,717.338379 1073.904541,717.338379 
	C1073.904541,753.708496 1073.904541,789.919312 1073.904541,826.130127 
	C1074.191162,826.201538 1074.477661,826.272949 1074.764282,826.344299 
	C1078.507080,818.415649 1082.228027,810.476624 1085.997925,802.560852 
	C1091.296265,791.435425 1096.579956,780.302124 1102.032959,769.252686 
	C1102.547485,768.210083 1104.201904,767.146851 1105.363770,767.104858 
	C1111.327148,766.889343 1117.302490,767.005066 1123.917358,767.005066 
	C1120.790283,773.321716 1117.993774,779.243469 1114.957520,785.039551 
	C1110.385132,793.767700 1105.804443,802.499451 1100.899414,811.041321 
	C1098.883667,814.551697 1098.874023,817.699097 1100.111084,821.361511 
	C1108.596680,846.485168 1116.972168,871.645996 1125.374878,896.797607 
	C1125.789307,898.038208 1126.125488,899.304932 1126.628906,901.000000 
	C1122.106689,901.000000 1117.838013,901.000000 1113.089844,901.000000 
z"/>
<path fill="#1B3767" opacity="1.000000" stroke="none" 
	d="
M286.127441,767.640991 
	C294.047455,772.301453 297.062683,779.650452 297.865784,787.737671 
	C298.778931,796.932800 298.912720,806.228699 298.954071,815.482666 
	C299.080475,843.789490 299.000000,872.097168 299.000000,900.701904 
	C292.347137,900.701904 285.947723,900.701904 279.000000,900.701904 
	C279.000000,898.923584 279.000000,897.150635 279.000000,895.377747 
	C279.000000,864.046692 279.023132,832.715576 278.957214,801.384644 
	C278.951782,798.809326 278.516724,796.197815 277.977692,793.667786 
	C276.524231,786.845825 273.225586,783.288391 268.360107,783.000610 
	C258.604004,782.423828 253.032654,785.130188 251.127640,792.432068 
	C249.539276,798.520264 248.207077,804.873901 248.136841,811.125366 
	C247.822357,839.119812 248.000000,867.119751 248.000000,895.117737 
	C248.000000,896.914612 248.000000,898.711426 248.000000,900.751709 
	C241.576218,900.751709 235.511597,900.751709 228.722763,900.751709 
	C228.722763,856.240784 228.722763,811.889954 228.722763,767.272766 
	C234.334961,767.272766 240.427231,767.272766 246.891037,767.272766 
	C247.389206,770.242004 247.895187,773.257874 248.463531,776.645447 
	C252.130707,770.164124 257.875427,766.587830 264.999176,764.987427 
	C272.250092,763.358459 279.161102,764.365845 286.127441,767.640991 
z"/>
<path fill="#1B3767" opacity="1.000000" stroke="none" 
	d="
M543.676758,788.498047 
	C529.456543,789.246948 519.719116,797.890930 518.033936,811.680969 
	C517.477295,816.235962 517.062378,820.840271 517.045044,825.423828 
	C516.950378,850.399292 517.000000,875.375366 517.000000,900.675293 
	C510.404785,900.675293 504.005066,900.675293 497.300598,900.675293 
	C497.300598,856.356018 497.300598,811.966980 497.300598,767.288574 
	C503.339539,767.288574 509.402893,767.288574 515.929688,767.288574 
	C515.929688,772.660828 515.929688,778.017761 515.929688,784.086304 
	C525.478149,768.883728 532.241943,764.370911 543.936646,765.305481 
	C543.936646,772.880127 543.936646,780.498535 543.676758,788.498047 
z"/>
<path fill="#D6AD42" opacity="1.000000" stroke="none" 
	d="
M852.000000,845.000000 
	C852.000000,863.791077 852.000000,882.082153 852.000000,900.685303 
	C845.689880,900.685303 839.763000,900.685303 832.915649,900.685303 
	C832.915649,856.378479 832.915649,811.939209 832.915649,767.250244 
	C838.431213,767.250244 844.360046,767.250244 850.827820,767.250244 
	C851.354553,772.218018 851.880676,777.179504 852.473999,782.774963 
	C858.017090,771.114319 866.577209,764.755798 879.739075,764.998413 
	C879.739075,773.057007 879.739075,780.653320 879.739075,788.243408 
	C875.951172,789.125122 872.038696,789.601379 868.456299,790.952820 
	C858.539734,794.693665 854.247681,803.089233 853.188416,812.726624 
	C852.033447,823.234314 852.333923,833.902039 852.000000,845.000000 
z"/>
<path fill="#1B3767" opacity="1.000000" stroke="none" 
	d="
M113.749565,454.650024 
	C117.296516,449.942841 120.558929,445.473541 124.074409,441.213074 
	C124.569542,440.613037 126.564468,440.568634 127.419899,441.053192 
	C136.112595,445.976837 144.712860,451.063690 153.772888,456.358398 
	C150.953171,464.312714 147.851501,473.062439 144.249664,483.223083 
	C131.759888,476.452545 119.653786,469.889984 106.882553,462.966858 
	C109.629814,459.663239 111.587730,457.308807 113.749565,454.650024 
z"/>
<path fill="#1B3767" opacity="1.000000" stroke="none" 
	d="
M464.965820,18.879225 
	C466.049286,13.946832 467.104889,9.442320 468.235535,4.617749 
	C482.800323,8.617335 495.615997,14.712008 507.367035,23.674906 
	C501.281311,31.390484 495.451965,38.780975 490.156006,45.495247 
	C480.641235,40.759621 471.614838,36.267075 461.943420,31.453499 
	C462.792938,28.007736 463.865479,23.657421 464.965820,18.879225 
z"/>
<path fill="#1B3767" opacity="1.000000" stroke="none" 
	d="
M743.282959,608.321167 
	C748.546387,606.672852 753.460205,605.274963 758.335815,603.888000 
	C762.041565,612.607788 765.608215,621.000427 769.256226,629.584534 
	C756.151855,635.913635 742.527344,638.040894 727.792603,639.105408 
	C727.792603,629.335693 727.792603,619.882385 727.792603,610.513794 
	C732.617859,609.894836 737.775574,609.233215 743.282959,608.321167 
z"/>
<path fill="#1B3767" opacity="1.000000" stroke="none" 
	d="
M342.448608,38.235580 
	C336.670441,39.981236 331.273895,41.539085 325.519958,43.200096 
	C322.802582,34.673939 320.077240,26.313875 317.559479,17.891754 
	C317.337280,17.148411 318.294434,15.325659 319.001678,15.140216 
	C329.747681,12.322576 340.522430,9.601753 351.357025,7.152929 
	C352.562958,6.880366 355.227081,8.179760 355.435120,9.136962 
	C357.249878,17.487095 358.658813,25.925438 360.250610,34.680443 
	C354.188049,35.852325 348.509155,36.950050 342.448608,38.235580 
z"/>
<path fill="#1C3767" opacity="1.000000" stroke="none" 
	d="
M663.855042,594.459045 
	C668.457275,591.766785 672.910645,589.387817 677.587891,586.889282 
	C679.466797,589.169250 681.408264,591.525146 683.672974,594.014709 
	C688.429077,597.855835 692.861816,601.563293 697.895325,605.773193 
	C694.820801,613.419495 691.347839,622.056763 687.859680,630.731628 
	C672.799805,626.117737 663.016785,615.529602 654.829163,603.135986 
	C654.280273,602.305237 654.822754,599.793152 655.666687,599.183960 
	C658.126404,597.408447 660.996826,596.201965 663.855042,594.459045 
z"/>
<path fill="#1B3767" opacity="1.000000" stroke="none" 
	d="
M189.644897,460.696381 
	C198.702591,459.277527 207.368546,458.098450 217.064926,456.779144 
	C219.423492,464.776215 222.065948,473.735901 224.885696,483.296722 
	C211.598724,487.167145 198.261932,489.398163 184.241989,488.937836 
	C184.241989,479.556091 184.241989,470.481476 184.241989,460.936127 
	C186.017319,460.936127 187.635223,460.936127 189.644897,460.696381 
z"/>
<path fill="#1C3867" opacity="1.000000" stroke="none" 
	d="
M288.151703,57.537579 
	C281.282196,61.023857 274.557404,64.170631 267.860046,67.374771 
	C266.075226,68.228668 264.374451,69.258263 262.411224,70.329330 
	C259.448883,65.866837 256.548920,61.498318 253.326477,56.990471 
	C251.361954,53.557373 249.719894,50.263603 247.603699,46.018784 
	C259.011597,40.199982 270.445038,34.368134 282.344360,28.298668 
	C286.364990,37.382942 290.128754,45.886906 294.098206,54.855583 
	C292.089844,55.675362 290.198273,56.447468 288.151703,57.537579 
z"/>
<path fill="#1C3867" opacity="1.000000" stroke="none" 
	d="
M273.492126,423.002014 
	C279.632263,429.582977 285.412872,436.161743 291.726013,443.346558 
	C285.861389,448.349670 279.993378,453.355682 273.988770,458.679321 
	C269.411957,461.858948 264.971741,464.720978 260.195099,467.799896 
	C255.533432,460.032440 251.184647,452.934601 247.055954,445.710999 
	C246.564438,444.851044 246.804825,442.728302 247.497803,442.164917 
	C255.458084,435.693237 263.565613,429.402344 271.666656,423.105438 
	C271.988312,422.855377 272.636505,423.025452 273.492126,423.002014 
z"/>
<path fill="#1D3867" opacity="1.000000" stroke="none" 
	d="
M68.066780,410.396179 
	C66.648354,405.357147 65.363594,400.649658 63.958363,395.500732 
	C72.626160,392.972626 81.145630,390.487762 89.576736,388.028687 
	C93.236282,395.779907 96.794083,403.315613 100.674973,410.999146 
	C102.025848,413.144684 103.053619,415.142334 104.249718,417.467163 
	C96.404091,422.713348 88.655083,427.894928 80.342842,433.453094 
	C76.216713,425.730743 72.208580,418.229248 68.066780,410.396179 
z"/>
<path fill="#1D3867" opacity="1.000000" stroke="none" 
	d="
M789.993347,594.332397 
	C788.431763,591.826843 787.009155,589.636780 786.084229,588.213013 
	C793.951355,580.042603 801.759766,571.933167 809.931152,563.446655 
	C816.516235,569.201904 823.339783,575.165588 830.559387,581.475464 
	C826.681580,585.604797 823.068726,589.452026 819.377930,593.599243 
	C813.978271,598.975159 808.656616,604.051025 802.862244,609.577698 
	C798.497009,604.458130 794.314636,599.552979 789.993347,594.332397 
z"/>
<path fill="#1E3967" opacity="1.000000" stroke="none" 
	d="
M532.862854,58.648163 
	C535.158142,69.775154 537.344238,80.621376 539.375366,91.496536 
	C539.792114,93.727966 539.629089,96.067665 539.752991,98.789505 
	C530.524658,98.789505 521.631104,98.789505 512.877197,98.789505 
	C511.086517,88.890160 509.269775,78.846848 507.332275,68.135994 
	C514.342529,65.221161 522.080811,62.003643 530.026245,58.492073 
	C531.055237,58.257893 531.877014,58.317768 532.862854,58.648163 
z"/>
<path fill="#1B3767" opacity="1.000000" stroke="none" 
	d="
M1227.300781,748.269348 
	C1228.806152,743.917603 1226.014526,742.371277 1223.122925,741.074463 
	C1220.781616,740.024475 1218.246216,739.410217 1215.892334,738.383850 
	C1211.933350,736.657654 1209.693481,733.543579 1210.442505,729.213440 
	C1211.439697,723.448242 1214.045044,721.274475 1219.552368,721.018982 
	C1229.649292,720.550415 1231.339355,723.500671 1232.972656,730.637024 
	C1230.115112,731.018677 1227.638550,731.996765 1225.767090,728.161438 
	C1225.084961,726.763367 1221.693604,726.237305 1219.522583,726.198914 
	C1218.379028,726.178650 1216.051392,728.610046 1216.235718,729.000183 
	C1217.105957,730.841797 1218.355835,732.849365 1220.033447,733.891602 
	C1223.409302,735.988708 1227.434204,737.091736 1230.667969,739.353210 
	C1234.515991,742.044250 1234.423828,746.207520 1232.882324,750.300232 
	C1231.446777,754.111572 1228.207031,755.677002 1224.535522,755.919250 
	C1219.993408,756.218933 1215.013306,756.986267 1211.921387,752.320740 
	C1210.564209,750.272949 1209.805542,747.828491 1208.603516,745.186890 
	C1211.042847,745.186890 1212.834839,745.186890 1214.583130,745.186890 
	C1218.274658,752.520264 1222.970093,753.766907 1227.300781,748.269348 
z"/>
<path fill="#FFFFFF" opacity="1.000000" stroke="none" 
	d="
M370.000000,856.869080 
	C368.576355,864.123535 367.794403,871.117737 365.542786,877.601624 
	C363.426392,883.696106 357.642487,885.836853 350.000214,884.997864 
	C346.005035,884.559326 341.029114,879.709167 340.090149,874.623352 
	C339.176208,869.672668 338.419647,864.615845 338.366669,859.597412 
	C338.179108,841.830994 338.234436,824.060242 338.411926,806.293213 
	C338.448822,802.602539 339.129608,798.856079 339.986877,795.247681 
	C342.436218,784.937622 346.284485,782.192749 356.613770,783.006775 
	C364.215027,783.605713 368.486572,789.953674 368.826599,797.709473 
	C369.683228,817.247986 369.666595,836.824646 370.000000,856.869080 
z"/>
<path fill="#FFFFFF" opacity="1.000000" stroke="none" 
	d="
M762.007202,867.696106 
	C761.667786,848.848816 761.063721,830.441589 761.152222,812.037720 
	C761.181702,805.914246 762.465332,799.655273 764.104248,793.714355 
	C766.535950,784.899414 774.160645,780.726501 782.922729,783.250488 
	C785.285278,783.931030 788.000000,786.266296 788.912048,788.509338 
	C790.846802,793.267456 792.706543,798.441467 792.821777,803.485535 
	C793.262573,822.775269 793.384216,842.093262 792.775635,861.373840 
	C792.582703,867.486572 790.305603,873.742981 787.973877,879.527161 
	C784.873413,887.218445 770.575684,887.152405 766.123047,879.080078 
	C764.260864,875.703979 763.353943,871.800964 762.007202,867.696106 
z"/>
<path fill="#FFFFFF" opacity="1.000000" stroke="none" 
	d="
M158.973343,847.154419 
	C165.052353,837.083130 174.725357,837.137451 183.996902,836.976074 
	C183.996902,848.926392 184.660721,860.645203 183.769699,872.244629 
	C183.148193,880.335571 176.656799,886.101807 169.890884,885.853149 
	C164.300812,885.647766 158.499146,884.453552 156.675247,873.008606 
	C155.321701,864.515015 154.411057,855.687988 158.973343,847.154419 
z"/>
<path fill="#FFFFFF" opacity="1.000000" stroke="none" 
	d="
M1178.026367,879.905090 
	C1174.050781,885.690369 1168.638428,886.750732 1162.743042,884.904724 
	C1157.189697,883.165649 1154.464233,878.519226 1154.100342,873.048401 
	C1153.647217,866.235657 1153.407837,859.298462 1154.182251,852.541809 
	C1155.198486,843.675110 1164.298096,837.390320 1175.231567,837.012878 
	C1177.550781,836.932861 1179.875000,837.001160 1182.615356,837.001160 
	C1182.615356,846.045593 1183.140137,854.954895 1182.419922,863.762329 
	C1181.983276,869.102051 1179.620361,874.284241 1178.026367,879.905090 
z"/>
<path fill="#FFFFFF" opacity="1.000000" stroke="none" 
	d="
M933.375000,872.210938 
	C931.930542,880.450195 926.272766,885.859192 919.114746,885.978088 
	C912.967468,886.080139 906.851562,880.273315 906.110291,872.749390 
	C905.554077,867.103882 905.489990,861.315430 906.046631,855.673462 
	C907.420898,841.745178 915.865906,838.337708 927.919739,837.034424 
	C930.036194,836.805603 932.198730,837.001953 935.605713,837.001953 
	C934.923889,848.877991 934.264221,860.367920 933.375000,872.210938 
z"/>
<path fill="#FFFFFF" opacity="1.000000" stroke="none" 
	d="
M429.000000,805.107422 
	C429.999939,799.404602 430.519165,794.031128 432.136719,789.011658 
	C433.713959,784.117249 439.680328,781.079956 444.872559,781.450500 
	C450.945404,781.883850 455.956726,784.880066 456.821381,790.432068 
	C458.405121,800.601562 458.955139,810.932007 459.979065,821.643921 
	C449.140442,821.643921 439.413361,821.643921 429.000000,821.643921 
	C429.000000,816.431335 429.000000,811.011597 429.000000,805.107422 
z"/>
<path fill="#FFFFFF" opacity="1.000000" stroke="none" 
	d="
M679.825562,784.671997 
	C688.613770,778.611023 699.615601,781.667480 701.738953,791.471069 
	C703.837097,801.157837 703.899597,811.285522 704.898193,821.668213 
	C693.951355,821.668213 684.255493,821.668213 673.129639,821.668213 
	C674.093506,811.192932 674.874634,800.931824 676.114746,790.726501 
	C676.361938,788.692749 678.364380,786.872314 679.825562,784.671997 
z"/>
<path fill="#1E3967" opacity="1.000000" stroke="none" 
	d="
M1057.177612,371.290070 
	C1053.487793,381.079041 1049.928467,390.500549 1045.945923,401.041840 
	C1042.293579,394.038910 1039.079712,388.140503 1036.135010,382.110657 
	C1034.821411,379.421021 1033.580933,378.637421 1030.412231,379.640015 
	C1024.008667,381.666046 1017.376099,382.968506 1010.471436,384.659149 
	C1008.764832,375.130646 1007.220642,366.509247 1005.589722,357.403198 
	C1010.736389,356.119171 1015.638611,354.896149 1021.076843,353.539429 
	C1017.372803,346.267395 1013.878601,339.407410 1009.992004,331.777039 
	C1029.611572,335.903168 1048.377197,339.849701 1067.591064,343.890503 
	C1064.009155,353.306549 1060.658569,362.114594 1057.177612,371.290070 
z"/>
<path fill="#1E3967" opacity="1.000000" stroke="none" 
	d="
M260.594269,268.533020 
	C246.613281,256.442017 232.910507,244.587448 218.693405,232.287918 
	C234.049225,219.250473 249.160309,206.420837 264.873535,193.079956 
	C264.873535,202.071274 264.873535,210.242126 264.873535,218.529922 
	C270.796234,219.482712 276.479614,220.397003 282.778351,221.410294 
	C280.868317,230.559448 279.024780,239.390121 277.126556,248.482666 
	C272.646576,247.857803 268.594971,247.292679 264.189117,246.678162 
	C263.853546,253.854660 263.506226,260.615723 263.241241,267.380005 
	C263.167633,269.259644 262.956909,270.504730 260.594269,268.533020 
z"/>
<path fill="#1F3967" opacity="1.000000" stroke="none" 
	d="
M620.118347,405.967224 
	C620.118408,396.390289 620.118408,387.303375 620.118408,378.541870 
	C630.428650,378.541870 639.307312,378.541870 648.178223,378.541870 
	C648.178223,391.192291 648.178223,403.101044 648.178223,415.443878 
	C638.808044,415.443878 629.894836,415.443878 620.118286,415.443878 
	C620.118286,412.601654 620.118286,409.529419 620.118347,405.967224 
z"/>
<path fill="#1F3967" opacity="1.000000" stroke="none" 
	d="
M868.544678,528.599365 
	C863.516296,536.444031 858.689026,543.988281 853.613831,551.919983 
	C845.773376,546.474426 838.326538,541.302185 830.771118,536.054626 
	C837.245911,525.888062 843.471558,516.112732 849.954590,505.933228 
	C857.767761,510.504028 865.581726,515.075317 873.732361,519.843567 
	C871.912231,522.929871 870.329041,525.614441 868.544678,528.599365 
z"/>
<path fill="#1F3967" opacity="1.000000" stroke="none" 
	d="
M76.674088,256.597382 
	C78.277771,252.556824 79.727112,248.872787 81.402603,244.613922 
	C90.032417,248.246780 98.346817,251.746841 106.779404,255.296661 
	C102.819603,266.305298 98.971359,277.003815 94.866623,288.415405 
	C86.363495,285.913849 77.747879,283.379181 68.286179,280.595612 
	C71.121010,272.455750 73.820381,264.704834 76.674088,256.597382 
z"/>
<path fill="#1F3967" opacity="1.000000" stroke="none" 
	d="
M948.020996,348.995483 
	C947.046570,349.761139 946.000671,350.678864 945.305054,350.463776 
	C937.247192,347.972351 929.242310,345.309692 921.034302,342.630737 
	C924.494324,331.016296 927.843811,319.772858 931.322266,308.096497 
	C940.264832,310.501892 948.983521,312.847076 958.231750,315.334686 
	C954.756653,326.765442 951.434448,337.693359 948.020996,348.995483 
z"/>
<path fill="#1F3967" opacity="1.000000" stroke="none" 
	d="
M374.301758,426.648743 
	C372.049225,425.915436 370.177460,425.303162 367.327240,424.370819 
	C371.873016,412.403870 376.317474,400.703705 381.036591,388.280457 
	C389.904846,392.325378 398.107086,396.066498 406.406860,399.852081 
	C402.250336,410.714417 398.238831,421.197662 393.995728,432.286224 
	C387.644928,430.472229 381.163696,428.621002 374.301758,426.648743 
z"/>
<path fill="#1E3967" opacity="1.000000" stroke="none" 
	d="
M885.787354,334.527130 
	C894.877563,339.306183 903.693787,343.882355 913.071228,348.749878 
	C910.195618,356.748627 907.139221,365.250275 903.679993,374.872284 
	C891.505920,368.826324 879.858276,363.041809 867.589172,356.948669 
	C873.026672,348.886871 877.791382,341.738800 882.710999,334.698975 
	C883.076111,334.176453 884.553101,334.431000 885.787354,334.527130 
z"/>
<path fill="#1F3967" opacity="1.000000" stroke="none" 
	d="
M666.400208,162.648315 
	C667.565674,162.319641 668.778442,161.878662 669.471252,162.297546 
	C676.580627,166.596237 683.605774,171.034271 690.523621,175.351807 
	C685.785034,185.600479 681.140259,195.646286 676.278198,206.162109 
	C668.052917,203.181152 659.675842,200.145172 649.882935,196.596069 
	C655.434814,185.147171 660.820496,174.041168 666.400208,162.648315 
z"/>
<path fill="#1F3967" opacity="1.000000" stroke="none" 
	d="
M335.483521,245.510925 
	C341.342560,251.798645 346.928497,257.860138 353.033356,264.484680 
	C344.203552,269.719513 336.527618,274.270233 329.339691,278.531677 
	C322.031128,271.789368 314.920074,265.229248 307.418182,258.308563 
	C311.358276,251.278442 315.732361,243.473984 320.560760,234.858887 
	C325.618713,238.458511 330.414581,241.871597 335.483521,245.510925 
z"/>
<path fill="#1F3967" opacity="1.000000" stroke="none" 
	d="
M745.763733,225.179077 
	C738.211365,222.522247 731.039001,219.989029 723.926025,217.476776 
	C726.701233,206.580322 729.388367,196.029755 732.219543,184.913559 
	C740.778625,185.832153 749.643982,186.783615 759.276733,187.817444 
	C758.339355,193.147614 757.723022,198.215744 756.515381,203.138824 
	C754.856018,209.903778 752.699707,216.545425 750.857117,223.267532 
	C750.090332,226.064713 748.629272,226.740845 745.763733,225.179077 
z"/>
<path fill="#1F3967" opacity="1.000000" stroke="none" 
	d="
M693.502197,338.530304 
	C688.823120,345.420105 684.356506,352.017181 679.738647,358.837708 
	C672.033997,353.480530 664.683899,348.369843 656.981567,343.014252 
	C663.689148,332.932922 670.266602,323.047333 677.076660,312.811951 
	C684.834595,317.738647 692.376404,322.528137 700.365295,327.601532 
	C698.059875,331.288513 695.887268,334.763031 693.502197,338.530304 
z"/>
<path fill="#1E3967" opacity="1.000000" stroke="none" 
	d="
M402.194336,554.790649 
	C396.927399,549.938965 391.935669,545.309814 386.509369,540.277649 
	C393.584534,533.889526 400.312225,527.815063 406.991058,521.784790 
	C414.598419,528.414124 421.937958,534.810120 429.809387,541.669617 
	C426.983337,549.472961 423.898254,557.991516 420.311829,567.894409 
	C413.919403,563.279419 408.194427,559.146301 402.194336,554.790649 
z"/>
<path fill="#1F3967" opacity="1.000000" stroke="none" 
	d="
M917.947632,379.151794 
	C923.864746,381.356293 929.411072,383.452087 935.446045,385.732513 
	C930.945862,397.332611 926.588867,408.563477 922.011475,420.362579 
	C913.267822,416.805664 904.922791,413.410950 896.237427,409.877747 
	C900.676575,398.471100 904.977600,387.419189 909.392639,376.074341 
	C912.337952,377.142700 914.957397,378.092896 917.947632,379.151794 
z"/>
<path fill="#1F3967" opacity="1.000000" stroke="none" 
	d="
M443.031036,283.989563 
	C447.281647,276.654419 451.375793,269.647797 455.676788,262.287170 
	C463.719666,266.765106 471.518921,271.107422 479.958405,275.806183 
	C473.705017,286.557404 467.575043,297.096436 461.193237,308.068481 
	C453.078796,303.129944 445.341278,298.420776 437.346161,293.554871 
	C439.308502,290.276215 441.091553,287.297150 443.031036,283.989563 
z"/>
<path fill="#1F3967" opacity="1.000000" stroke="none" 
	d="
M851.367310,290.497009 
	C854.358032,298.085876 857.203186,305.298920 860.270508,313.075195 
	C853.471558,317.757996 846.017456,322.892029 838.247986,328.243286 
	C830.088196,316.295288 825.361877,303.422455 822.562378,289.364258 
	C831.671997,287.424255 840.376099,285.570587 849.495789,283.628418 
	C850.136475,286.038635 850.679138,288.079895 851.367310,290.497009 
z"/>
<path fill="#1E3967" opacity="1.000000" stroke="none" 
	d="
M556.429932,499.687500 
	C547.782593,507.436737 539.383423,514.966492 530.663025,522.784180 
	C524.582825,515.427856 518.817139,508.452026 512.901184,501.294434 
	C521.925354,493.266754 530.698486,485.462463 539.722351,477.435120 
	C545.610535,483.642914 551.481262,489.727264 557.152527,495.992188 
	C557.657776,496.550293 556.867004,498.281586 556.429932,499.687500 
z"/>
<path fill="#1F3967" opacity="1.000000" stroke="none" 
	d="
M658.267090,529.684753 
	C660.476440,538.793030 662.574036,547.503052 664.777283,556.651672 
	C656.179504,559.309753 647.525085,561.985413 638.148071,564.884399 
	C635.140381,552.346191 632.249146,540.293701 629.201355,527.588501 
	C638.729126,525.797485 647.473694,524.153687 656.707764,522.417847 
	C657.217834,524.838074 657.686584,527.062317 658.267090,529.684753 
z"/>
<path fill="#1F3967" opacity="1.000000" stroke="none" 
	d="
M126.018578,217.068069 
	C124.638077,219.535721 123.408615,221.669067 121.964127,224.175522 
	C113.906693,219.853973 106.065720,215.648514 97.362038,210.980347 
	C103.753654,200.137177 110.014587,189.515701 116.614922,178.318451 
	C124.672913,183.522049 132.273117,188.430038 140.070694,193.465469 
	C135.335678,201.391159 130.752640,209.062454 126.018578,217.068069 
z"/>
<path fill="#1E3967" opacity="1.000000" stroke="none" 
	d="
M214.364166,105.342407 
	C211.781967,107.696983 209.464874,109.816467 206.794846,112.258797 
	C200.387726,105.504890 194.155151,98.934975 187.442825,91.859329 
	C197.282425,83.501289 206.753311,75.456436 216.642181,67.056549 
	C222.445953,74.705315 227.942139,81.948715 233.537994,89.323471 
	C227.097382,94.699707 220.863342,99.903511 214.364166,105.342407 
z"/>
<path fill="#1F3A67" opacity="1.000000" stroke="none" 
	d="
M894.822205,120.815018 
	C894.026062,117.122688 896.447083,117.403290 898.375549,117.322426 
	C912.916809,116.712646 926.235901,120.473839 938.809753,128.640396 
	C933.681152,136.238770 928.688721,143.635498 924.102844,150.429932 
	C915.271851,148.106262 906.914856,145.907303 897.571411,143.448807 
	C896.786926,136.946152 895.838135,129.081421 894.822205,120.815018 
z"/>
<path fill="#1F3967" opacity="1.000000" stroke="none" 
	d="
M873.265137,155.819473 
	C873.710022,157.294266 874.486267,158.884781 873.989563,159.688049 
	C868.876282,167.956451 863.557068,176.097504 858.015381,184.708908 
	C850.518738,181.582794 842.316650,178.162506 833.595215,174.525650 
	C838.728333,161.404190 845.552246,149.737839 855.185852,139.239456 
	C861.326904,144.867249 867.166260,150.218506 873.265137,155.819473 
z"/>
<path fill="#1E3967" opacity="1.000000" stroke="none" 
	d="
M716.944702,293.925415 
	C708.919495,289.601868 701.263611,285.299744 693.432800,280.899323 
	C699.088989,270.192383 704.562866,259.830536 710.210083,249.140579 
	C718.447937,253.095627 726.476196,256.950043 735.527039,261.295410 
	C729.337769,272.391144 723.325928,283.168976 716.944702,293.925415 
z"/>
<path fill="#1F3967" opacity="1.000000" stroke="none" 
	d="
M649.949463,235.123871 
	C655.657654,236.564163 660.957031,237.931885 666.583862,239.384125 
	C664.171570,250.861679 661.795166,262.168762 659.247253,274.291656 
	C650.357117,272.752289 641.473022,271.213959 631.860535,269.549530 
	C634.446472,257.221680 636.953552,245.269547 639.584473,232.727463 
	C643.199768,233.571304 646.370239,234.311310 649.949463,235.123871 
z"/>
<path fill="#203A67" opacity="1.000000" stroke="none" 
	d="
M818.978516,245.850510 
	C819.906494,234.322174 820.825684,223.273407 821.801575,211.542953 
	C831.781677,213.419678 840.657288,215.088699 849.303162,216.714523 
	C848.190308,228.353897 847.136536,239.375748 846.041016,250.834076 
	C837.967102,250.834076 829.845642,250.831787 821.724243,250.835144 
	C818.338196,250.836548 818.677917,248.571381 818.978516,245.850510 
z"/>
<path fill="#1F3967" opacity="1.000000" stroke="none" 
	d="
M971.095215,186.823486 
	C971.812134,192.496628 972.455688,197.738037 973.171143,203.565262 
	C963.711487,204.146606 954.833862,204.692200 946.022827,205.233688 
	C943.990845,194.565308 942.019043,184.213104 939.916992,173.177155 
	C947.721497,170.201843 956.140869,166.992142 965.634766,163.372772 
	C967.510498,171.387741 969.266174,178.889740 971.095215,186.823486 
z"/>
<path fill="#1F3A67" opacity="1.000000" stroke="none" 
	d="
M508.278290,133.513916 
	C512.361023,133.558578 516.368286,133.799805 520.307495,134.451614 
	C525.354004,135.286667 530.345825,136.452271 536.242188,137.655151 
	C532.941772,150.029099 529.721191,162.103897 526.337280,174.791016 
	C517.132019,171.754425 508.576843,168.932281 500.043335,166.117279 
	C502.837982,155.039261 505.505249,144.466095 508.278290,133.513916 
z"/>
<path fill="#1F3967" opacity="1.000000" stroke="none" 
	d="
M173.214264,128.794083 
	C176.572647,131.783234 179.669479,134.531647 182.780365,137.292557 
	C175.211990,146.544281 167.844070,155.550980 160.131775,164.978653 
	C152.955887,159.513351 145.750290,154.025391 137.956268,148.089294 
	C146.064362,138.217865 153.932510,128.638550 161.916519,118.918205 
	C165.961121,122.449348 169.456924,125.501350 173.214264,128.794083 
z"/>
<path fill="#1F3967" opacity="1.000000" stroke="none" 
	d="
M874.954041,457.895081 
	C877.404663,452.616974 879.728516,447.694427 882.220154,442.416321 
	C890.587646,446.192749 898.684631,449.847137 907.577087,453.860535 
	C902.250366,465.062195 897.033508,476.032745 891.518555,487.630096 
	C883.052307,483.350830 875.023499,479.292633 866.627502,475.048859 
	C869.489807,469.184998 872.158508,463.717804 874.954041,457.895081 
z"/>
<path fill="#1E3967" opacity="1.000000" stroke="none" 
	d="
M597.729797,433.281067 
	C601.846863,436.902313 605.708252,440.277679 609.976746,444.008881 
	C601.503784,453.292725 593.262634,462.322601 584.732605,471.668915 
	C577.874329,465.104462 571.410828,458.917847 564.643982,452.440948 
	C572.786194,443.511017 580.785522,434.737762 589.003662,425.724457 
	C591.975281,428.289215 594.724731,430.662170 597.729797,433.281067 
z"/>
<path fill="#1F3967" opacity="1.000000" stroke="none" 
	d="
M328.638855,397.655457 
	C324.833038,403.311279 321.237579,408.670898 317.385986,414.412323 
	C309.681793,408.701935 302.384583,403.293182 295.227142,397.988037 
	C301.513489,388.082336 307.556000,378.560883 313.897827,368.567749 
	C321.699829,372.809143 329.657104,377.134949 338.081360,381.714630 
	C334.890778,387.121338 331.869995,392.240295 328.638855,397.655457 
z"/>
<path fill="#203A67" opacity="1.000000" stroke="none" 
	d="
M969.153076,263.276184 
	C968.246521,268.753754 967.401245,273.795288 966.472778,279.332703 
	C957.236877,277.539856 948.477417,275.839508 939.391296,274.075714 
	C941.143494,262.407990 942.855408,251.008789 944.650757,239.053848 
	C953.645142,239.917953 962.626465,240.780807 972.191589,241.699753 
	C971.149414,249.099869 970.181824,255.970047 969.153076,263.276184 
z"/>
<path fill="#1F3967" opacity="1.000000" stroke="none" 
	d="
M332.718750,320.482483 
	C333.428589,315.641968 334.026215,311.213593 334.632294,306.722473 
	C343.624023,306.722473 352.498383,306.722473 361.985321,306.722473 
	C361.961365,321.071350 358.468414,334.025421 353.854645,347.155609 
	C345.031708,343.975464 336.646698,340.953156 328.020355,337.843872 
	C329.599274,332.008514 331.102875,326.451569 332.718750,320.482483 
z"/>
<path fill="#1F3967" opacity="1.000000" stroke="none" 
	d="
M718.389954,156.141846 
	C715.363098,156.058426 712.741699,156.058426 709.406738,156.058426 
	C706.422241,148.388123 703.188110,140.076263 699.969055,131.803070 
	C711.939880,123.361397 738.635010,129.550583 748.380005,143.276459 
	C741.686279,149.079147 734.946106,154.922119 728.403381,160.593872 
	C725.013489,159.052536 721.904480,157.638901 718.389954,156.141846 
z"/>
<path fill="#1F3967" opacity="1.000000" stroke="none" 
	d="
M463.916626,533.985718 
	C471.077881,530.056946 477.890686,526.274475 485.331512,522.143311 
	C490.158813,529.385010 495.165649,536.895996 500.873047,545.457947 
	C489.130005,551.783752 477.703064,557.939331 465.687744,564.411804 
	C462.082184,554.960876 458.867401,546.534241 455.567749,537.885132 
	C458.518829,536.500793 461.043518,535.316467 463.916626,533.985718 
z"/>
<path fill="#1F3A67" opacity="1.000000" stroke="none" 
	d="
M650.190247,470.617889 
	C650.751587,476.498657 651.271667,481.918243 651.835999,487.798645 
	C642.685669,488.837799 633.830933,489.843353 624.129028,490.945129 
	C623.123047,478.442566 622.135864,466.173035 621.115173,453.487518 
	C630.700256,452.972931 639.581909,452.496094 648.894836,451.996094 
	C649.331665,458.321625 649.740356,464.239136 650.190247,470.617889 
z"/>
<path fill="#203A67" opacity="1.000000" stroke="none" 
	d="
M943.066772,372.009460 
	C943.974609,366.698486 944.836182,361.817627 945.745667,356.665253 
	C957.335449,357.884918 968.653687,359.076019 980.588501,360.332001 
	C980.174255,369.272827 979.757385,378.272247 979.302856,388.083588 
	C966.196899,386.700287 953.755920,385.387177 941.055725,384.046692 
	C941.808777,379.598053 942.414612,376.018799 943.066772,372.009460 
z"/>
<path fill="#1E3967" opacity="1.000000" stroke="none" 
	d="
M483.018463,207.968582 
	C484.436646,204.750824 485.738251,201.890961 487.276581,198.510956 
	C495.734467,202.102783 504.044342,205.631744 512.933899,209.406891 
	C507.644073,220.849930 502.524567,231.924576 497.183594,243.478241 
	C488.578827,239.240982 480.476379,235.251099 472.164276,231.157974 
	C475.874756,223.268356 479.388336,215.797424 483.018463,207.968582 
z"/>
<path fill="#1F3967" opacity="1.000000" stroke="none" 
	d="
M433.096893,352.128418 
	C429.525299,357.928162 426.146545,363.420868 422.575500,369.226166 
	C414.656433,364.684296 406.931274,360.253632 398.427673,355.376495 
	C405.055115,344.690826 411.545624,334.225922 418.230316,323.447998 
	C426.231598,328.664429 433.702667,333.535187 441.588104,338.676117 
	C438.723358,343.214081 436.006531,347.517731 433.096893,352.128418 
z"/>
<path fill="#203A67" opacity="1.000000" stroke="none" 
	d="
M647.593567,305.293030 
	C649.487671,305.628265 650.946533,305.907745 652.965454,306.294495 
	C651.795837,318.041382 650.624146,329.809448 649.407104,342.032684 
	C640.236450,341.294952 631.381348,340.582611 621.736938,339.806763 
	C622.975769,327.370270 624.181030,315.270477 625.431030,302.722198 
	C633.049133,303.604034 640.103760,304.420654 647.593567,305.293030 
z"/>
<path fill="#203A67" opacity="1.000000" stroke="none" 
	d="
M361.708923,487.284729 
	C361.104126,479.136292 360.589813,471.423615 360.030273,463.032745 
	C370.051361,463.569580 378.900146,464.043610 387.328430,464.495117 
	C388.615295,475.090515 389.846069,485.224335 391.153809,495.991577 
	C383.339233,498.579620 374.773651,501.416412 365.379181,504.527710 
	C364.114197,498.588531 362.956818,493.154541 361.708923,487.284729 
z"/>
<path fill="#1F3967" opacity="1.000000" stroke="none" 
	d="
M66.502457,356.299927 
	C63.586060,356.485474 61.126514,356.617279 57.352974,356.819489 
	C58.066132,343.747620 58.754261,331.134552 59.493439,317.585785 
	C69.207031,318.971497 78.095978,320.239594 87.136276,321.529236 
	C86.429008,333.035858 85.745049,344.163147 85.002350,356.246124 
	C79.143188,356.246124 73.051254,356.246124 66.502457,356.299927 
z"/>
</svg>