<svg version="1.1" id="Layer_1" xmlns="http://www.w3.org/2000/svg" xmlns:xlink="http://www.w3.org/1999/xlink" x="0px" y="0px"
	 width="100%" viewBox="0 0 1416 742" enable-background="new 0 0 1416 742" xml:space="preserve">
<path fill="#FFFFFF" opacity="1.000000" stroke="none" 
	d="
M940.000000,743.000000 
	C626.702820,743.000000 313.905670,743.000000 1.054261,743.000000 
	C1.054261,495.731445 1.054261,248.462891 1.054261,1.097161 
	C472.880646,1.097161 944.761292,1.097161 1416.821045,1.097161 
	C1416.821045,248.333221 1416.821045,495.666595 1416.821045,743.000000 
	C1258.129272,743.000000 1099.314697,743.000000 940.000000,743.000000 
M334.212860,81.773003 
	C248.355942,81.773003 162.499008,81.773003 76.308449,81.773003 
	C73.849777,206.225906 71.386841,330.894623 68.894897,457.031464 
	C92.179306,457.031464 114.469879,457.031464 137.097580,457.681122 
	C141.154556,465.543823 145.211548,473.406525 149.373962,481.473541 
	C158.237045,475.508087 166.074280,470.233063 173.813873,465.023773 
	C172.454514,462.421692 171.314194,460.238892 171.088791,458.019379 
	C181.557007,458.288025 192.024323,458.598877 202.493576,458.817657 
	C237.740662,459.554291 272.988556,460.250397 308.235840,460.978271 
	C323.364075,461.290649 338.491669,461.635162 353.618866,461.995544 
	C354.551727,462.017761 355.478241,462.307220 356.661743,462.517426 
	C356.661743,466.257690 356.661743,469.724731 355.990479,473.055847 
	C354.915619,472.991150 353.537415,472.472656 352.824371,472.949219 
	C350.906128,474.231323 349.349823,476.039246 347.511078,477.458679 
	C340.591217,482.800446 333.616089,488.070648 326.529175,493.468597 
	C331.490448,501.669556 336.375275,509.744141 341.378357,518.014221 
	C346.696045,514.535156 351.687012,511.269928 356.720856,508.938843 
	C356.720856,556.843262 356.720856,604.747742 356.720856,653.167053 
	C359.649597,653.167053 361.780609,653.167053 363.911621,653.167053 
	C498.184509,653.166992 632.457397,653.164307 766.730286,653.190796 
	C768.859375,653.191223 770.988281,653.548889 772.508423,654.149780 
	C768.906494,656.434814 765.304626,658.719788 761.504944,661.130249 
	C770.304932,675.160156 780.752014,686.526489 796.811523,692.083496 
	C800.459656,683.017456 804.012207,674.189148 806.968079,666.843384 
	C801.381348,661.779602 796.678772,657.517212 792.914124,653.205200 
	C830.678101,653.154297 868.442017,653.103394 906.748047,653.383179 
	C910.967468,658.510498 915.186890,663.637817 919.676575,669.093445 
	C925.761597,663.628540 931.687256,658.306763 938.590820,653.125427 
	C1067.384277,653.139099 1196.177734,653.153931 1324.971191,653.151001 
	C1326.206055,653.150940 1327.440918,652.916504 1329.192993,652.739136 
	C1328.260132,651.110229 1327.648560,649.984802 1326.984497,648.891479 
	C1307.633301,617.034851 1287.774170,585.471191 1269.169800,553.184387 
	C1261.762573,540.329773 1255.221191,526.345581 1251.704956,512.035461 
	C1247.055298,493.111908 1245.251709,473.417999 1243.173218,453.953949 
	C1241.126587,434.788391 1240.280273,415.495178 1238.875122,396.260345 
	C1238.120850,385.933655 1235.069336,376.388092 1228.990723,367.910614 
	C1223.463135,360.201355 1218.107910,352.359192 1212.338745,344.834869 
	C1206.589478,337.336639 1201.642944,329.662170 1201.041382,319.834381 
	C1200.544189,311.710358 1199.716675,303.604645 1198.937622,295.500244 
	C1197.634399,281.946899 1194.984253,268.928894 1185.998047,257.907623 
	C1181.595947,252.508469 1178.179688,246.318207 1174.065186,240.669708 
	C1163.199341,225.753128 1155.701050,209.865265 1154.693237,190.829880 
	C1153.911011,176.059311 1144.786987,169.149139 1129.818359,169.208542 
	C1122.997192,169.235611 1118.691162,165.080048 1115.182739,160.123032 
	C1112.909668,156.911392 1111.132202,153.190720 1109.869629,149.449417 
	C1104.246338,132.788452 1092.102417,123.783203 1075.609009,119.971519 
	C1062.181763,116.868454 1048.758301,113.551605 1035.161621,111.428123 
	C1017.798401,108.716385 1000.286255,106.867424 982.788330,105.157883 
	C976.733826,104.566353 971.220825,106.866203 966.362732,111.091568 
	C959.019470,117.478462 950.057068,120.795715 940.473572,121.865677 
	C934.051392,122.582687 927.640442,122.464790 921.485474,119.293091 
	C899.307800,107.864708 877.014160,96.659996 854.693848,85.511902 
	C852.559631,84.445969 849.939209,83.917030 847.536438,83.891487 
	C815.060059,83.546150 782.582642,83.227524 750.104675,83.116646 
	C710.618896,82.981842 671.132446,83.049896 631.175293,82.694374 
	C629.897949,82.826965 628.620544,82.959564 626.374573,82.926880 
	C587.100159,82.656609 547.826172,82.305496 508.551331,82.137016 
	C461.941040,81.937057 415.330078,81.894279 369.206116,81.272881 
	C371.522247,80.133209 373.838409,78.993538 376.196045,77.833443 
	C372.201019,68.753487 368.420593,60.161335 364.356995,50.925594 
	C352.096283,57.167965 340.356506,63.145103 328.484406,69.189613 
	C330.980957,73.869247 333.074951,77.794350 334.212860,81.773003 
M275.181305,511.005859 
	C270.397217,511.384949 265.613129,511.764069 260.418579,512.175659 
	C260.418579,521.805969 260.418579,531.326416 260.418579,541.012329 
	C274.824493,541.124023 288.633820,539.258972 302.518951,535.045044 
	C299.729462,525.467468 297.103882,516.452698 294.487854,507.470734 
	C288.098389,508.670746 282.088501,509.799500 275.181305,511.005859 
M432.931366,59.240231 
	C437.564728,58.205997 442.198059,57.171768 447.085938,56.080727 
	C445.231354,46.437191 443.460175,37.227318 441.528870,27.184660 
	C428.318268,30.453867 415.549042,33.613846 402.332153,36.884613 
	C405.383606,46.794369 408.183014,55.885605 410.973328,64.947235 
	C418.384430,63.042122 425.263062,61.273876 432.931366,59.240231 
M217.612579,502.012299 
	C210.764114,498.095245 203.915649,494.178192 196.843735,490.133362 
	C191.149628,497.504791 185.392807,504.957458 179.413193,512.698486 
	C191.095718,521.699219 203.444458,528.539734 217.394104,533.375305 
	C220.668350,524.038574 223.816544,515.061279 226.981598,506.035919 
	C223.780045,504.649719 221.048416,503.467010 217.612579,502.012299 
M596.652710,54.170708 
	C598.899048,51.323925 601.145447,48.477139 603.617310,45.344601 
	C591.455872,35.876015 578.175232,29.610130 563.305664,25.641399 
	C561.055908,35.305035 558.926086,44.453686 556.930115,53.027016 
	C566.862854,57.898445 576.323364,62.538296 586.171387,67.368202 
	C589.191101,63.556747 592.692200,59.137772 596.652710,54.170708 
M481.976105,27.006603 
	C482.623840,34.918110 483.271576,42.829620 483.879395,50.253651 
	C496.514130,50.253651 508.706421,50.253651 521.412231,50.253651 
	C521.412231,40.082546 521.412231,30.693777 521.412231,21.610937 
	C508.310028,21.610937 495.243958,21.610937 481.939362,21.610937 
	C481.939362,23.574974 481.939362,24.864668 481.976105,27.006603 
M846.420776,671.133850 
	C844.324524,671.394287 842.228271,671.654663 840.251831,671.900208 
	C840.251831,681.684204 840.251831,691.098633 840.251831,700.872925 
	C855.343018,700.528564 869.405945,697.370605 883.287170,691.385376 
	C879.387878,682.363892 875.601379,673.603333 872.103271,665.510132 
	C863.430542,667.451965 855.377014,669.255188 846.420776,671.133850 
z"/>
<path fill="#E6D06B" opacity="1.000000" stroke="none" 
	d="
M906.205994,653.052490 
	C868.442017,653.103394 830.678101,653.154297 792.138550,653.052490 
	C789.709473,650.677551 788.055908,648.455261 786.277283,646.064941 
	C781.840271,648.652588 777.478760,651.196167 773.117310,653.739868 
	C770.988281,653.548889 768.859375,653.191223 766.730286,653.190796 
	C632.457397,653.164307 498.184509,653.166992 363.911621,653.167053 
	C361.780609,653.167053 359.649597,653.167053 356.720856,653.167053 
	C356.720856,604.747742 356.720856,556.843262 356.882385,508.161926 
	C362.852295,502.555817 368.660614,497.726624 374.583984,492.801788 
	C368.258972,485.881134 362.460358,479.536438 356.661743,473.191772 
	C356.661743,469.724731 356.661743,466.257690 356.661743,462.517426 
	C355.478241,462.307220 354.551727,462.017761 353.618866,461.995544 
	C338.491669,461.635162 323.364075,461.290649 308.235840,460.978271 
	C272.988556,460.250397 237.740662,459.554291 202.493576,458.817657 
	C192.024323,458.598877 181.557007,458.288025 170.395416,457.765320 
	C166.163834,449.746918 162.625626,441.982544 159.022903,434.076660 
	C150.068115,436.687164 141.063110,439.312317 131.631271,442.061890 
	C133.461273,447.402771 135.110870,452.217102 136.760452,457.031464 
	C114.469879,457.031464 92.179306,457.031464 68.894897,457.031464 
	C71.386841,330.894623 73.849777,206.225906 76.308449,81.773003 
	C162.499008,81.773003 248.355942,81.773003 334.977356,81.956619 
	C338.182007,86.236420 340.622131,90.332603 343.038971,94.389648 
	C351.866028,90.056534 360.292725,85.919968 368.719391,81.783401 
	C415.330078,81.894279 461.941040,81.937057 508.551331,82.137016 
	C547.826172,82.305496 587.100159,82.656609 626.597412,83.285309 
	C619.199768,86.758316 611.579285,89.872902 604.871643,92.614418 
	C606.914185,104.072334 608.798828,114.644234 610.661255,125.091537 
	C619.837463,125.091537 629.227905,125.091537 638.909851,125.091537 
	C638.991882,110.226448 636.093079,96.498405 631.646240,83.030197 
	C671.132446,83.049896 710.618896,82.981842 750.104675,83.116646 
	C782.582642,83.227524 815.060059,83.546150 847.536438,83.891487 
	C849.939209,83.917030 852.559631,84.445969 854.693848,85.511902 
	C877.014160,96.659996 899.307800,107.864708 921.485474,119.293091 
	C927.640442,122.464790 934.051392,122.582687 940.473572,121.865677 
	C950.057068,120.795715 959.019470,117.478462 966.362732,111.091568 
	C971.220825,106.866203 976.733826,104.566353 982.788330,105.157883 
	C1000.286255,106.867424 1017.798401,108.716385 1035.161621,111.428123 
	C1048.758301,113.551605 1062.181763,116.868454 1075.609009,119.971519 
	C1092.102417,123.783203 1104.246338,132.788452 1109.869629,149.449417 
	C1111.132202,153.190720 1112.909668,156.911392 1115.182739,160.123032 
	C1118.691162,165.080048 1122.997192,169.235611 1129.818359,169.208542 
	C1144.786987,169.149139 1153.911011,176.059311 1154.693237,190.829880 
	C1155.701050,209.865265 1163.199341,225.753128 1174.065186,240.669708 
	C1178.179688,246.318207 1181.595947,252.508469 1185.998047,257.907623 
	C1194.984253,268.928894 1197.634399,281.946899 1198.937622,295.500244 
	C1199.716675,303.604645 1200.544189,311.710358 1201.041382,319.834381 
	C1201.642944,329.662170 1206.589478,337.336639 1212.338745,344.834869 
	C1218.107910,352.359192 1223.463135,360.201355 1228.990723,367.910614 
	C1235.069336,376.388092 1238.120850,385.933655 1238.875122,396.260345 
	C1240.280273,415.495178 1241.126587,434.788391 1243.173218,453.953949 
	C1245.251709,473.417999 1247.055298,493.111908 1251.704956,512.035461 
	C1255.221191,526.345581 1261.762573,540.329773 1269.169800,553.184387 
	C1287.774170,585.471191 1307.633301,617.034851 1326.984497,648.891479 
	C1327.648560,649.984802 1328.260132,651.110229 1329.192993,652.739136 
	C1327.440918,652.916504 1326.206055,653.150940 1324.971191,653.151001 
	C1196.177734,653.153931 1067.384277,653.139099 938.272217,652.739502 
	C941.544983,648.456482 945.136292,644.559265 949.075256,640.284851 
	C941.701294,633.810608 934.531860,627.515991 927.155762,621.039856 
	C918.735413,629.994568 910.589844,638.657104 902.255493,647.520386 
	C903.139648,648.758545 904.672852,650.905579 906.205994,653.052490 
M1178.187012,445.310913 
	C1178.976440,444.738098 1180.180908,444.332428 1180.489502,443.565979 
	C1182.971436,437.401703 1185.301880,431.175995 1187.645630,424.956573 
	C1192.366333,412.429871 1197.065918,399.895325 1201.961914,386.864655 
	C1181.762451,382.655365 1162.094604,378.556885 1141.227295,374.208466 
	C1145.532104,382.577087 1149.145752,389.602295 1153.022461,397.138855 
	C1147.170288,398.604279 1141.786133,399.952484 1136.345703,401.314819 
	C1138.115479,411.097687 1139.787842,420.342621 1141.549316,430.080017 
	C1150.323486,427.907837 1158.483398,425.887756 1166.880615,423.808899 
	C1170.592163,430.856201 1174.224243,437.752350 1178.187012,445.310913 
M363.873749,261.526459 
	C364.133636,259.921844 364.393494,258.317230 364.732971,256.221161 
	C359.774719,255.451996 355.069763,254.388916 350.316925,254.091766 
	C346.609406,253.859955 345.555908,252.554718 345.709503,248.905045 
	C346.012329,241.710159 345.798767,234.493546 345.798767,226.349960 
	C329.234467,240.408264 313.350586,253.889084 297.085724,267.693237 
	C312.850983,281.299286 328.126648,294.482819 344.601593,308.701355 
	C344.601593,299.222290 344.601593,291.286102 344.601593,282.710083 
	C349.770599,283.463074 354.115509,284.096008 358.837372,284.783844 
	C360.485291,277.203033 362.101013,269.770233 363.873749,261.526459 
M754.914856,434.524261 
	C754.914856,431.097260 754.914856,427.670258 754.914856,423.652069 
	C745.044434,423.652069 735.789001,423.652069 725.838867,423.652069 
	C725.838867,436.686035 725.838867,449.860962 725.838867,462.862427 
	C735.363281,462.862427 744.770813,462.862427 754.906677,462.862427 
	C754.906677,453.456116 754.906677,444.487335 754.914856,434.524261 
M153.400436,399.092194 
	C153.723511,398.743896 154.311813,398.409729 154.331177,398.045319 
	C154.945755,386.481262 155.505127,374.914215 156.083557,363.129822 
	C146.769318,361.736572 137.450668,360.342651 127.237480,358.814941 
	C126.339172,372.795288 125.480446,386.159851 124.642616,399.199066 
	C134.650131,399.199066 143.593124,399.199066 153.400436,399.092194 
M477.524963,519.891724 
	C477.505768,517.982849 478.228973,515.717590 475.032806,515.555481 
	C466.282837,515.111450 457.536346,514.599182 448.314545,514.087646 
	C447.550720,529.160217 449.122986,543.312134 453.766632,557.740540 
	C463.142242,554.654968 472.057861,551.720825 480.315460,549.003235 
	C479.344910,539.217957 478.431976,530.013306 477.524963,519.891724 
M1036.973877,176.174637 
	C1040.766479,177.724640 1044.559082,179.274628 1048.549194,180.905396 
	C1053.852051,173.069046 1059.116943,165.288971 1064.626343,157.147415 
	C1050.115479,147.922699 1034.983276,143.949692 1017.727295,145.501999 
	C1018.976013,155.451355 1020.161255,164.894501 1021.291870,173.902573 
	C1026.687866,174.659180 1031.426880,175.323669 1036.973877,176.174637 
M746.649414,344.959412 
	C741.583801,344.321167 736.518188,343.682953 730.848633,342.968628 
	C729.499878,356.213898 728.194824,369.029846 726.843323,382.302246 
	C736.816406,383.061890 746.203735,383.776917 756.032227,384.525543 
	C757.322693,371.713348 758.576050,359.269165 759.853577,346.584961 
	C755.413147,346.018005 751.477966,345.515564 746.649414,344.959412 
M730.358032,503.737701 
	C727.591797,503.583740 725.855103,504.194122 726.579895,507.653290 
	C727.052368,509.908051 726.832275,512.300537 727.022705,514.623047 
	C727.794067,524.033142 728.604370,533.440125 729.446716,543.396484 
	C739.535278,542.283875 748.994690,541.240662 758.454529,540.197327 
	C757.418030,527.102417 756.450867,514.882751 755.457886,502.337463 
	C747.134338,502.786163 739.182861,503.214813 730.358032,503.737701 
M872.885010,221.703873 
	C872.336304,221.191788 871.832581,220.295624 871.232117,220.225266 
	C862.348755,219.184280 853.452576,218.252884 844.716187,217.312408 
	C841.786987,228.823105 838.933960,240.034546 835.954895,251.741287 
	C844.813171,254.868835 853.779907,258.034668 863.908691,261.610779 
	C867.013306,248.065628 869.936890,235.310333 872.885010,221.703873 
M1054.469727,388.003082 
	C1060.875122,390.051636 1067.280518,392.100189 1074.078247,394.274200 
	C1077.891968,381.352570 1081.530640,369.023804 1085.258667,356.392609 
	C1075.531860,353.782715 1066.459473,351.348450 1057.042480,348.821716 
	C1053.380737,361.171570 1049.831421,373.141907 1046.234009,385.274445 
	C1049.017822,386.215240 1051.360229,387.006897 1054.469727,388.003082 
M767.757019,307.242523 
	C769.887878,296.729218 772.018677,286.215881 774.231567,275.297791 
	C764.822205,272.968231 755.736023,270.718658 745.952332,268.296417 
	C743.137390,281.592926 740.451843,294.278168 737.699707,307.278229 
	C747.779846,309.046265 757.025696,310.667969 766.464722,312.323547 
	C766.914734,310.584198 767.239502,309.328888 767.757019,307.242523 
M416.226257,381.093567 
	C424.292877,384.010010 432.359497,386.926422 440.773773,389.968536 
	C445.729187,376.177826 449.063873,362.483917 449.547180,347.506409 
	C439.568939,347.506409 430.063263,347.506409 421.452881,347.506409 
	C418.994965,357.658051 416.563812,367.435760 414.340454,377.260559 
	C414.098969,378.327637 415.058411,379.666534 416.226257,381.093567 
M741.106995,609.384277 
	C742.273804,613.505493 743.440552,617.626709 744.737427,622.207336 
	C754.222778,619.264038 763.319153,616.441467 772.334656,613.643982 
	C769.398499,601.404907 766.587524,589.687256 763.679749,577.566345 
	C754.097717,579.342285 744.870667,581.052429 735.040527,582.874329 
	C737.105408,591.819336 739.038879,600.194946 741.106995,609.384277 
M1072.735229,275.160217 
	C1072.106201,275.927490 1071.077393,276.620026 1070.917603,277.475037 
	C1070.246216,281.065796 1069.859497,284.708771 1069.322998,288.325897 
	C1068.161865,296.156525 1066.972656,303.982971 1065.747192,312.129181 
	C1075.474121,313.993591 1084.679565,315.758026 1094.527466,317.645630 
	C1096.546509,303.948517 1098.443604,291.078949 1100.378540,277.952454 
	C1090.794556,276.970886 1082.196411,276.090302 1072.735229,275.160217 
M148.718094,322.740479 
	C153.946472,324.244629 159.174835,325.748749 164.500580,327.280914 
	C168.747559,315.501465 172.845139,304.136383 177.087860,292.368713 
	C168.263916,288.642975 159.476883,284.932770 150.117920,280.981110 
	C145.483139,293.870239 141.060638,306.169006 136.462799,318.955353 
	C140.748566,320.254456 144.359787,321.349060 148.718094,322.740479 
M601.848083,179.223358 
	C600.200378,184.927887 598.552673,190.632431 596.761536,196.833740 
	C606.013245,199.879623 615.052856,202.855652 624.779846,206.057999 
	C628.301208,192.834778 631.692017,180.101776 635.229004,166.819931 
	C625.130371,164.823730 615.815186,162.982376 606.390991,161.119476 
	C604.847168,167.204849 603.424805,172.811630 601.848083,179.223358 
M770.480042,376.955383 
	C768.546631,379.787476 766.613159,382.619537 764.501282,385.712982 
	C772.671082,391.393951 780.415283,396.779022 788.566162,402.446869 
	C795.928589,391.397797 803.089172,380.651703 810.455383,369.597015 
	C801.976746,364.209442 793.910828,359.084106 785.743164,353.894135 
	C780.596375,361.677979 775.742798,369.018280 770.480042,376.955383 
M465.834778,445.298889 
	C462.491821,454.274017 459.148865,463.249146 455.645477,472.654968 
	C465.463837,475.561584 474.600800,478.266479 483.566315,480.920624 
	C488.068359,469.200134 492.377075,457.982941 496.749023,446.601044 
	C487.914215,442.574615 479.359924,438.676025 470.549377,434.660675 
	C468.919678,438.253510 467.487854,441.410156 465.834778,445.298889 
M959.483704,576.948425 
	C956.344543,581.789917 953.205383,586.631409 949.908142,591.716736 
	C957.892639,597.267029 965.641907,602.653748 974.006409,608.468201 
	C981.211853,597.095032 988.251709,585.983276 995.409851,574.684814 
	C986.507568,569.499146 978.380249,564.764954 970.082947,559.931702 
	C966.528015,565.651123 963.205811,570.996155 959.483704,576.948425 
M1030.830322,461.628601 
	C1036.024536,463.711182 1041.218750,465.793762 1046.867065,468.058441 
	C1051.636719,455.785278 1056.296021,443.796143 1061.092285,431.454651 
	C1051.695068,428.012543 1042.764771,424.741486 1033.639893,421.399200 
	C1028.902710,433.600647 1024.428589,445.124542 1019.806396,457.029846 
	C1023.462708,458.532776 1026.804443,459.906433 1030.830322,461.628601 
M563.080688,307.471588 
	C558.630798,305.000061 554.180847,302.528534 549.624573,299.997925 
	C543.139771,311.125610 536.894958,321.841431 530.377563,333.025024 
	C538.759705,338.130676 546.892273,343.084351 555.355713,348.239563 
	C562.089233,336.664581 568.547974,325.561890 575.138672,314.232300 
	C570.936401,311.886566 567.323914,309.870087 563.080688,307.471588 
M497.417389,384.884491 
	C494.690125,389.407898 491.962830,393.931274 488.920197,398.977722 
	C497.560699,403.962189 505.800873,408.715698 514.124512,413.517365 
	C520.999512,402.446411 527.524109,391.939819 534.185547,381.212799 
	C525.927368,375.852692 518.033936,370.729309 509.745331,365.349426 
	C505.586700,371.952972 501.705597,378.115814 497.417389,384.884491 
M843.219971,306.694244 
	C844.523376,304.053650 845.826721,301.413025 847.260681,298.507874 
	C838.271362,294.184479 829.687866,290.056274 821.082703,285.917633 
	C815.084412,297.384186 809.362366,308.322632 803.520447,319.490234 
	C812.138306,324.360107 820.287842,328.965393 828.872314,333.816437 
	C833.761169,324.619049 838.342957,315.999298 843.219971,306.694244 
M1067.019897,209.607788 
	C1068.942017,219.155365 1070.864014,228.702942 1072.863159,238.633041 
	C1081.938232,238.060165 1091.301636,237.469070 1101.099243,236.850586 
	C1100.166016,222.173355 1097.972290,208.276382 1092.687378,194.704468 
	C1084.435303,197.841141 1076.742432,200.936493 1068.918579,203.654785 
	C1065.792236,204.741028 1065.510864,206.283325 1067.019897,209.607788 
M512.907349,622.329895 
	C515.923401,613.918030 518.939514,605.506226 521.692444,597.828247 
	C513.451416,590.664551 505.702881,583.929016 497.619476,576.902344 
	C490.657562,583.185303 483.583282,589.569702 476.223145,596.212036 
	C486.330719,606.036133 495.491119,615.743774 507.403259,622.135437 
	C508.881104,622.928467 510.876251,622.757324 512.907349,622.329895 
M432.682831,293.827179 
	C425.118622,284.480164 416.084595,276.955017 405.251373,271.166931 
	C400.418304,279.790680 395.808960,288.015228 391.650574,295.435089 
	C399.485199,302.626678 406.972626,309.499542 414.841248,316.722321 
	C422.201477,312.354706 430.284302,307.558289 438.834961,302.484222 
	C436.715820,299.492004 434.912292,296.945496 432.682831,293.827179 
M1019.779358,415.742859 
	C1022.246399,416.647461 1024.713379,417.552032 1027.636719,418.623962 
	C1030.954102,409.422363 1034.141357,400.581879 1037.275635,391.888397 
	C1026.580688,386.574524 1016.257629,381.445465 1005.666321,376.183136 
	C1000.500000,383.892242 995.258972,391.712738 989.337646,400.548340 
	C999.565918,405.644775 1009.331543,410.510651 1019.779358,415.742859 
M420.860779,432.302582 
	C421.678436,430.714294 422.496094,429.126007 423.548126,427.082458 
	C414.951843,422.417908 406.606720,417.889679 398.355774,413.412537 
	C391.591553,424.079437 385.223846,434.121094 378.686890,444.429657 
	C386.356476,450.122101 393.903687,455.723755 402.182220,461.868164 
	C408.455078,451.946808 414.463226,442.444153 420.860779,432.302582 
M189.130447,256.411591 
	C190.568909,257.081055 192.007385,257.750549 193.486679,258.439026 
	C199.908417,247.621445 206.082001,237.221832 212.549759,226.326721 
	C204.449936,221.075897 196.464554,215.899261 187.991684,210.406601 
	C181.057053,222.139633 174.431702,233.349411 167.637405,244.845001 
	C175.034973,248.831757 181.745331,252.448151 189.130447,256.411591 
M636.957703,531.397461 
	C628.338074,539.140686 619.718506,546.883850 610.919922,554.787842 
	C617.099548,562.264465 623.121704,569.550415 629.517700,577.288696 
	C639.519653,568.383301 649.285950,559.687805 659.272095,550.796448 
	C652.851013,544.014771 646.848022,537.590027 640.695068,531.312439 
	C640.106750,530.712158 638.583008,531.028809 636.957703,531.397461 
M591.417725,604.932373 
	C593.192017,603.770630 594.966309,602.608887 597.053223,601.242493 
	C591.575989,592.976501 586.302002,585.017334 581.237915,577.374878 
	C570.463501,583.193909 560.304810,588.680420 549.833496,594.335815 
	C553.220947,603.140625 556.637146,612.020325 560.393066,621.782959 
	C570.991882,616.028992 580.888367,610.656250 591.417725,604.932373 
M976.454285,356.893585 
	C978.048340,355.739563 979.642456,354.585510 980.744568,353.787689 
	C976.695801,343.400269 972.807495,333.424561 968.688477,322.856903 
	C959.927246,324.739319 950.630798,326.736725 941.038696,328.797638 
	C944.448914,343.650970 949.096252,357.262878 957.779114,369.681641 
	C964.097534,365.343750 969.969849,361.312164 976.454285,356.893585 
M1072.929199,400.604034 
	C1071.109253,409.960358 1069.289307,419.316650 1067.307617,429.504852 
	C1081.421265,430.928162 1094.524414,432.249542 1107.925171,433.600952 
	C1108.406616,423.011658 1108.832520,413.640320 1109.242065,404.630646 
	C1096.803345,403.148926 1085.247437,401.772339 1072.929199,400.604034 
M976.277527,169.306320 
	C975.710144,169.524445 974.959473,169.580383 974.602112,169.984299 
	C965.276184,180.525681 958.421509,192.552612 952.829712,205.872055 
	C961.944824,209.670609 970.739075,213.335434 978.930237,216.748947 
	C984.900635,206.875198 990.553589,197.526474 996.443726,187.785461 
	C990.280151,182.096619 983.564636,175.898422 976.277527,169.306320 
M245.430145,155.071716 
	C242.455597,152.526993 239.481049,149.982254 236.119934,147.106796 
	C227.619049,157.498230 219.458786,167.473297 210.986786,177.829437 
	C219.071747,183.982697 226.558640,189.680786 234.234894,195.522995 
	C242.335052,185.634995 250.173706,176.066223 258.149902,166.329529 
	C253.915833,162.585175 249.936203,159.065842 245.430145,155.071716 
M767.345642,206.852570 
	C764.142090,214.292648 760.938477,221.732742 757.533264,229.641098 
	C766.992554,233.073822 775.946411,236.323105 784.760254,239.521606 
	C789.878479,228.448761 794.730530,217.951797 799.791199,207.003540 
	C791.996277,202.168442 783.871948,197.128983 775.362427,191.850601 
	C772.688721,196.867249 770.201538,201.533951 767.345642,206.852570 
M940.650574,248.223511 
	C939.186218,260.989105 937.721863,273.754730 936.213013,286.908203 
	C947.006287,286.908203 956.391907,286.908203 965.745300,286.908203 
	C966.921509,274.971313 968.070496,263.309937 969.256653,251.271591 
	C960.612427,249.600998 951.862122,247.875198 943.087341,246.284439 
	C942.433167,246.165848 941.603577,247.014847 940.650574,248.223511 
M1007.218750,536.265381 
	C1009.416016,537.337036 1011.613342,538.408752 1014.334473,539.735901 
	C1020.092102,527.721008 1025.644531,516.134338 1031.341431,504.246063 
	C1022.171692,500.098450 1013.581177,496.212799 1004.692139,492.192169 
	C999.172607,503.777252 993.794250,515.065918 988.308716,526.579529 
	C994.733032,529.886841 1000.632141,532.923828 1007.218750,536.265381 
M704.941040,503.440338 
	C707.790466,500.226349 710.639893,497.012390 713.729187,493.527893 
	C706.298706,487.019867 699.206299,480.807953 691.835876,474.352509 
	C683.103516,483.937134 674.674500,493.188721 666.052673,502.652039 
	C673.244568,509.479095 680.075134,515.963196 687.174255,522.702148 
	C693.203857,516.163086 698.831177,510.060333 704.941040,503.440338 
M272.102386,110.603073 
	C269.463135,113.077477 266.823914,115.551872 264.008148,118.191788 
	C270.937134,125.455688 277.449799,132.283112 283.920593,139.066650 
	C293.475830,130.955307 302.693817,123.130241 312.216919,115.046188 
	C306.415680,107.383957 300.655396,99.775772 294.628418,91.815361 
	C286.937622,98.219337 279.784424,104.175690 272.102386,110.603073 
M846.396851,161.018295 
	C834.655762,156.039246 822.819824,155.091949 810.199707,159.837845 
	C813.774902,169.131927 817.152527,177.912308 820.591919,186.853119 
	C828.057739,184.660263 834.292847,186.792084 840.007874,191.247360 
	C847.357422,184.903122 854.474976,178.759155 862.583801,171.759521 
	C856.898010,167.916519 851.999634,164.605759 846.396851,161.018295 
M568.786804,263.402466 
	C569.052612,264.723389 568.894897,266.841034 569.649597,267.242279 
	C577.391602,271.358002 585.281677,275.195404 593.657410,279.373413 
	C599.272156,267.257660 604.738586,255.461884 610.345215,243.363693 
	C600.963501,239.392578 592.205200,235.685333 583.473328,231.989288 
	C578.506592,242.583923 573.792969,252.638596 568.786804,263.402466 
z"/>
<path fill="#243866" opacity="1.000000" stroke="none" 
	d="
M275.629944,510.967041 
	C282.088501,509.799500 288.098389,508.670746 294.487854,507.470734 
	C297.103882,516.452698 299.729462,525.467468 302.518951,535.045044 
	C288.633820,539.258972 274.824493,541.124023 260.418579,541.012329 
	C260.418579,531.326416 260.418579,521.805969 260.418579,512.175659 
	C265.613129,511.764069 270.397217,511.384949 275.629944,510.967041 
z"/>
<path fill="#243866" opacity="1.000000" stroke="none" 
	d="
M432.536560,59.372932 
	C425.263062,61.273876 418.384430,63.042122 410.973328,64.947235 
	C408.183014,55.885605 405.383606,46.794369 402.332153,36.884613 
	C415.549042,33.613846 428.318268,30.453867 441.528870,27.184660 
	C443.460175,37.227318 445.231354,46.437191 447.085938,56.080727 
	C442.198059,57.171768 437.564728,58.205997 432.536560,59.372932 
z"/>
<path fill="#243866" opacity="1.000000" stroke="none" 
	d="
M217.964691,502.148285 
	C221.048416,503.467010 223.780045,504.649719 226.981598,506.035919 
	C223.816544,515.061279 220.668350,524.038574 217.394104,533.375305 
	C203.444458,528.539734 191.095718,521.699219 179.413193,512.698486 
	C185.392807,504.957458 191.149628,497.504791 196.843735,490.133362 
	C203.915649,494.178192 210.764114,498.095245 217.964691,502.148285 
z"/>
<path fill="#243866" opacity="1.000000" stroke="none" 
	d="
M596.422974,54.444752 
	C592.692200,59.137772 589.191101,63.556747 586.171387,67.368202 
	C576.323364,62.538296 566.862854,57.898445 556.930115,53.027016 
	C558.926086,44.453686 561.055908,35.305035 563.305664,25.641399 
	C578.175232,29.610130 591.455872,35.876015 603.617310,45.344601 
	C601.145447,48.477139 598.899048,51.323925 596.422974,54.444752 
z"/>
<path fill="#243764" opacity="1.000000" stroke="none" 
	d="
M631.410767,82.862289 
	C636.093079,96.498405 638.991882,110.226448 638.909851,125.091537 
	C629.227905,125.091537 619.837463,125.091537 610.661255,125.091537 
	C608.798828,114.644234 606.914185,104.072334 604.871643,92.614418 
	C611.579285,89.872902 619.199768,86.758316 627.081665,83.367950 
	C628.620544,82.959564 629.897949,82.826965 631.410767,82.862289 
z"/>
<path fill="#233766" opacity="1.000000" stroke="none" 
	d="
M481.957733,26.580482 
	C481.939362,24.864668 481.939362,23.574974 481.939362,21.610937 
	C495.243958,21.610937 508.310028,21.610937 521.412231,21.610937 
	C521.412231,30.693777 521.412231,40.082546 521.412231,50.253651 
	C508.706421,50.253651 496.514130,50.253651 483.879395,50.253651 
	C483.271576,42.829620 482.623840,34.918110 481.957733,26.580482 
z"/>
<path fill="#243865" opacity="1.000000" stroke="none" 
	d="
M368.962769,81.528137 
	C360.292725,85.919968 351.866028,90.056534 343.038971,94.389648 
	C340.622131,90.332603 338.182007,86.236420 335.455414,81.929855 
	C333.074951,77.794350 330.980957,73.869247 328.484406,69.189613 
	C340.356506,63.145103 352.096283,57.167965 364.356995,50.925594 
	C368.420593,60.161335 372.201019,68.753487 376.196045,77.833443 
	C373.838409,78.993538 371.522247,80.133209 368.962769,81.528137 
z"/>
<path fill="#233766" opacity="1.000000" stroke="none" 
	d="
M846.872131,671.096130 
	C855.377014,669.255188 863.430542,667.451965 872.103271,665.510132 
	C875.601379,673.603333 879.387878,682.363892 883.287170,691.385376 
	C869.405945,697.370605 855.343018,700.528564 840.251831,700.872925 
	C840.251831,691.098633 840.251831,681.684204 840.251831,671.900208 
	C842.228271,671.654663 844.324524,671.394287 846.872131,671.096130 
z"/>
<path fill="#243866" opacity="1.000000" stroke="none" 
	d="
M772.812866,653.944824 
	C777.478760,651.196167 781.840271,648.652588 786.277283,646.064941 
	C788.055908,648.455261 789.709473,650.677551 791.669556,653.077332 
	C796.678772,657.517212 801.381348,661.779602 806.968079,666.843384 
	C804.012207,674.189148 800.459656,683.017456 796.811523,692.083496 
	C780.752014,686.526489 770.304932,675.160156 761.504944,661.130249 
	C765.304626,658.719788 768.906494,656.434814 772.812866,653.944824 
z"/>
<path fill="#243865" opacity="1.000000" stroke="none" 
	d="
M906.477051,653.217896 
	C904.672852,650.905579 903.139648,648.758545 902.255493,647.520386 
	C910.589844,638.657104 918.735413,629.994568 927.155762,621.039856 
	C934.531860,627.515991 941.701294,633.810608 949.075256,640.284851 
	C945.136292,644.559265 941.544983,648.456482 937.783325,652.669312 
	C931.687256,658.306763 925.761597,663.628540 919.676575,669.093445 
	C915.186890,663.637817 910.967468,658.510498 906.477051,653.217896 
z"/>
<path fill="#243865" opacity="1.000000" stroke="none" 
	d="
M136.929016,457.356293 
	C135.110870,452.217102 133.461273,447.402771 131.631271,442.061890 
	C141.063110,439.312317 150.068115,436.687164 159.022903,434.076660 
	C162.625626,441.982544 166.163834,449.746918 169.937958,457.783691 
	C171.314194,460.238892 172.454514,462.421692 173.813873,465.023773 
	C166.074280,470.233063 158.237045,475.508087 149.373962,481.473541 
	C145.211548,473.406525 141.154556,465.543823 136.929016,457.356293 
z"/>
<path fill="#243765" opacity="1.000000" stroke="none" 
	d="
M356.326111,473.123810 
	C362.460358,479.536438 368.258972,485.881134 374.583984,492.801788 
	C368.660614,497.726624 362.852295,502.555817 356.860962,507.694824 
	C351.687012,511.269928 346.696045,514.535156 341.378357,518.014221 
	C336.375275,509.744141 331.490448,501.669556 326.529175,493.468597 
	C333.616089,488.070648 340.591217,482.800446 347.511078,477.458679 
	C349.349823,476.039246 350.906128,474.231323 352.824371,472.949219 
	C353.537415,472.472656 354.915619,472.991150 356.326111,473.123810 
z"/>
<path fill="#233764" opacity="1.000000" stroke="none" 
	d="
M1178.021606,444.979675 
	C1174.224243,437.752350 1170.592163,430.856201 1166.880615,423.808899 
	C1158.483398,425.887756 1150.323486,427.907837 1141.549316,430.080017 
	C1139.787842,420.342621 1138.115479,411.097687 1136.345703,401.314819 
	C1141.786133,399.952484 1147.170288,398.604279 1153.022461,397.138855 
	C1149.145752,389.602295 1145.532104,382.577087 1141.227295,374.208466 
	C1162.094604,378.556885 1181.762451,382.655365 1201.961914,386.864655 
	C1197.065918,399.895325 1192.366333,412.429871 1187.645630,424.956573 
	C1185.301880,431.175995 1182.971436,437.401703 1180.489502,443.565979 
	C1180.180908,444.332428 1178.976440,444.738098 1178.021606,444.979675 
z"/>
<path fill="#233764" opacity="1.000000" stroke="none" 
	d="
M363.795227,261.931946 
	C362.101013,269.770233 360.485291,277.203033 358.837372,284.783844 
	C354.115509,284.096008 349.770599,283.463074 344.601593,282.710083 
	C344.601593,291.286102 344.601593,299.222290 344.601593,308.701355 
	C328.126648,294.482819 312.850983,281.299286 297.085724,267.693237 
	C313.350586,253.889084 329.234467,240.408264 345.798767,226.349960 
	C345.798767,234.493546 346.012329,241.710159 345.709503,248.905045 
	C345.555908,252.554718 346.609406,253.859955 350.316925,254.091766 
	C355.069763,254.388916 359.774719,255.451996 364.732971,256.221161 
	C364.393494,258.317230 364.133636,259.921844 363.795227,261.931946 
z"/>
<path fill="#243764" opacity="1.000000" stroke="none" 
	d="
M754.910767,435.021423 
	C754.906677,444.487335 754.906677,453.456116 754.906677,462.862427 
	C744.770813,462.862427 735.363281,462.862427 725.838867,462.862427 
	C725.838867,449.860962 725.838867,436.686035 725.838867,423.652069 
	C735.789001,423.652069 745.044434,423.652069 754.914856,423.652069 
	C754.914856,427.670258 754.914856,431.097260 754.910767,435.021423 
z"/>
<path fill="#243864" opacity="1.000000" stroke="none" 
	d="
M152.968262,399.145630 
	C143.593124,399.199066 134.650131,399.199066 124.642616,399.199066 
	C125.480446,386.159851 126.339172,372.795288 127.237480,358.814941 
	C137.450668,360.342651 146.769318,361.736572 156.083557,363.129822 
	C155.505127,374.914215 154.945755,386.481262 154.331177,398.045319 
	C154.311813,398.409729 153.723511,398.743896 152.968262,399.145630 
z"/>
<path fill="#253864" opacity="1.000000" stroke="none" 
	d="
M477.521973,520.350220 
	C478.431976,530.013306 479.344910,539.217957 480.315460,549.003235 
	C472.057861,551.720825 463.142242,554.654968 453.766632,557.740540 
	C449.122986,543.312134 447.550720,529.160217 448.314545,514.087646 
	C457.536346,514.599182 466.282837,515.111450 475.032806,515.555481 
	C478.228973,515.717590 477.505768,517.982849 477.521973,520.350220 
z"/>
<path fill="#243864" opacity="1.000000" stroke="none" 
	d="
M1036.569824,176.081390 
	C1031.426880,175.323669 1026.687866,174.659180 1021.291870,173.902573 
	C1020.161255,164.894501 1018.976013,155.451355 1017.727295,145.501999 
	C1034.983276,143.949692 1050.115479,147.922699 1064.626343,157.147415 
	C1059.116943,165.288971 1053.852051,173.069046 1048.549194,180.905396 
	C1044.559082,179.274628 1040.766479,177.724640 1036.569824,176.081390 
z"/>
<path fill="#243764" opacity="1.000000" stroke="none" 
	d="
M747.096069,344.986267 
	C751.477966,345.515564 755.413147,346.018005 759.853577,346.584961 
	C758.576050,359.269165 757.322693,371.713348 756.032227,384.525543 
	C746.203735,383.776917 736.816406,383.061890 726.843323,382.302246 
	C728.194824,369.029846 729.499878,356.213898 730.848633,342.968628 
	C736.518188,343.682953 741.583801,344.321167 747.096069,344.986267 
z"/>
<path fill="#243764" opacity="1.000000" stroke="none" 
	d="
M730.794678,503.690582 
	C739.182861,503.214813 747.134338,502.786163 755.457886,502.337463 
	C756.450867,514.882751 757.418030,527.102417 758.454529,540.197327 
	C748.994690,541.240662 739.535278,542.283875 729.446716,543.396484 
	C728.604370,533.440125 727.794067,524.033142 727.022705,514.623047 
	C726.832275,512.300537 727.052368,509.908051 726.579895,507.653290 
	C725.855103,504.194122 727.591797,503.583740 730.794678,503.690582 
z"/>
<path fill="#243864" opacity="1.000000" stroke="none" 
	d="
M872.872742,222.129456 
	C869.936890,235.310333 867.013306,248.065628 863.908691,261.610779 
	C853.779907,258.034668 844.813171,254.868835 835.954895,251.741287 
	C838.933960,240.034546 841.786987,228.823105 844.716187,217.312408 
	C853.452576,218.252884 862.348755,219.184280 871.232117,220.225266 
	C871.832581,220.295624 872.336304,221.191788 872.872742,222.129456 
z"/>
<path fill="#243764" opacity="1.000000" stroke="none" 
	d="
M1054.086182,387.900818 
	C1051.360229,387.006897 1049.017822,386.215240 1046.234009,385.274445 
	C1049.831421,373.141907 1053.380737,361.171570 1057.042480,348.821716 
	C1066.459473,351.348450 1075.531860,353.782715 1085.258667,356.392609 
	C1081.530640,369.023804 1077.891968,381.352570 1074.078247,394.274200 
	C1067.280518,392.100189 1060.875122,390.051636 1054.086182,387.900818 
z"/>
<path fill="#243764" opacity="1.000000" stroke="none" 
	d="
M767.660645,307.658020 
	C767.239502,309.328888 766.914734,310.584198 766.464722,312.323547 
	C757.025696,310.667969 747.779846,309.046265 737.699707,307.278229 
	C740.451843,294.278168 743.137390,281.592926 745.952332,268.296417 
	C755.736023,270.718658 764.822205,272.968231 774.231567,275.297791 
	C772.018677,286.215881 769.887878,296.729218 767.660645,307.658020 
z"/>
<path fill="#243764" opacity="1.000000" stroke="none" 
	d="
M415.843536,380.986450 
	C415.058411,379.666534 414.098969,378.327637 414.340454,377.260559 
	C416.563812,367.435760 418.994965,357.658051 421.452881,347.506409 
	C430.063263,347.506409 439.568939,347.506409 449.547180,347.506409 
	C449.063873,362.483917 445.729187,376.177826 440.773773,389.968536 
	C432.359497,386.926422 424.292877,384.010010 415.843536,380.986450 
z"/>
<path fill="#243764" opacity="1.000000" stroke="none" 
	d="
M741.039673,608.977417 
	C739.038879,600.194946 737.105408,591.819336 735.040527,582.874329 
	C744.870667,581.052429 754.097717,579.342285 763.679749,577.566345 
	C766.587524,589.687256 769.398499,601.404907 772.334656,613.643982 
	C763.319153,616.441467 754.222778,619.264038 744.737427,622.207336 
	C743.440552,617.626709 742.273804,613.505493 741.039673,608.977417 
z"/>
<path fill="#243764" opacity="1.000000" stroke="none" 
	d="
M1073.166748,275.184967 
	C1082.196411,276.090302 1090.794556,276.970886 1100.378540,277.952454 
	C1098.443604,291.078949 1096.546509,303.948517 1094.527466,317.645630 
	C1084.679565,315.758026 1075.474121,313.993591 1065.747192,312.129181 
	C1066.972656,303.982971 1068.161865,296.156525 1069.322998,288.325897 
	C1069.859497,284.708771 1070.246216,281.065796 1070.917603,277.475037 
	C1071.077393,276.620026 1072.106201,275.927490 1073.166748,275.184967 
z"/>
<path fill="#243764" opacity="1.000000" stroke="none" 
	d="
M148.344559,322.592072 
	C144.359787,321.349060 140.748566,320.254456 136.462799,318.955353 
	C141.060638,306.169006 145.483139,293.870239 150.117920,280.981110 
	C159.476883,284.932770 168.263916,288.642975 177.087860,292.368713 
	C172.845139,304.136383 168.747559,315.501465 164.500580,327.280914 
	C159.174835,325.748749 153.946472,324.244629 148.344559,322.592072 
z"/>
<path fill="#243764" opacity="1.000000" stroke="none" 
	d="
M601.925293,178.820877 
	C603.424805,172.811630 604.847168,167.204849 606.390991,161.119476 
	C615.815186,162.982376 625.130371,164.823730 635.229004,166.819931 
	C631.692017,180.101776 628.301208,192.834778 624.779846,206.057999 
	C615.052856,202.855652 606.013245,199.879623 596.761536,196.833740 
	C598.552673,190.632431 600.200378,184.927887 601.925293,178.820877 
z"/>
<path fill="#243764" opacity="1.000000" stroke="none" 
	d="
M770.684692,376.656982 
	C775.742798,369.018280 780.596375,361.677979 785.743164,353.894135 
	C793.910828,359.084106 801.976746,364.209442 810.455383,369.597015 
	C803.089172,380.651703 795.928589,391.397797 788.566162,402.446869 
	C780.415283,396.779022 772.671082,391.393951 764.501282,385.712982 
	C766.613159,382.619537 768.546631,379.787476 770.684692,376.656982 
z"/>
<path fill="#243764" opacity="1.000000" stroke="none" 
	d="
M465.945404,444.932861 
	C467.487854,441.410156 468.919678,438.253510 470.549377,434.660675 
	C479.359924,438.676025 487.914215,442.574615 496.749023,446.601044 
	C492.377075,457.982941 488.068359,469.200134 483.566315,480.920624 
	C474.600800,478.266479 465.463837,475.561584 455.645477,472.654968 
	C459.148865,463.249146 462.491821,454.274017 465.945404,444.932861 
z"/>
<path fill="#243764" opacity="1.000000" stroke="none" 
	d="
M959.683655,576.644775 
	C963.205811,570.996155 966.528015,565.651123 970.082947,559.931702 
	C978.380249,564.764954 986.507568,569.499146 995.409851,574.684814 
	C988.251709,585.983276 981.211853,597.095032 974.006409,608.468201 
	C965.641907,602.653748 957.892639,597.267029 949.908142,591.716736 
	C953.205383,586.631409 956.344543,581.789917 959.683655,576.644775 
z"/>
<path fill="#243764" opacity="1.000000" stroke="none" 
	d="
M1030.488281,461.454346 
	C1026.804443,459.906433 1023.462708,458.532776 1019.806396,457.029846 
	C1024.428589,445.124542 1028.902710,433.600647 1033.639893,421.399200 
	C1042.764771,424.741486 1051.695068,428.012543 1061.092285,431.454651 
	C1056.296021,443.796143 1051.636719,455.785278 1046.867065,468.058441 
	C1041.218750,465.793762 1036.024536,463.711182 1030.488281,461.454346 
z"/>
<path fill="#243764" opacity="1.000000" stroke="none" 
	d="
M563.396118,307.662598 
	C567.323914,309.870087 570.936401,311.886566 575.138672,314.232300 
	C568.547974,325.561890 562.089233,336.664581 555.355713,348.239563 
	C546.892273,343.084351 538.759705,338.130676 530.377563,333.025024 
	C536.894958,321.841431 543.139771,311.125610 549.624573,299.997925 
	C554.180847,302.528534 558.630798,305.000061 563.396118,307.662598 
z"/>
<path fill="#243764" opacity="1.000000" stroke="none" 
	d="
M497.620941,384.581604 
	C501.705597,378.115814 505.586700,371.952972 509.745331,365.349426 
	C518.033936,370.729309 525.927368,375.852692 534.185547,381.212799 
	C527.524109,391.939819 520.999512,402.446411 514.124512,413.517365 
	C505.800873,408.715698 497.560699,403.962189 488.920197,398.977722 
	C491.962830,393.931274 494.690125,389.407898 497.620941,384.581604 
z"/>
<path fill="#243764" opacity="1.000000" stroke="none" 
	d="
M843.072388,307.036896 
	C838.342957,315.999298 833.761169,324.619049 828.872314,333.816437 
	C820.287842,328.965393 812.138306,324.360107 803.520447,319.490234 
	C809.362366,308.322632 815.084412,297.384186 821.082703,285.917633 
	C829.687866,290.056274 838.271362,294.184479 847.260681,298.507874 
	C845.826721,301.413025 844.523376,304.053650 843.072388,307.036896 
z"/>
<path fill="#243764" opacity="1.000000" stroke="none" 
	d="
M1066.936768,209.212677 
	C1065.510864,206.283325 1065.792236,204.741028 1068.918579,203.654785 
	C1076.742432,200.936493 1084.435303,197.841141 1092.687378,194.704468 
	C1097.972290,208.276382 1100.166016,222.173355 1101.099243,236.850586 
	C1091.301636,237.469070 1081.938232,238.060165 1072.863159,238.633041 
	C1070.864014,228.702942 1068.942017,219.155365 1066.936768,209.212677 
z"/>
<path fill="#233764" opacity="1.000000" stroke="none" 
	d="
M512.769531,622.681396 
	C510.876251,622.757324 508.881104,622.928467 507.403259,622.135437 
	C495.491119,615.743774 486.330719,606.036133 476.223145,596.212036 
	C483.583282,589.569702 490.657562,583.185303 497.619476,576.902344 
	C505.702881,583.929016 513.451416,590.664551 521.692444,597.828247 
	C518.939514,605.506226 515.923401,613.918030 512.769531,622.681396 
z"/>
<path fill="#243764" opacity="1.000000" stroke="none" 
	d="
M432.895813,294.113068 
	C434.912292,296.945496 436.715820,299.492004 438.834961,302.484222 
	C430.284302,307.558289 422.201477,312.354706 414.841248,316.722321 
	C406.972626,309.499542 399.485199,302.626678 391.650574,295.435089 
	C395.808960,288.015228 400.418304,279.790680 405.251373,271.166931 
	C416.084595,276.955017 425.118622,284.480164 432.895813,294.113068 
z"/>
<path fill="#243764" opacity="1.000000" stroke="none" 
	d="
M1019.438232,415.559692 
	C1009.331543,410.510651 999.565918,405.644775 989.337646,400.548340 
	C995.258972,391.712738 1000.500000,383.892242 1005.666321,376.183136 
	C1016.257629,381.445465 1026.580688,386.574524 1037.275635,391.888397 
	C1034.141357,400.581879 1030.954102,409.422363 1027.636719,418.623962 
	C1024.713379,417.552032 1022.246399,416.647461 1019.438232,415.559692 
z"/>
<path fill="#243764" opacity="1.000000" stroke="none" 
	d="
M420.666077,432.622040 
	C414.463226,442.444153 408.455078,451.946808 402.182220,461.868164 
	C393.903687,455.723755 386.356476,450.122101 378.686890,444.429657 
	C385.223846,434.121094 391.591553,424.079437 398.355774,413.412537 
	C406.606720,417.889679 414.951843,422.417908 423.548126,427.082458 
	C422.496094,429.126007 421.678436,430.714294 420.666077,432.622040 
z"/>
<path fill="#243764" opacity="1.000000" stroke="none" 
	d="
M188.793076,256.238068 
	C181.745331,252.448151 175.034973,248.831757 167.637405,244.845001 
	C174.431702,233.349411 181.057053,222.139633 187.991684,210.406601 
	C196.464554,215.899261 204.449936,221.075897 212.549759,226.326721 
	C206.082001,237.221832 199.908417,247.621445 193.486679,258.439026 
	C192.007385,257.750549 190.568909,257.081055 188.793076,256.238068 
z"/>
<path fill="#233764" opacity="1.000000" stroke="none" 
	d="
M637.225586,531.158691 
	C638.583008,531.028809 640.106750,530.712158 640.695068,531.312439 
	C646.848022,537.590027 652.851013,544.014771 659.272095,550.796448 
	C649.285950,559.687805 639.519653,568.383301 629.517700,577.288696 
	C623.121704,569.550415 617.099548,562.264465 610.919922,554.787842 
	C619.718506,546.883850 628.338074,539.140686 637.225586,531.158691 
z"/>
<path fill="#243764" opacity="1.000000" stroke="none" 
	d="
M591.101318,605.107910 
	C580.888367,610.656250 570.991882,616.028992 560.393066,621.782959 
	C556.637146,612.020325 553.220947,603.140625 549.833496,594.335815 
	C560.304810,588.680420 570.463501,583.193909 581.237915,577.374878 
	C586.302002,585.017334 591.575989,592.976501 597.053223,601.242493 
	C594.966309,602.608887 593.192017,603.770630 591.101318,605.107910 
z"/>
<path fill="#243764" opacity="1.000000" stroke="none" 
	d="
M976.148193,357.087067 
	C969.969849,361.312164 964.097534,365.343750 957.779114,369.681641 
	C949.096252,357.262878 944.448914,343.650970 941.038696,328.797638 
	C950.630798,326.736725 959.927246,324.739319 968.688477,322.856903 
	C972.807495,333.424561 976.695801,343.400269 980.744568,353.787689 
	C979.642456,354.585510 978.048340,355.739563 976.148193,357.087067 
z"/>
<path fill="#233764" opacity="1.000000" stroke="none" 
	d="
M1073.310303,400.499878 
	C1085.247437,401.772339 1096.803345,403.148926 1109.242065,404.630646 
	C1108.832520,413.640320 1108.406616,423.011658 1107.925171,433.600952 
	C1094.524414,432.249542 1081.421265,430.928162 1067.307617,429.504852 
	C1069.289307,419.316650 1071.109253,409.960358 1073.310303,400.499878 
z"/>
<path fill="#233764" opacity="1.000000" stroke="none" 
	d="
M976.563354,169.503265 
	C983.564636,175.898422 990.280151,182.096619 996.443726,187.785461 
	C990.553589,197.526474 984.900635,206.875198 978.930237,216.748947 
	C970.739075,213.335434 961.944824,209.670609 952.829712,205.872055 
	C958.421509,192.552612 965.276184,180.525681 974.602112,169.984299 
	C974.959473,169.580383 975.710144,169.524445 976.563354,169.503265 
z"/>
<path fill="#243764" opacity="1.000000" stroke="none" 
	d="
M245.693359,155.309113 
	C249.936203,159.065842 253.915833,162.585175 258.149902,166.329529 
	C250.173706,176.066223 242.335052,185.634995 234.234894,195.522995 
	C226.558640,189.680786 219.071747,183.982697 210.986786,177.829437 
	C219.458786,167.473297 227.619049,157.498230 236.119934,147.106796 
	C239.481049,149.982254 242.455597,152.526993 245.693359,155.309113 
z"/>
<path fill="#233764" opacity="1.000000" stroke="none" 
	d="
M767.530029,206.526611 
	C770.201538,201.533951 772.688721,196.867249 775.362427,191.850601 
	C783.871948,197.128983 791.996277,202.168442 799.791199,207.003540 
	C794.730530,217.951797 789.878479,228.448761 784.760254,239.521606 
	C775.946411,236.323105 766.992554,233.073822 757.533264,229.641098 
	C760.938477,221.732742 764.142090,214.292648 767.530029,206.526611 
z"/>
<path fill="#233764" opacity="1.000000" stroke="none" 
	d="
M940.753052,247.818771 
	C941.603577,247.014847 942.433167,246.165848 943.087341,246.284439 
	C951.862122,247.875198 960.612427,249.600998 969.256653,251.271591 
	C968.070496,263.309937 966.921509,274.971313 965.745300,286.908203 
	C956.391907,286.908203 947.006287,286.908203 936.213013,286.908203 
	C937.721863,273.754730 939.186218,260.989105 940.753052,247.818771 
z"/>
<path fill="#233764" opacity="1.000000" stroke="none" 
	d="
M1006.875000,536.113037 
	C1000.632141,532.923828 994.733032,529.886841 988.308716,526.579529 
	C993.794250,515.065918 999.172607,503.777252 1004.692139,492.192169 
	C1013.581177,496.212799 1022.171692,500.098450 1031.341431,504.246063 
	C1025.644531,516.134338 1020.092102,527.721008 1014.334473,539.735901 
	C1011.613342,538.408752 1009.416016,537.337036 1006.875000,536.113037 
z"/>
<path fill="#233764" opacity="1.000000" stroke="none" 
	d="
M704.699707,503.698944 
	C698.831177,510.060333 693.203857,516.163086 687.174255,522.702148 
	C680.075134,515.963196 673.244568,509.479095 666.052673,502.652039 
	C674.674500,493.188721 683.103516,483.937134 691.835876,474.352509 
	C699.206299,480.807953 706.298706,487.019867 713.729187,493.527893 
	C710.639893,497.012390 707.790466,500.226349 704.699707,503.698944 
z"/>
<path fill="#233764" opacity="1.000000" stroke="none" 
	d="
M272.366791,110.367554 
	C279.784424,104.175690 286.937622,98.219337 294.628418,91.815361 
	C300.655396,99.775772 306.415680,107.383957 312.216919,115.046188 
	C302.693817,123.130241 293.475830,130.955307 283.920593,139.066650 
	C277.449799,132.283112 270.937134,125.455688 264.008148,118.191788 
	C266.823914,115.551872 269.463135,113.077477 272.366791,110.367554 
z"/>
<path fill="#233764" opacity="1.000000" stroke="none" 
	d="
M846.749084,161.156647 
	C851.999634,164.605759 856.898010,167.916519 862.583801,171.759521 
	C854.474976,178.759155 847.357422,184.903122 840.007874,191.247360 
	C834.292847,186.792084 828.057739,184.660263 820.591919,186.853119 
	C817.152527,177.912308 813.774902,169.131927 810.199707,159.837845 
	C822.819824,155.091949 834.655762,156.039246 846.749084,161.156647 
z"/>
<path fill="#233764" opacity="1.000000" stroke="none" 
	d="
M568.933105,263.047852 
	C573.792969,252.638596 578.506592,242.583923 583.473328,231.989288 
	C592.205200,235.685333 600.963501,239.392578 610.345215,243.363693 
	C604.738586,255.461884 599.272156,267.257660 593.657410,279.373413 
	C585.281677,275.195404 577.391602,271.358002 569.649597,267.242279 
	C568.894897,266.841034 569.052612,264.723389 568.933105,263.047852 
z"/>
</svg>